{"glyphs":{"0":{"ha":738,"x_min":65,"x_max":673,"o":"m 369 -12 q 200 35 270 -12 q 98 161 131 81 q 65 347 65 241 l 65 868 q 141 1132 65 1036 q 369 1227 217 1227 q 596 1131 520 1227 q 673 868 673 1035 l 673 347 q 595 86 673 184 q 369 -12 517 -12 m 369 130 q 499 347 499 130 l 499 868 q 496 933 499 905 q 485 992 494 962 q 463 1041 477 1021 q 425 1073 449 1061 q 369 1085 401 1085 q 313 1073 336 1085 q 275 1041 289 1061 q 253 992 261 1021 q 241 933 244 962 q 239 868 239 905 l 239 347 q 244 269 239 304 q 264 200 250 233 q 304 149 278 168 q 369 130 331 130 z "},"1":{"ha":434,"x_min":43,"x_max":347,"o":"m 174 0 l 174 955 l 43 955 l 43 1085 q 217 1215 174 1132 l 347 1215 l 347 0 l 174 0 z "},"2":{"ha":692,"x_min":48,"x_max":656,"o":"m 48 0 l 48 174 l 353 608 q 376 641 358 615 q 401 675 395 666 q 422 708 407 684 q 443 744 437 731 q 458 779 448 756 q 472 820 468 802 q 479 862 476 838 q 483 911 483 886 q 449 1035 483 984 q 353 1085 416 1085 q 289 1067 315 1085 q 249 1016 262 1048 q 229 947 235 983 q 222 868 222 911 l 222 825 l 49 825 l 49 868 q 122 1133 49 1039 q 353 1227 195 1227 q 578 1144 500 1227 q 656 911 656 1061 q 647 806 656 855 q 615 713 637 758 q 576 639 594 668 q 526 564 558 610 l 222 174 l 656 174 l 656 0 l 48 0 z "},"3":{"ha":696,"x_min":53,"x_max":661,"o":"m 357 -12 q 131 71 209 -12 q 53 304 53 154 l 53 347 l 227 347 q 229 278 227 307 q 239 219 231 249 q 260 171 247 189 q 298 142 274 153 q 357 130 323 130 q 415 142 391 130 q 453 171 439 153 q 474 219 467 189 q 485 278 482 249 q 487 347 487 307 q 447 508 487 452 q 313 564 406 564 l 313 738 q 448 777 408 738 q 487 911 487 816 q 458 1041 487 998 q 357 1085 430 1085 q 298 1074 323 1085 q 260 1044 274 1062 q 239 996 247 1026 q 229 938 231 966 q 227 868 227 909 l 53 868 l 53 911 q 131 1144 53 1061 q 357 1227 210 1227 q 583 1144 505 1227 q 661 911 661 1061 q 614 742 661 808 q 487 651 568 676 q 616 545 572 623 q 661 347 661 467 q 587 82 661 176 q 357 -12 514 -12 z "},"4":{"ha":737,"x_min":56,"x_max":711,"o":"m 230 476 l 404 476 l 404 998 l 230 476 m 404 0 l 404 312 l 56 312 l 56 505 l 360 1216 l 577 1216 l 577 476 l 711 476 l 711 312 l 577 312 l 577 0 l 404 0 z "},"5":{"ha":712,"x_min":62,"x_max":670,"o":"m 363 -12 q 132 79 201 -12 q 62 347 62 170 l 236 347 l 236 320 q 238 260 236 286 q 248 208 241 235 q 268 164 255 181 q 302 137 280 148 q 353 126 323 126 q 396 132 377 126 q 430 146 416 138 q 454 171 444 155 q 472 201 465 187 q 484 239 479 215 q 491 280 489 264 q 495 327 494 297 q 496 374 496 357 q 496 424 496 391 q 496 446 496 439 q 496 496 496 475 q 492 541 495 517 q 484 581 489 565 q 469 614 478 597 q 446 640 459 630 q 412 655 432 649 q 367 661 392 661 q 287 631 321 661 q 237 560 253 601 l 90 560 l 90 1215 l 627 1215 l 627 1042 l 247 1042 l 236 747 q 410 791 309 791 q 514 773 469 791 q 588 724 559 755 q 636 646 617 692 q 662 549 654 600 q 670 434 670 497 q 662 293 670 356 q 633 172 654 230 q 578 74 612 113 q 489 11 544 35 q 363 -12 435 -12 z "},"6":{"ha":734,"x_min":76,"x_max":684,"o":"m 316 149 q 329 139 316 149 q 380 130 342 130 q 444 149 417 130 q 484 199 470 167 q 504 268 498 232 q 510 347 510 304 q 510 386 510 373 q 509 424 510 399 q 506 461 508 448 q 502 495 505 475 q 494 527 498 515 q 482 553 489 538 q 465 576 475 568 q 444 593 456 585 q 415 604 431 601 q 380 608 399 608 q 250 521 296 608 l 250 347 q 256 268 250 304 q 276 199 262 232 q 316 149 290 167 m 380 -12 q 267 9 317 -12 q 181 66 216 30 q 122 154 146 103 q 87 265 98 205 q 76 391 76 324 l 76 781 q 85 919 76 856 q 115 1041 94 983 q 171 1139 137 1099 q 258 1204 205 1180 q 380 1227 311 1227 q 605 1144 526 1227 q 684 911 684 1061 l 510 911 q 482 1042 510 998 q 380 1085 454 1085 q 250 825 250 1085 l 250 651 q 423 738 300 738 q 548 712 496 738 q 629 638 600 687 q 671 530 658 590 q 684 391 684 469 q 667 234 684 305 q 614 107 650 163 q 519 19 579 51 q 380 -12 460 -12 z "},"7":{"ha":560,"x_min":31,"x_max":517,"o":"m 129 0 l 351 1071 l 31 1071 l 31 1215 l 517 1215 l 517 1132 l 296 0 l 129 0 z "},"8":{"ha":694,"x_min":43,"x_max":651,"o":"m 348 721 q 405 736 382 721 q 438 782 427 752 q 453 841 449 811 q 456 911 456 871 q 348 1085 456 1085 q 238 911 238 1085 q 242 841 238 871 q 257 781 246 810 q 291 736 268 752 q 348 721 313 721 m 290 142 q 302 136 290 142 q 348 130 314 130 q 406 142 382 130 q 444 173 431 155 q 466 221 458 191 q 475 279 473 252 q 477 347 477 307 q 472 424 477 390 q 453 490 467 458 q 413 538 439 521 q 348 555 387 555 q 282 538 309 555 q 242 490 256 521 q 222 425 228 459 q 217 347 217 391 q 219 279 217 307 q 230 221 222 251 q 251 172 237 191 q 290 142 265 154 m 348 -12 q 116 80 188 -12 q 43 347 43 173 q 75 529 43 460 q 175 642 106 597 q 89 750 117 686 q 61 911 61 814 q 133 1145 61 1062 q 348 1227 205 1227 q 562 1144 490 1227 q 633 911 633 1061 q 606 750 633 814 q 520 642 578 686 q 620 528 589 597 q 651 347 651 458 q 579 80 651 173 q 348 -12 507 -12 z "},"9":{"ha":734,"x_min":62,"x_max":670,"o":"m 366 608 q 496 694 449 608 l 496 868 q 490 947 496 911 q 470 1016 484 983 q 430 1067 456 1048 q 366 1085 404 1085 q 302 1067 329 1085 q 262 1016 276 1048 q 242 947 248 983 q 236 868 236 911 q 236 829 236 842 q 237 791 236 816 q 240 754 238 767 q 244 720 241 741 q 252 689 248 700 q 264 662 257 677 q 281 639 271 647 q 302 623 290 631 q 331 611 315 614 q 366 608 347 608 m 366 -12 q 141 71 220 -12 q 62 304 62 154 l 236 304 q 264 174 236 217 q 366 130 292 130 q 496 391 496 130 l 496 564 q 323 477 445 477 q 198 503 250 477 q 117 577 146 528 q 75 686 88 625 q 62 825 62 746 q 79 981 62 910 q 132 1108 96 1052 q 227 1196 167 1164 q 366 1227 286 1227 q 479 1206 429 1227 q 565 1149 530 1185 q 624 1061 600 1112 q 659 950 648 1010 q 670 825 670 891 l 670 434 q 661 296 670 359 q 631 175 652 233 q 575 76 609 117 q 488 12 541 35 q 366 -12 435 -12 z "}," ":{"ha":282,"x_min":0,"x_max":0,"o":""},"!":{"ha":254,"x_min":43,"x_max":217,"o":"m 87 260 l 43 1215 l 217 1215 l 186 260 l 87 260 m 43 0 l 43 174 l 217 174 l 217 0 l 43 0 z "},"\"":{"ha":477,"x_min":42,"x_max":435,"o":"m 304 901 l 261 1215 l 435 1215 l 391 901 l 304 901 m 85 901 l 42 1215 l 216 1215 l 172 901 l 85 901 z "},"#":{"ha":738,"x_min":43,"x_max":694,"o":"m 296 564 l 427 564 l 446 694 l 315 694 l 296 564 m 43 0 l 104 434 l 43 434 l 43 564 l 123 564 l 142 694 l 43 694 l 43 825 l 160 825 l 216 1215 l 389 1215 l 334 825 l 464 825 l 519 1215 l 693 1215 l 637 825 l 694 825 l 694 694 l 619 694 l 600 564 l 694 564 l 694 434 l 582 434 l 521 0 l 347 0 l 408 434 l 278 434 l 217 0 l 43 0 z "},"$":{"ha":825,"x_min":86,"x_max":738,"o":"m 477 134 q 564 260 564 154 q 545 352 564 313 q 491 426 526 391 l 477 439 l 477 134 m 391 747 l 391 1085 q 294 1050 328 1085 q 260 953 260 1015 q 347 781 260 850 l 391 747 m 391 -87 l 391 -10 q 173 97 250 0 q 87 347 96 193 l 260 391 q 376 141 267 192 l 391 136 l 391 512 l 217 651 q 122 771 157 699 q 86 935 86 842 q 170 1148 86 1069 q 391 1227 253 1227 l 391 1302 l 477 1302 l 477 1220 l 505 1214 q 738 911 720 1156 l 564 868 q 491 1050 558 996 l 477 1061 l 477 677 l 564 608 q 689 464 641 548 q 738 272 738 379 q 667 76 738 149 q 477 -10 597 3 l 477 -87 l 391 -87 z "},"%":{"ha":1356,"x_min":53,"x_max":1303,"o":"m 1167 26 q 1143 13 1167 26 q 1054 0 1118 0 q 941 26 989 0 q 863 99 892 52 q 820 204 834 145 q 806 334 806 263 q 820 464 806 406 q 862 567 833 522 q 940 636 891 612 q 1054 661 988 661 q 1168 636 1120 661 q 1246 567 1217 612 q 1289 464 1275 522 q 1303 334 1303 406 q 1289 203 1303 262 q 1245 98 1274 144 q 1167 26 1216 52 m 1054 132 q 1145 334 1145 132 q 1054 529 1145 529 q 964 334 964 529 q 967 268 964 298 q 979 204 970 237 q 1007 152 988 171 q 1054 132 1026 132 m 509 0 l 701 1029 l 850 1029 l 659 0 l 509 0 m 414 393 q 390 380 414 393 q 301 367 366 367 q 188 393 237 367 q 111 465 140 419 q 67 570 81 511 q 53 700 53 629 q 66 830 53 772 q 109 933 80 888 q 186 1003 138 979 q 301 1028 235 1028 q 396 1011 354 1028 q 467 966 438 995 q 514 895 495 937 q 542 805 533 854 q 550 700 550 757 q 535 570 550 629 q 492 465 521 511 q 414 393 463 418 m 301 498 q 392 700 392 498 q 301 896 392 896 q 211 700 211 896 q 214 634 211 665 q 227 570 218 603 q 254 518 235 537 q 301 498 273 498 z "},"&":{"ha":911,"x_min":87,"x_max":825,"o":"m 370 694 q 445 834 413 749 q 477 998 477 919 q 454 1061 477 1038 q 391 1085 430 1085 q 325 1047 347 1085 q 304 955 304 1008 q 315 859 304 911 q 338 775 327 808 q 370 694 350 742 m 347 130 q 499 217 430 130 l 416 341 q 386 383 407 355 q 349 434 364 410 q 326 477 333 457 q 278 380 296 438 q 260 260 260 323 q 281 167 260 203 q 347 130 301 130 m 347 -12 q 157 62 227 -12 q 87 260 87 137 q 260 608 87 454 q 221 682 251 627 q 176 769 191 736 q 145 855 160 802 q 130 955 130 907 q 201 1152 130 1077 q 391 1227 271 1227 q 577 1165 503 1227 q 651 998 651 1103 q 636 902 651 951 q 601 815 621 853 q 547 735 580 777 q 491 666 515 692 q 434 608 467 640 l 608 347 q 629 415 620 374 q 641 478 637 456 q 651 564 644 501 l 825 564 q 793 393 825 481 q 717 237 761 304 q 825 174 768 174 l 825 -12 q 792 -11 808 -12 q 762 -3 777 -9 q 735 6 746 3 q 709 21 724 10 q 687 35 694 31 q 665 53 680 39 q 646 70 649 67 q 625 89 642 73 q 608 106 608 106 q 499 20 565 52 q 347 -12 433 -12 z "},"'":{"ha":260,"x_min":42,"x_max":216,"o":"m 85 901 l 42 1215 l 216 1215 l 172 901 l 85 901 z "},"(":{"ha":434,"x_min":87,"x_max":391,"o":"m 391 -43 q 292 -29 336 -43 q 217 17 248 -14 q 164 81 186 47 q 127 169 141 115 q 104 267 113 223 q 92 379 96 311 q 88 491 89 447 q 87 608 87 536 q 88 741 87 690 q 95 868 89 791 q 113 993 101 945 q 146 1097 124 1041 q 200 1184 168 1153 q 280 1237 232 1216 q 391 1259 329 1259 l 391 1128 q 332 1107 357 1128 q 293 1053 307 1086 q 271 971 279 1021 q 261 877 263 922 q 258 775 258 832 q 259 686 258 743 q 260 608 260 629 q 259 528 260 586 q 258 437 258 471 q 261 336 258 380 q 271 243 263 292 q 293 161 279 194 q 332 108 307 129 q 391 87 357 87 l 391 -43 z "},")":{"ha":434,"x_min":43,"x_max":347,"o":"m 43 -43 l 43 87 q 102 108 77 87 q 141 162 127 130 q 163 244 155 195 q 173 338 171 294 q 176 440 176 383 q 175 529 176 473 q 174 608 174 586 q 175 687 174 629 q 176 778 176 745 q 173 879 176 835 q 163 972 171 924 q 141 1054 155 1021 q 102 1107 127 1086 q 43 1128 77 1128 l 43 1259 q 142 1244 98 1259 q 217 1199 186 1230 q 270 1134 248 1168 q 307 1046 293 1100 q 330 948 321 992 q 342 837 338 905 q 346 724 345 768 q 347 608 347 680 q 346 474 347 525 q 339 347 345 424 q 321 222 333 270 q 288 118 310 174 q 234 31 266 62 q 154 -22 202 -1 q 43 -43 105 -43 z "},"*":{"ha":608,"x_min":72,"x_max":579,"o":"m 233 613 l 130 674 l 246 839 l 72 905 l 113 1015 l 279 925 l 260 1128 l 391 1128 l 371 925 l 538 1015 l 579 905 l 405 838 l 522 674 l 418 613 l 326 801 l 233 613 z "},"+":{"ha":477,"x_min":43,"x_max":434,"o":"m 174 260 l 174 391 l 43 391 l 43 521 l 174 521 l 174 651 l 304 651 l 304 521 l 434 521 l 434 391 l 304 391 l 304 260 l 174 260 z "},",":{"ha":277,"x_min":52,"x_max":225,"o":"m 95 -174 l 52 -87 q 118 -66 98 -87 q 138 0 138 -46 l 52 0 l 52 174 l 225 174 q 223 9 225 76 q 219 -52 222 -27 q 208 -102 216 -77 q 186 -141 200 -127 q 150 -165 173 -156 q 95 -174 127 -174 z "},"-":{"ha":260,"x_min":0,"x_max":260,"o":"m 0 304 l 0 434 l 260 434 l 260 304 l 0 304 z "},".":{"ha":260,"x_min":43,"x_max":217,"o":"m 43 0 l 43 174 l 217 174 l 217 0 l 43 0 z "},"/":{"ha":564,"x_min":0,"x_max":564,"o":"m 0 0 l 390 1215 l 564 1215 l 174 0 l 0 0 z "},":":{"ha":298,"x_min":87,"x_max":260,"o":"m 87 564 l 87 738 l 260 738 l 260 564 l 87 564 m 87 174 l 87 347 l 260 347 l 260 174 l 87 174 z "},";":{"ha":260,"x_min":43,"x_max":217,"o":"m 43 564 l 43 738 l 217 738 l 217 564 l 43 564 m 87 0 l 43 87 q 110 107 90 87 q 130 174 130 127 l 43 174 l 43 347 l 217 347 q 215 183 217 250 q 211 121 214 146 q 200 72 208 96 q 178 32 192 47 q 142 9 165 18 q 87 0 119 0 z "},"<":{"ha":564,"x_min":43,"x_max":477,"o":"m 477 43 l 43 347 l 43 521 l 477 825 l 477 651 l 174 435 l 477 217 l 477 43 z "},"=":{"ha":477,"x_min":43,"x_max":434,"o":"m 43 391 l 43 521 l 434 521 l 434 391 l 43 391 m 43 173 l 43 303 l 434 303 l 434 173 l 43 173 z "},">":{"ha":564,"x_min":87,"x_max":521,"o":"m 87 43 l 87 217 l 391 435 l 87 651 l 87 825 l 521 521 l 521 347 l 87 43 z "},"?":{"ha":781,"x_min":87,"x_max":695,"o":"m 260 0 l 260 174 l 434 174 l 434 0 l 260 0 m 260 260 l 260 477 q 335 525 303 503 q 404 580 366 547 q 465 648 441 614 q 505 728 488 682 q 521 825 521 774 q 391 955 521 955 q 289 911 317 955 q 260 781 260 867 l 87 781 l 87 825 q 165 1051 87 973 q 391 1128 243 1128 q 617 1050 539 1128 q 695 825 695 972 q 626 587 695 681 q 434 434 557 493 l 434 260 l 260 260 z "},"@":{"ha":1208,"x_min":87,"x_max":1122,"o":"m 600 340 q 650 368 646 340 l 650 641 q 613 675 645 675 q 588 673 600 675 q 568 663 576 670 q 552 649 559 656 q 540 630 545 643 q 532 609 535 617 q 526 583 528 600 q 523 556 524 566 q 522 527 522 547 q 521 499 521 507 q 521 470 521 491 q 600 340 521 340 m 650 -87 q 221 63 355 -87 q 87 521 87 214 q 224 920 87 773 q 608 1066 362 1066 q 990 923 859 1066 q 1122 521 1122 779 q 1107 394 1122 452 q 1062 292 1092 336 q 984 223 1032 248 q 872 198 935 198 q 759 221 807 198 q 686 285 710 244 q 570 198 647 198 q 447 236 498 198 q 371 334 395 274 q 347 470 347 395 q 353 569 347 522 q 375 662 359 616 q 413 739 390 707 q 472 792 436 772 q 553 812 508 812 q 623 787 598 812 q 650 720 648 762 l 650 806 l 823 806 l 823 420 q 825 380 823 395 q 838 353 827 365 q 869 340 849 340 q 948 521 948 340 q 930 695 948 621 q 873 825 913 770 q 768 908 834 880 q 608 936 701 936 q 453 905 520 936 q 344 819 386 875 q 281 688 302 764 q 260 521 260 613 q 280 319 260 404 q 344 171 300 234 q 464 75 388 107 q 650 43 541 43 q 850 81 734 43 l 914 -52 q 650 -87 763 -87 z "},"A":{"ha":716,"x_min":11,"x_max":705,"o":"m 271 434 l 445 434 l 358 955 l 271 434 m 11 0 l 271 1215 l 445 1215 l 705 0 l 532 0 l 467 304 l 250 304 l 184 0 l 11 0 z "},"B":{"ha":777,"x_min":87,"x_max":738,"o":"m 260 694 l 347 694 q 564 911 564 694 q 555 975 564 947 q 534 1021 547 1002 q 497 1052 522 1039 q 452 1071 473 1064 q 394 1081 432 1078 q 332 1084 357 1084 q 260 1085 307 1085 l 260 694 m 260 130 l 347 130 q 512 182 460 130 q 564 347 564 234 q 512 512 564 460 q 347 564 460 564 l 260 564 l 260 130 m 87 0 l 87 1215 l 347 1215 q 498 1198 431 1215 q 614 1144 564 1180 q 691 1049 664 1108 q 718 911 718 990 q 669 738 718 798 q 521 651 621 679 q 684 546 629 615 q 738 347 738 476 q 645 93 738 186 q 391 0 551 0 l 87 0 z "},"C":{"ha":751,"x_min":65,"x_max":722,"o":"m 399 -12 q 264 9 322 -12 q 168 70 205 31 q 107 165 131 108 q 75 288 84 222 q 65 435 65 353 l 65 781 q 75 928 65 863 q 107 1051 84 994 q 168 1146 131 1108 q 264 1206 205 1184 q 399 1227 322 1227 q 545 1202 484 1227 q 644 1128 607 1177 q 700 1015 681 1080 q 722 865 718 951 q 722 825 722 852 l 549 825 l 549 863 q 546 925 548 899 q 538 977 544 950 q 523 1022 533 1004 q 496 1056 512 1040 q 456 1078 480 1071 q 399 1085 431 1085 q 327 1072 357 1085 q 279 1037 296 1058 q 253 979 262 1015 q 241 909 244 943 q 239 825 239 875 l 239 391 q 242 312 239 347 q 257 242 246 277 q 285 183 268 207 q 331 145 302 159 q 399 130 360 130 q 465 145 437 130 q 509 183 493 160 q 534 242 525 206 q 546 312 543 278 q 549 391 549 346 l 549 434 l 722 434 l 722 391 q 706 225 722 296 q 652 99 689 154 q 552 16 615 45 q 399 -12 488 -12 z "},"D":{"ha":768,"x_min":87,"x_max":703,"o":"m 87 0 l 87 1215 l 356 1215 q 625 1137 547 1215 q 703 868 703 1059 l 703 391 q 624 95 703 191 q 355 0 544 0 l 87 0 m 260 130 l 356 130 q 429 138 399 130 q 479 166 460 146 q 509 206 498 187 q 524 264 519 224 q 529 329 528 303 q 530 408 530 354 q 530 434 530 425 l 530 825 q 529 878 530 858 q 527 924 529 897 q 522 966 526 951 q 513 1001 519 982 q 497 1031 507 1021 q 475 1054 488 1042 q 445 1072 462 1066 q 404 1081 427 1078 q 353 1085 381 1085 l 260 1085 l 260 130 z "},"E":{"ha":584,"x_min":87,"x_max":564,"o":"m 87 0 l 87 1215 l 564 1215 l 564 1085 l 260 1085 l 260 694 l 477 694 l 477 564 l 260 564 l 260 130 l 564 130 l 564 0 l 87 0 z "},"F":{"ha":557,"x_min":87,"x_max":564,"o":"m 87 0 l 87 1215 l 564 1215 l 564 1085 l 260 1085 l 260 694 l 477 694 l 477 564 l 260 564 l 260 0 l 87 0 z "},"G":{"ha":813,"x_min":65,"x_max":760,"o":"m 412 -12 q 268 12 329 -12 q 168 76 206 35 q 106 180 129 117 q 74 313 83 243 q 65 473 65 382 l 65 781 q 419 1227 65 1227 q 566 1202 504 1227 q 667 1128 629 1177 q 726 1014 706 1079 q 749 862 745 948 q 749 825 749 850 l 576 825 l 576 861 q 571 935 575 904 q 558 996 568 966 q 531 1044 548 1025 q 486 1074 514 1063 q 419 1085 458 1085 q 330 1066 366 1085 q 274 1009 294 1046 q 247 928 255 972 q 239 825 239 884 l 239 434 q 241 356 239 391 q 251 284 244 321 q 270 222 257 248 q 301 174 282 195 q 348 141 319 153 q 412 130 376 130 q 488 147 456 130 q 538 191 519 164 q 568 259 557 218 q 582 341 578 300 q 586 434 586 382 l 586 477 l 412 477 l 412 606 l 760 606 l 760 0 l 629 0 l 586 130 q 412 -12 535 -12 z "},"H":{"ha":825,"x_min":87,"x_max":738,"o":"m 87 0 l 87 1215 l 260 1215 l 260 694 l 564 694 l 564 1215 l 738 1215 l 738 0 l 564 0 l 564 564 l 260 564 l 260 0 l 87 0 z "},"I":{"ha":368,"x_min":95,"x_max":269,"o":"m 95 0 l 95 1215 l 269 1215 l 269 0 l 95 0 z "},"J":{"ha":434,"x_min":0,"x_max":347,"o":"m 0 0 l 0 130 q 88 136 56 130 q 140 162 119 142 q 167 215 160 182 q 174 304 174 247 l 174 1215 l 347 1215 l 347 304 q 336 167 347 221 q 297 74 326 113 q 217 17 268 35 q 87 0 165 0 l 0 0 z "},"K":{"ha":758,"x_min":87,"x_max":781,"o":"m 87 0 l 87 1215 l 260 1215 l 260 694 l 521 1215 l 738 1215 l 477 738 l 781 0 l 564 0 l 347 564 l 260 391 l 260 0 l 87 0 z "},"L":{"ha":558,"x_min":87,"x_max":564,"o":"m 87 0 l 87 1215 l 260 1215 l 260 130 l 564 130 l 564 0 l 87 0 z "},"M":{"ha":998,"x_min":87,"x_max":911,"o":"m 87 0 l 87 1215 l 327 1215 l 499 285 l 671 1215 l 911 1215 l 911 0 l 738 0 l 738 959 l 564 0 l 434 0 l 260 959 l 260 0 l 87 0 z "},"N":{"ha":781,"x_min":87,"x_max":694,"o":"m 87 0 l 87 1215 l 217 1215 l 521 464 l 521 1215 l 694 1215 l 694 0 l 571 0 l 260 808 l 260 0 l 87 0 z "},"O":{"ha":800,"x_min":65,"x_max":735,"o":"m 400 -12 q 243 16 309 -12 q 139 97 178 43 q 83 223 100 151 q 65 391 65 295 l 65 831 q 83 998 65 927 q 139 1122 100 1069 q 243 1201 178 1175 q 400 1227 309 1227 q 656 1126 578 1227 q 735 831 735 1024 l 735 391 q 717 224 735 296 q 661 98 699 152 q 556 16 622 44 q 400 -12 491 -12 m 274 185 q 291 158 274 185 q 400 130 309 130 q 527 185 492 130 q 562 347 562 240 l 562 875 q 527 1033 562 981 q 400 1085 492 1085 q 273 1033 308 1085 q 239 875 239 981 l 239 347 q 274 185 239 240 z "},"P":{"ha":706,"x_min":87,"x_max":694,"o":"m 260 694 l 304 694 q 400 701 363 694 q 467 727 438 708 q 508 780 496 745 q 521 868 521 814 q 511 974 521 933 q 476 1040 502 1014 q 411 1075 451 1065 q 304 1085 370 1085 l 260 1085 l 260 694 m 87 0 l 87 1215 l 391 1215 q 694 868 694 1215 q 616 642 694 720 q 391 564 538 564 l 260 564 l 260 0 l 87 0 z "},"Q":{"ha":800,"x_min":65,"x_max":735,"o":"m 274 185 q 291 158 274 185 q 400 130 309 130 q 527 185 492 130 q 562 347 562 240 l 562 875 q 527 1033 562 981 q 400 1085 492 1085 q 273 1033 308 1085 q 239 875 239 981 l 239 347 q 274 185 239 240 m 721 -174 q 574 -122 647 -174 q 468 -7 501 -71 q 400 -12 439 -12 q 243 16 309 -12 q 139 97 178 43 q 83 223 100 151 q 65 391 65 295 l 65 831 q 83 998 65 927 q 139 1122 100 1069 q 243 1201 178 1175 q 400 1227 309 1227 q 656 1126 578 1227 q 735 831 735 1024 l 735 391 q 589 33 735 122 q 649 -13 609 5 q 721 -31 688 -31 l 721 -174 z "},"R":{"ha":751,"x_min":87,"x_max":738,"o":"m 260 694 l 304 694 q 467 740 412 694 q 521 890 521 786 q 467 1039 521 994 q 304 1085 412 1085 l 260 1085 l 260 694 m 87 0 l 87 1215 l 304 1215 q 596 1140 498 1215 q 694 890 694 1065 q 656 708 694 781 q 543 608 617 635 l 738 0 l 566 0 l 391 564 l 260 564 l 260 0 l 87 0 z "},"S":{"ha":747,"x_min":56,"x_max":707,"o":"m 404 -12 q 153 84 239 -12 q 56 347 66 180 l 230 391 q 404 130 243 130 q 534 260 534 130 q 523 332 534 299 q 491 392 513 365 q 452 436 469 420 q 404 477 434 453 l 186 651 q 91 770 127 698 q 56 935 56 842 q 139 1148 56 1069 q 360 1227 222 1227 q 595 1155 508 1227 q 703 951 682 1083 q 707 911 705 937 l 534 868 q 530 903 533 880 q 478 1035 519 985 q 360 1085 438 1085 q 264 1050 298 1085 q 230 953 230 1015 q 317 781 230 850 l 534 608 q 707 272 707 467 q 625 63 707 138 q 404 -12 543 -12 z "},"T":{"ha":606,"x_min":-1,"x_max":607,"o":"m 216 0 l 216 1061 l -1 1061 l -1 1215 l 607 1215 l 607 1061 l 390 1061 l 390 0 l 216 0 z "},"U":{"ha":849,"x_min":77,"x_max":772,"o":"m 564 8 q 534 -2 564 8 q 425 -13 504 -13 q 285 8 345 -13 q 185 67 224 29 q 122 161 146 104 q 87 284 98 218 q 77 434 77 351 l 77 1215 l 251 1215 l 251 434 q 253 340 251 378 q 266 259 256 302 q 294 190 276 216 q 345 147 312 164 q 425 130 378 130 q 504 147 471 130 q 555 190 537 164 q 583 259 573 216 q 596 340 593 302 q 598 434 598 378 l 598 1215 l 772 1215 l 772 434 q 762 284 772 351 q 727 161 751 218 q 664 67 703 104 q 564 8 625 29 z "},"V":{"ha":711,"x_min":8,"x_max":703,"o":"m 269 0 l 8 1215 l 182 1215 l 310 564 l 355 260 l 401 564 l 529 1215 l 703 1215 l 442 0 l 269 0 z "},"W":{"ha":1057,"x_min":7,"x_max":1049,"o":"m 224 0 l 7 1215 l 181 1215 l 268 651 l 312 304 l 355 651 l 441 1215 l 615 1215 l 702 651 l 745 304 l 789 651 l 876 1215 l 1049 1215 l 832 0 l 659 0 l 572 564 l 528 911 l 485 564 l 398 0 l 224 0 z "},"X":{"ha":726,"x_min":16,"x_max":710,"o":"m 17 0 l 233 630 l 16 1215 l 189 1215 l 363 738 l 536 1215 l 710 1215 l 493 633 l 707 0 l 535 0 l 363 521 l 191 0 l 17 0 z "},"Y":{"ha":690,"x_min":-2,"x_max":692,"o":"m 258 0 l 258 391 l -2 1215 l 172 1215 l 345 608 l 519 1215 l 692 1215 l 432 391 l 432 0 l 258 0 z "},"Z":{"ha":645,"x_min":42,"x_max":606,"o":"m 42 0 l 42 130 l 433 1085 l 85 1085 l 85 1215 l 606 1215 l 606 1085 l 216 130 l 606 130 l 606 0 l 42 0 z "},"[":{"ha":521,"x_min":87,"x_max":434,"o":"m 87 -43 l 87 1259 l 434 1259 l 434 1172 l 260 1172 l 260 43 l 434 43 l 434 -43 l 87 -43 z "},"\\":{"ha":391,"x_min":43,"x_max":347,"o":"m 174 0 l 43 1215 l 217 1215 l 347 0 l 174 0 z "},"]":{"ha":521,"x_min":87,"x_max":434,"o":"m 87 -43 l 87 43 l 260 43 l 260 1172 l 87 1172 l 87 1259 l 434 1259 l 434 -43 l 87 -43 z "},"^":{"ha":608,"x_min":43,"x_max":564,"o":"m 43 608 l 217 1042 l 391 1042 l 564 608 l 391 608 l 303 911 l 217 608 l 43 608 z "},"_":{"ha":521,"x_min":0,"x_max":521,"o":"m 0 0 l 0 130 l 521 130 l 521 0 l 0 0 z "},"`":{"ha":434,"x_min":87,"x_max":347,"o":"m 260 955 l 87 1215 l 260 1215 l 347 955 l 260 955 z "},"a":{"ha":648,"x_min":57,"x_max":600,"o":"m 317 130 q 353 141 336 130 q 379 162 370 152 q 401 189 388 172 q 404 194 403 193 l 404 434 q 368 411 393 427 q 328 386 343 395 q 292 358 313 376 q 260 325 271 341 q 239 286 248 309 q 231 238 231 263 q 317 130 231 130 m 231 -12 q 107 51 158 -12 q 57 192 57 113 q 78 307 57 255 q 123 389 100 358 q 203 453 147 420 q 287 498 258 486 q 386 538 315 510 q 404 545 398 543 l 404 608 q 386 710 404 673 q 317 746 368 746 q 253 715 273 746 q 231 630 234 684 q 231 608 231 623 l 57 608 q 127 806 58 732 q 317 880 195 880 q 508 805 439 880 q 578 608 578 730 l 578 217 q 600 0 578 81 l 427 0 l 404 130 q 382 88 391 103 q 357 51 374 73 q 325 17 341 29 q 284 -3 309 5 q 231 -12 260 -12 z "},"b":{"ha":707,"x_min":79,"x_max":644,"o":"m 383 130 q 430 151 411 130 q 457 209 448 171 q 468 283 465 246 q 471 370 471 321 q 471 467 471 407 q 471 558 471 528 q 469 611 471 589 q 463 659 468 634 q 448 701 457 684 q 422 727 439 717 q 383 738 406 738 q 253 703 311 738 l 253 157 q 383 130 320 130 m 427 -12 q 333 13 374 -12 q 253 79 292 38 l 253 0 l 79 0 l 79 1215 l 253 1215 l 253 782 q 290 819 277 808 q 325 848 302 831 q 374 873 349 866 q 429 880 399 880 q 508 864 473 880 q 565 826 543 848 q 603 762 587 804 q 626 686 618 720 q 638 594 634 652 q 643 501 642 536 q 644 403 644 465 l 644 391 q 638 281 644 334 q 617 174 632 229 q 578 79 602 119 q 516 13 555 39 q 427 -12 477 -12 z "},"c":{"ha":585,"x_min":33,"x_max":555,"o":"m 294 -12 q 185 9 231 -12 q 111 64 138 30 q 66 150 83 98 q 42 255 49 203 q 35 378 36 308 q 35 491 33 434 q 42 613 36 560 q 66 719 49 666 q 111 805 83 771 q 185 859 138 838 q 294 880 231 880 q 491 806 431 880 q 555 587 551 732 l 555 564 l 381 564 l 381 589 q 377 646 380 621 q 365 694 373 670 q 338 732 356 719 q 294 745 320 745 q 251 730 269 745 q 224 686 233 715 q 211 628 215 658 q 206 558 207 597 q 206 304 203 474 q 212 239 208 267 q 225 185 216 211 q 252 144 234 159 q 294 130 269 130 q 334 139 317 130 q 359 161 351 148 q 373 195 368 174 q 380 236 378 217 q 381 283 381 254 l 381 304 l 555 304 l 555 281 q 538 160 553 213 q 493 68 523 108 q 413 8 463 29 q 294 -12 363 -12 z "},"d":{"ha":712,"x_min":63,"x_max":628,"o":"m 324 130 q 454 157 387 130 l 454 703 q 324 738 396 738 q 281 725 298 738 q 254 689 263 713 q 241 639 245 665 q 237 579 237 614 q 237 338 234 427 q 241 261 237 295 q 255 196 245 227 q 281 147 264 164 q 324 130 299 130 m 281 -12 q 180 20 223 -12 q 114 109 137 53 q 79 224 90 164 q 64 353 67 284 q 64 509 63 385 q 68 590 66 554 q 78 666 71 627 q 94 735 84 705 q 120 794 104 766 q 158 840 136 822 q 210 869 180 859 q 278 880 241 880 q 333 872 307 880 q 381 848 358 865 q 418 819 404 831 q 454 782 432 806 l 454 1215 l 628 1215 l 628 0 l 454 0 l 454 79 q 374 13 415 38 q 281 -12 334 -12 z "},"e":{"ha":633,"x_min":62,"x_max":585,"o":"m 323 -12 q 213 9 260 -12 q 139 66 167 31 q 95 156 112 101 q 72 265 78 210 q 64 392 65 319 q 64 506 62 449 q 73 626 66 574 q 98 728 80 679 q 143 810 115 778 q 217 861 172 842 q 324 880 263 880 q 422 866 380 880 q 493 822 465 851 q 539 756 521 792 q 568 669 558 720 q 581 568 577 618 q 585 454 585 519 l 585 434 l 237 434 l 237 391 q 237 363 237 382 q 237 311 236 338 q 239 258 238 284 q 247 209 241 233 q 262 168 253 186 q 287 140 271 151 q 324 130 302 130 q 369 141 351 130 q 395 172 387 151 q 407 214 404 193 q 411 267 410 235 l 411 304 l 583 304 l 583 269 q 515 59 577 130 q 323 -12 452 -12 m 237 521 l 410 521 l 410 573 q 406 633 409 608 q 394 685 402 659 q 368 724 385 711 q 324 738 350 738 q 280 724 298 738 q 253 683 262 709 q 241 630 245 656 q 237 568 238 604 l 237 521 z "},"f":{"ha":430,"x_min":38,"x_max":429,"o":"m 125 0 l 125 738 l 38 738 l 38 868 l 125 868 l 125 901 q 129 995 125 956 q 145 1068 133 1033 q 179 1125 158 1104 q 236 1159 201 1147 q 321 1172 272 1172 q 429 1164 363 1172 l 429 1035 q 401 1039 422 1036 q 370 1042 380 1042 q 313 1014 327 1042 q 298 933 298 987 l 298 868 l 429 868 l 429 738 l 298 738 l 298 0 l 125 0 z "},"g":{"ha":627,"x_min":7,"x_max":658,"o":"m 202 564 q 311 380 202 380 q 419 564 419 380 q 414 633 419 602 q 398 695 410 665 q 364 742 387 725 q 311 760 342 760 q 256 742 279 760 q 223 695 234 725 q 207 633 212 665 q 202 564 202 602 m 354 -132 q 387 -131 372 -132 q 420 -128 401 -130 q 453 -122 439 -126 q 480 -111 467 -117 q 499 -93 492 -104 q 506 -67 506 -81 q 367 22 506 5 l 224 39 q 179 -16 197 20 q 160 -92 160 -52 q 168 -110 160 -102 q 190 -122 175 -118 q 219 -129 204 -126 q 256 -132 235 -132 q 292 -133 277 -133 q 327 -132 307 -133 q 354 -132 347 -132 m 354 -260 q 301 -259 321 -260 q 245 -258 281 -259 q 186 -253 210 -256 q 132 -243 163 -249 q 82 -228 102 -237 q 43 -205 62 -218 q 16 -174 25 -193 q 7 -132 7 -155 q 43 -16 7 -64 q 137 60 79 32 q 76 89 102 70 q 50 136 50 109 q 53 161 50 148 q 59 184 56 174 q 70 208 62 195 q 82 230 77 222 q 96 251 86 237 q 110 270 106 265 q 125 289 114 275 q 137 304 136 302 q 50 564 50 407 q 79 725 50 654 q 167 838 107 795 q 311 880 227 880 q 395 867 359 880 q 453 832 431 853 q 498 778 476 812 q 644 880 549 873 q 648 880 646 880 q 653 880 650 880 q 658 880 656 880 l 658 738 q 647 738 654 738 q 603 737 618 738 q 570 731 588 736 q 541 715 551 726 q 562 645 553 689 q 571 564 571 602 q 544 404 571 473 q 456 292 516 334 q 311 250 396 250 l 223 260 q 216 248 222 256 q 208 234 211 239 q 202 220 205 229 q 199 204 199 212 q 216 174 199 186 q 263 156 233 162 q 320 148 293 151 q 382 143 348 145 q 429 140 416 142 q 497 127 467 134 q 559 106 528 120 q 611 74 591 93 q 645 25 631 55 q 658 -43 658 -5 q 641 -128 658 -91 q 597 -190 625 -165 q 530 -230 569 -214 q 447 -253 490 -246 q 354 -260 404 -260 z "},"h":{"ha":673,"x_min":79,"x_max":600,"o":"m 79 0 l 79 1215 l 253 1215 l 253 774 q 316 828 292 810 q 384 864 340 847 q 475 880 427 880 q 566 840 531 880 q 600 740 600 799 l 600 0 l 427 0 l 427 651 q 415 717 427 696 q 367 738 404 738 q 253 687 314 738 l 253 0 l 79 0 z "},"i":{"ha":347,"x_min":87,"x_max":260,"o":"m 87 998 l 87 1172 l 260 1172 l 260 998 l 87 998 m 87 0 l 87 868 l 260 868 l 260 0 l 87 0 z "},"j":{"ha":344,"x_min":-28,"x_max":275,"o":"m 102 998 l 102 1172 l 275 1172 l 275 998 l 102 998 m 58 -217 q -28 -205 1 -217 l -28 -82 q 15 -87 -5 -87 q 102 14 102 -87 l 102 868 l 275 868 l 275 -5 q 217 -161 275 -105 q 58 -217 159 -217 z "},"k":{"ha":652,"x_min":79,"x_max":644,"o":"m 79 0 l 79 1215 l 253 1215 l 253 547 l 470 868 l 644 868 l 449 565 l 644 0 l 470 0 l 340 420 l 253 304 l 253 0 l 79 0 z "},"l":{"ha":329,"x_min":80,"x_max":254,"o":"m 80 0 l 80 1215 l 254 1215 l 254 0 l 80 0 z "},"m":{"ha":1020,"x_min":79,"x_max":947,"o":"m 79 0 l 79 868 l 253 868 l 253 770 q 469 880 346 880 q 561 853 532 880 q 600 766 590 825 q 692 851 643 822 q 817 880 742 880 q 856 876 839 880 q 886 865 873 871 q 909 847 899 859 q 925 824 919 834 q 936 793 932 813 q 943 761 941 774 q 946 723 945 748 q 947 684 947 698 q 947 641 947 669 q 947 631 947 635 l 947 0 l 774 0 l 774 633 q 774 644 774 637 q 773 679 774 667 q 769 707 772 691 q 755 730 765 723 q 730 738 746 738 q 677 727 704 738 q 636 707 651 717 q 600 680 622 697 l 600 0 l 427 0 l 427 630 q 427 642 427 634 q 427 671 427 661 q 424 695 427 680 q 418 718 422 711 q 405 732 414 726 q 383 738 396 738 q 253 683 319 738 l 253 0 l 79 0 z "},"n":{"ha":673,"x_min":79,"x_max":600,"o":"m 79 0 l 79 868 l 253 868 l 253 774 q 316 828 292 810 q 384 864 340 847 q 475 880 427 880 q 566 840 531 880 q 600 740 600 799 l 600 0 l 427 0 l 427 651 q 414 717 427 696 q 361 738 401 738 q 317 729 339 738 q 284 712 295 720 q 253 687 273 704 l 253 0 l 79 0 z "},"o":{"ha":647,"x_min":63,"x_max":584,"o":"m 524 69 q 493 28 524 69 q 323 -12 463 -12 q 123 69 184 -12 q 63 304 63 151 l 63 564 q 123 799 63 718 q 323 880 184 880 q 524 799 463 880 q 584 564 584 718 l 584 304 q 524 69 584 151 m 291 136 q 298 133 291 136 q 323 130 305 130 q 356 136 342 130 q 379 149 370 141 q 394 172 388 157 q 404 199 400 187 q 408 232 407 210 q 410 266 410 254 q 410 304 410 279 l 410 564 q 410 602 410 589 q 408 636 410 614 q 404 669 407 658 q 394 696 400 681 q 379 719 388 711 q 356 732 370 727 q 323 738 342 738 q 291 732 305 738 q 268 719 277 727 q 253 696 259 711 q 243 669 247 681 q 239 636 240 658 q 237 602 237 614 q 237 564 237 589 l 237 304 q 237 266 237 279 q 239 232 237 254 q 243 199 240 210 q 253 172 247 187 q 268 149 259 157 q 291 136 277 141 z "},"p":{"ha":707,"x_min":79,"x_max":644,"o":"m 383 130 q 430 151 411 130 q 457 209 448 171 q 468 283 465 246 q 471 370 471 320 l 470 484 q 470 533 470 515 q 467 583 469 552 q 461 633 465 614 q 450 677 458 653 q 432 714 443 701 q 405 737 422 728 q 368 747 389 747 q 348 745 357 747 q 329 741 339 744 q 313 735 319 738 q 296 728 307 733 q 282 720 286 722 q 267 711 277 718 q 253 703 256 704 l 253 165 q 383 130 313 130 m 79 -260 l 79 868 l 253 868 l 253 781 q 282 812 274 804 q 310 837 290 820 q 345 861 330 854 q 382 874 359 867 q 429 880 405 880 q 508 864 473 880 q 565 826 543 848 q 603 762 587 804 q 626 686 618 720 q 638 595 634 652 q 643 502 642 537 q 644 404 644 466 l 644 391 q 638 281 644 334 q 617 173 632 228 q 578 79 602 119 q 516 13 555 39 q 427 -12 477 -12 q 253 78 338 -12 l 253 -260 l 79 -260 z "},"q":{"ha":686,"x_min":62,"x_max":627,"o":"m 323 130 q 453 165 391 130 l 453 703 q 439 711 450 704 q 424 720 429 718 q 410 728 420 722 q 393 735 399 733 q 377 741 387 738 q 358 745 367 744 q 338 747 349 747 q 300 737 317 747 q 273 713 283 727 q 254 675 262 700 q 243 630 246 650 q 237 579 239 611 q 235 529 235 547 q 235 479 235 511 q 235 477 235 478 q 235 440 235 466 q 235 391 235 414 q 235 346 235 367 q 239 266 235 300 q 252 199 243 232 q 279 148 261 166 q 323 130 297 130 m 453 -260 l 453 78 q 373 13 414 38 q 279 -12 332 -12 q 190 13 229 -12 q 128 79 151 39 q 89 173 104 119 q 68 281 74 228 q 62 391 62 334 l 62 523 q 68 631 62 582 q 87 727 73 680 q 125 807 102 774 q 187 860 149 840 q 277 880 226 880 q 331 872 306 880 q 380 848 357 865 q 417 818 404 831 q 453 781 430 806 l 453 868 l 627 868 l 627 -260 l 453 -260 z "},"r":{"ha":470,"x_min":79,"x_max":470,"o":"m 79 0 l 79 868 l 253 868 l 253 752 q 330 842 279 804 q 442 880 380 880 q 470 878 444 880 l 470 686 q 374 705 422 705 q 286 672 319 705 q 253 586 253 640 l 253 0 l 79 0 z "},"s":{"ha":594,"x_min":47,"x_max":568,"o":"m 307 -12 q 135 52 200 -12 q 47 217 71 115 l 177 260 q 307 130 224 130 q 371 153 349 130 q 394 217 394 176 q 351 317 394 277 l 177 448 q 128 485 148 467 q 88 527 109 502 q 57 583 68 552 q 47 651 47 614 q 118 821 47 762 q 307 880 189 880 q 409 862 363 880 q 485 812 454 844 q 536 740 516 779 q 568 651 556 700 l 437 608 q 418 652 428 633 q 393 692 409 671 q 355 726 377 714 q 307 738 334 738 q 243 715 266 738 q 220 651 220 692 q 264 578 220 610 l 437 448 q 487 403 467 425 q 528 354 508 382 q 557 291 547 326 q 568 217 568 256 q 497 47 568 106 q 307 -12 426 -12 z "},"t":{"ha":475,"x_min":37,"x_max":427,"o":"m 320 -12 q 171 40 218 -12 q 123 198 125 92 l 123 738 l 37 738 l 37 868 l 123 868 l 123 1172 l 297 1172 l 297 868 l 427 868 l 427 738 l 297 738 l 297 231 q 311 155 297 179 q 369 130 326 130 q 427 137 388 130 l 427 -4 q 320 -12 362 -12 z "},"u":{"ha":669,"x_min":77,"x_max":598,"o":"m 203 -12 q 112 28 146 -12 q 77 128 77 68 l 77 868 l 251 868 l 251 181 q 268 137 251 154 q 311 120 284 120 q 338 123 325 120 q 365 135 352 127 q 386 149 378 144 q 407 166 393 154 q 425 181 421 178 l 425 868 l 598 868 l 598 0 l 425 0 l 425 94 q 387 61 399 71 q 351 34 375 51 q 308 8 326 16 q 261 -6 289 1 q 203 -12 233 -12 z "},"v":{"ha":591,"x_min":14,"x_max":578,"o":"m 209 0 l 14 868 l 180 868 l 301 216 l 411 868 l 578 868 l 384 0 l 209 0 z "},"w":{"ha":869,"x_min":14,"x_max":855,"o":"m 174 0 l 14 868 l 168 868 l 264 209 l 355 868 l 513 868 l 606 216 l 701 868 l 855 868 l 687 0 l 527 0 l 435 598 l 341 0 l 174 0 z "},"x":{"ha":587,"x_min":12,"x_max":576,"o":"m 12 0 l 185 434 l 185 452 l 12 868 l 179 868 l 295 536 l 411 868 l 576 868 l 402 452 l 402 434 l 576 0 l 402 0 l 299 334 l 185 0 l 12 0 z "},"y":{"ha":591,"x_min":14,"x_max":578,"o":"m 57 -217 l 57 -87 q 139 -80 109 -87 q 186 -56 170 -73 q 206 -18 201 -39 q 210 39 210 3 l 14 868 l 187 868 q 296 260 288 310 q 329 453 311 352 q 369 677 347 555 q 404 868 392 800 l 578 868 l 361 -43 q 269 -177 339 -138 q 75 -217 199 -217 l 57 -217 z "},"z":{"ha":555,"x_min":48,"x_max":526,"o":"m 48 0 l 48 130 l 352 738 l 92 738 l 92 868 l 526 868 l 526 738 l 222 130 l 526 130 l 526 0 l 48 0 z "},"{":{"ha":477,"x_min":43,"x_max":434,"o":"m 434 -43 q 284 -18 345 -43 q 191 59 224 7 q 144 180 157 111 q 130 347 130 248 q 131 376 130 356 q 131 404 131 396 q 130 429 130 412 q 127 452 129 446 q 123 471 126 459 q 116 489 120 484 q 105 502 111 494 q 90 513 98 510 q 69 518 81 516 q 43 521 58 521 l 43 694 q 73 699 60 694 q 94 715 85 704 q 110 737 103 726 q 120 768 117 748 q 126 802 124 788 q 130 840 129 815 q 131 878 130 865 q 131 918 131 891 q 130 955 130 945 q 145 1100 130 1044 q 196 1193 159 1157 q 289 1244 232 1230 q 434 1259 345 1259 l 434 1128 q 388 1125 408 1128 q 354 1116 368 1122 q 331 1099 340 1111 q 316 1076 321 1088 q 308 1044 311 1065 q 304 1005 305 1023 q 304 955 304 986 q 174 608 304 669 q 271 513 238 580 q 304 347 304 446 q 304 341 304 345 q 304 284 304 303 q 307 233 304 265 q 314 184 309 201 q 328 146 319 168 q 351 113 338 124 q 386 95 365 102 q 434 87 407 87 l 434 -43 z "},"|":{"ha":260,"x_min":87,"x_max":217,"o":"m 87 -87 l 87 1302 l 217 1302 l 217 -87 l 87 -87 z "},"}":{"ha":477,"x_min":43,"x_max":434,"o":"m 43 -43 l 43 87 q 79 90 62 87 q 107 101 95 93 q 129 116 119 109 q 145 139 138 124 q 157 164 153 153 q 165 195 162 175 q 170 228 168 215 q 173 265 172 241 q 174 303 174 290 q 174 343 174 316 q 174 347 174 346 q 207 513 174 446 q 304 608 239 581 q 174 955 174 666 q 173 995 174 979 q 172 1028 173 1010 q 168 1056 170 1046 q 160 1079 165 1067 q 149 1098 156 1091 q 133 1112 142 1105 q 110 1121 123 1118 q 81 1126 97 1124 q 43 1128 64 1128 l 43 1259 q 225 1230 161 1259 q 319 1137 290 1202 q 347 955 347 1072 q 347 918 347 944 q 347 878 347 892 q 348 840 347 865 q 351 801 349 815 q 357 768 353 787 q 367 738 361 749 q 383 715 374 726 q 405 699 392 704 q 434 694 418 694 l 434 521 q 401 517 416 521 q 378 507 387 513 q 362 490 369 500 q 353 468 356 480 q 349 440 350 455 q 347 408 347 425 q 347 372 347 391 q 347 347 347 356 q 339 210 347 268 q 311 102 331 151 q 256 21 290 52 q 169 -26 222 -9 q 43 -43 116 -43 z "},"~":{"ha":651,"x_min":86,"x_max":565,"o":"m 416 551 q 349 566 383 551 q 283 595 315 581 q 223 610 251 610 q 191 564 191 610 l 86 564 q 125 696 86 643 q 235 749 164 749 q 334 720 275 749 q 426 691 393 691 q 460 738 460 691 l 565 738 q 527 604 565 657 q 416 551 488 551 z "}," ":{"ha":282,"x_min":0,"x_max":0,"o":""},"¡":{"ha":260,"x_min":43,"x_max":217,"o":"m 43 868 l 43 1042 l 217 1042 l 217 868 l 43 868 m 43 0 l 87 781 l 174 781 l 174 0 l 43 0 z "},"¢":{"ha":696,"x_min":87,"x_max":609,"o":"m 325 140 l 325 726 q 297 706 309 719 q 279 672 286 692 q 268 633 272 651 q 262 585 263 616 q 260 537 260 555 q 260 484 260 520 q 261 434 261 448 q 260 385 261 418 q 260 331 260 351 q 261 281 260 311 q 266 232 262 252 q 277 193 270 213 q 296 159 283 172 q 325 140 308 146 m 325 -87 l 325 -10 q 222 14 265 -5 q 154 64 180 34 q 113 141 128 94 q 93 239 98 189 q 87 361 87 290 l 87 497 q 93 617 87 565 q 115 717 99 669 q 157 797 131 765 q 225 851 183 829 q 325 878 267 872 l 325 955 l 378 955 l 378 878 q 553 785 498 864 q 608 564 608 705 l 435 564 q 424 672 435 633 q 378 728 413 711 l 378 140 q 405 162 394 149 q 422 191 416 176 q 431 231 428 206 q 434 273 433 255 q 435 321 435 290 l 608 321 q 609 307 608 317 q 609 292 609 297 q 550 83 609 162 q 378 -9 492 3 l 378 -87 l 325 -87 z "},"£":{"ha":608,"x_min":0,"x_max":564,"o":"m 0 0 l 0 87 l 87 130 l 87 521 l 0 521 l 0 651 l 87 651 l 87 781 q 89 880 87 838 q 97 972 91 923 q 115 1056 104 1021 q 146 1125 126 1091 q 193 1180 165 1159 q 259 1215 220 1202 q 347 1227 298 1227 q 511 1157 459 1227 q 564 964 563 1086 l 564 911 l 434 911 q 431 973 434 947 q 420 1027 429 999 q 394 1070 412 1055 q 347 1085 376 1085 q 309 1073 325 1085 q 284 1044 292 1061 q 270 1000 275 1027 q 263 952 264 973 q 260 902 261 931 l 260 651 l 434 651 l 434 521 l 260 521 l 260 130 l 564 130 l 564 0 l 0 0 z "},"¤":{"ha":694,"x_min":71,"x_max":623,"o":"m 251 503 q 268 483 251 503 q 347 463 286 463 q 443 503 409 463 q 477 608 477 543 q 443 713 477 673 q 347 753 409 753 q 251 713 285 753 q 217 608 217 673 q 251 503 217 543 m 132 332 l 71 393 l 130 451 q 87 608 87 516 q 130 764 87 699 l 71 823 l 132 884 l 191 825 q 347 868 256 868 q 504 825 438 868 l 562 884 l 623 823 l 564 764 q 608 608 608 697 q 564 451 608 519 l 623 393 l 562 332 l 504 390 q 347 347 438 347 q 191 390 256 347 l 132 332 z "},"¥":{"ha":694,"x_min":33,"x_max":661,"o":"m 260 0 l 260 174 l 130 174 l 130 288 l 260 288 l 260 375 l 130 375 l 130 488 l 231 488 l 33 1215 l 209 1215 l 347 575 l 484 1215 l 661 1215 l 460 488 l 564 488 l 564 375 l 434 375 l 434 288 l 564 288 l 564 174 l 434 174 l 434 0 l 260 0 z "},"¦":{"ha":268,"x_min":64,"x_max":201,"o":"m 64 603 l 64 1029 l 201 1029 l 201 603 l 64 603 m 64 -9 l 64 416 l 201 416 l 201 -9 l 64 -9 z "},"§":{"ha":651,"x_min":65,"x_max":586,"o":"m 347 511 q 412 598 412 542 q 406 630 412 614 q 383 662 399 646 q 358 686 367 678 q 327 711 349 694 q 304 728 305 728 q 239 627 239 690 q 252 585 239 604 q 282 554 264 565 l 347 511 m 326 -12 q 224 7 270 -12 q 148 58 179 25 q 97 130 117 90 q 65 218 77 170 l 195 261 q 326 131 242 131 q 390 154 367 131 q 412 218 412 176 q 400 279 412 251 q 369 318 389 307 l 195 424 q 129 472 155 448 q 84 536 102 496 q 65 627 65 576 q 99 753 65 702 q 191 831 132 805 q 144 861 162 848 q 106 894 127 873 q 75 940 85 914 q 65 998 65 966 q 136 1168 65 1109 q 326 1227 207 1227 q 427 1210 382 1227 q 503 1159 472 1192 q 554 1086 534 1126 q 586 998 574 1046 l 456 955 q 437 999 446 981 q 411 1040 427 1018 q 374 1073 395 1061 q 326 1085 352 1085 q 261 1062 284 1085 q 239 998 239 1040 q 282 925 239 958 q 407 855 391 865 q 564 700 526 782 q 586 598 586 653 q 479 404 586 466 q 557 321 528 364 q 586 218 586 277 q 515 47 586 106 q 326 -12 444 -12 z "},"¨":{"ha":608,"x_min":87,"x_max":521,"o":"m 347 1042 l 347 1215 l 521 1215 l 521 1042 l 347 1042 m 87 1042 l 87 1215 l 260 1215 l 260 1042 l 87 1042 z "},"©":{"ha":1036,"x_min":47,"x_max":989,"o":"m 518 -9 q 329 28 416 -9 q 179 130 241 65 q 83 283 118 194 q 47 475 47 373 q 107 722 47 612 q 275 896 167 833 q 518 960 382 960 q 708 922 620 960 q 857 821 795 885 q 954 666 918 756 q 989 475 989 576 q 929 228 989 338 q 761 54 869 117 q 518 -9 653 -9 m 334 141 q 374 116 334 141 q 518 90 415 90 q 703 141 621 90 q 828 279 784 193 q 872 472 872 366 q 846 622 872 551 q 775 744 821 692 q 663 825 729 795 q 518 854 596 854 q 333 803 414 854 q 208 665 251 752 q 164 472 164 578 q 208 280 164 367 q 334 141 252 193 m 521 147 q 451 157 481 147 q 399 182 420 167 q 364 224 378 197 q 341 276 349 250 q 329 341 333 302 q 323 412 324 380 q 322 490 322 444 q 326 591 322 549 q 342 675 330 633 q 376 743 355 717 q 435 784 398 768 q 525 800 473 800 q 715 570 715 800 l 591 570 q 589 617 591 597 q 581 659 587 637 q 561 691 575 680 q 526 703 547 703 q 498 699 511 703 q 477 688 486 696 q 462 671 468 680 q 452 648 456 663 q 446 622 448 633 q 444 591 444 610 q 444 558 444 571 q 444 524 444 546 q 444 489 444 501 q 444 455 444 477 q 443 418 444 433 q 443 383 443 404 q 445 348 444 362 q 450 316 447 333 q 459 288 454 299 q 473 267 465 277 q 494 252 481 257 q 521 248 506 248 q 560 260 545 248 q 582 295 576 272 q 591 340 589 319 q 593 392 593 361 l 714 392 l 714 381 q 666 211 714 275 q 521 147 618 147 z "},"ª":{"ha":571,"x_min":73,"x_max":460,"o":"m 254 98 q 298 113 278 98 q 329 149 319 127 l 329 277 q 245 225 264 242 q 205 155 205 193 q 218 113 205 128 q 254 98 231 98 m 204 -7 q 111 31 148 -7 q 73 124 73 68 q 91 204 73 170 q 152 261 109 237 q 221 295 195 285 q 305 322 246 304 q 329 330 321 327 l 329 393 q 277 488 329 488 q 216 385 216 488 l 96 385 q 145 531 97 476 q 280 585 193 585 q 370 570 334 585 q 425 523 406 555 q 452 452 444 492 q 460 353 460 412 l 460 0 l 340 0 l 340 75 q 284 16 320 39 q 204 -7 248 -7 z "},"«":{"ha":694,"x_min":43,"x_max":651,"o":"m 651 43 l 347 391 l 347 477 l 651 825 l 651 608 l 477 435 l 651 260 l 651 43 m 347 43 l 43 391 l 43 477 l 347 825 l 347 608 l 174 435 l 347 260 l 347 43 z "},"¬":{"ha":521,"x_min":87,"x_max":434,"o":"m 347 174 l 347 304 l 87 304 l 87 434 l 434 434 l 434 174 l 347 174 z "},"­":{"ha":521,"x_min":87,"x_max":434,"o":"m 87 304 l 87 434 l 434 434 l 434 304 l 87 304 z "},"®":{"ha":1036,"x_min":47,"x_max":989,"o":"m 518 -9 q 329 28 416 -9 q 179 130 241 65 q 83 283 118 194 q 47 475 47 373 q 107 722 47 612 q 275 896 167 833 q 518 960 382 960 q 708 922 620 960 q 857 821 795 885 q 954 666 918 756 q 989 475 989 576 q 929 228 989 338 q 761 54 869 117 q 518 -9 653 -9 m 334 141 q 374 116 334 141 q 518 90 415 90 q 703 141 621 90 q 828 279 784 193 q 872 472 872 366 q 846 622 872 551 q 775 744 821 692 q 663 825 729 795 q 518 854 596 854 q 333 803 414 854 q 208 665 251 752 q 164 472 164 578 q 208 280 164 367 q 334 141 252 193 m 456 494 l 478 494 q 564 518 541 494 q 587 608 587 543 q 568 685 587 659 q 504 711 549 711 l 456 711 l 456 494 m 350 168 l 350 791 l 513 791 q 696 606 696 791 q 611 454 696 500 l 711 168 l 597 168 l 511 429 l 456 429 l 456 168 l 350 168 z "},"¯":{"ha":434,"x_min":83,"x_max":378,"o":"m 83 954 l 83 1057 l 378 1057 l 378 954 l 83 954 z "},"°":{"ha":694,"x_min":87,"x_max":608,"o":"m 538 777 q 504 742 538 777 q 347 707 469 707 q 156 777 225 707 q 87 968 87 846 q 156 1158 87 1088 q 347 1227 225 1227 q 538 1158 469 1227 q 608 968 608 1088 q 538 777 608 846 m 251 862 q 268 842 251 862 q 347 822 286 822 q 443 862 409 822 q 477 967 477 902 q 443 1072 477 1032 q 347 1112 409 1112 q 251 1073 285 1112 q 217 968 217 1033 q 251 862 217 903 z "},"±":{"ha":564,"x_min":87,"x_max":477,"o":"m 87 0 l 87 130 l 477 130 l 477 0 l 87 0 m 217 260 l 217 391 l 87 391 l 87 521 l 217 521 l 217 651 l 347 651 l 347 521 l 477 521 l 477 391 l 347 391 l 347 260 l 217 260 z "},"²":{"ha":434,"x_min":43,"x_max":391,"o":"m 43 391 l 43 477 l 174 651 q 192 675 178 657 q 213 702 206 693 q 230 728 219 710 q 247 758 241 745 q 256 789 252 771 q 260 825 260 807 q 260 846 260 839 q 259 866 260 854 q 255 885 258 878 q 248 898 252 891 q 235 908 243 905 q 217 911 228 911 q 199 908 206 911 q 186 898 191 905 q 179 885 182 891 q 175 866 176 878 q 174 846 174 854 q 174 825 174 839 l 43 825 q 89 952 43 907 q 217 998 134 998 q 346 952 300 998 q 391 825 391 907 q 365 724 391 777 q 310 635 340 671 q 236 550 280 600 q 174 477 191 501 l 391 477 l 391 391 l 43 391 z "},"³":{"ha":521,"x_min":87,"x_max":434,"o":"m 389 480 q 366 457 389 480 q 260 434 344 434 q 132 479 177 434 q 87 608 87 525 l 217 608 q 217 586 217 593 q 219 566 218 578 q 222 548 220 554 q 230 534 225 541 q 242 524 235 527 q 260 521 250 521 q 279 524 271 521 q 291 534 286 527 q 298 548 296 541 q 302 566 301 554 q 303 586 303 578 q 304 608 304 593 q 285 675 304 656 q 217 694 266 694 l 217 781 q 285 800 267 781 q 304 868 304 819 q 303 890 304 882 q 302 909 303 897 q 298 928 301 922 q 291 942 296 935 q 279 952 286 949 q 260 955 271 955 q 242 952 250 955 q 230 942 235 949 q 222 928 225 935 q 219 909 220 922 q 217 890 218 897 q 217 868 217 882 l 87 868 q 132 996 87 950 q 260 1042 177 1042 q 389 996 344 1042 q 434 868 434 950 q 399 773 434 806 q 304 738 364 740 q 399 702 365 734 q 434 608 434 670 q 389 480 434 526 z "},"´":{"ha":434,"x_min":87,"x_max":347,"o":"m 87 955 l 174 1215 l 347 1215 l 174 955 l 87 955 z "},"µ":{"ha":669,"x_min":77,"x_max":598,"o":"m 251 181 q 268 137 251 154 q 311 120 284 120 q 338 123 325 120 q 365 135 352 127 q 386 149 378 144 q 407 166 393 154 q 425 181 421 178 l 425 868 l 598 868 l 598 0 l 425 0 l 425 94 q 359 26 400 51 q 251 0 318 1 l 251 -171 l 77 -172 l 77 868 l 251 868 l 251 181 z "},"¶":{"ha":646,"x_min":11,"x_max":608,"o":"m 259 0 l 259 594 q 79 652 148 594 q 11 817 11 711 q 83 986 11 931 q 287 1042 156 1042 l 608 1042 l 608 0 l 487 0 l 487 594 l 393 594 l 393 0 l 259 0 z "},"·":{"ha":260,"x_min":43,"x_max":217,"o":"m 43 479 l 43 652 l 217 652 l 217 479 l 43 479 z "},"¸":{"ha":391,"x_min":43,"x_max":347,"o":"m 43 -347 l 43 -260 q 78 -261 54 -260 q 117 -262 103 -262 q 190 -253 163 -262 q 217 -217 217 -243 q 212 -199 217 -208 q 197 -182 207 -190 q 177 -168 187 -174 q 153 -156 168 -162 q 129 -145 138 -149 q 105 -137 120 -142 q 87 -130 90 -132 l 87 0 l 174 0 l 174 -87 q 229 -104 205 -96 q 283 -129 252 -113 q 330 -167 313 -144 q 347 -217 347 -189 q 340 -263 347 -243 q 320 -296 332 -283 q 289 -319 309 -310 q 251 -334 270 -329 q 204 -343 232 -340 q 154 -347 176 -346 q 101 -347 132 -347 l 43 -347 z "},"¹":{"ha":347,"x_min":43,"x_max":260,"o":"m 130 434 l 130 825 l 43 825 l 43 911 q 217 1042 157 968 l 260 1042 l 260 434 l 130 434 z "},"º":{"ha":610,"x_min":67,"x_max":543,"o":"m 305 -9 q 122 64 177 -9 q 67 278 67 137 l 67 494 q 122 709 67 635 q 305 782 177 782 q 485 705 427 782 q 543 494 543 629 l 543 278 q 485 67 543 144 q 305 -9 427 -9 m 302 126 q 326 128 315 126 q 345 136 337 130 q 360 147 353 142 q 371 163 366 152 q 379 180 376 174 q 384 202 382 187 q 387 225 386 218 q 389 251 389 233 q 389 277 389 270 q 389 306 389 285 l 389 467 q 389 475 389 469 q 389 505 389 495 q 389 533 389 515 q 386 560 388 551 q 381 583 385 569 q 374 605 378 597 q 363 622 370 612 q 348 635 357 631 q 328 643 340 640 q 302 646 316 646 q 269 640 283 646 q 245 627 255 635 q 229 604 236 619 q 219 577 222 589 q 214 543 216 564 q 212 507 212 522 q 212 467 212 492 l 212 306 q 212 259 212 277 q 215 218 213 242 q 224 180 218 194 q 239 152 230 166 q 264 132 249 138 q 302 126 280 126 z "},"»":{"ha":694,"x_min":43,"x_max":651,"o":"m 347 43 l 347 260 l 521 435 l 347 608 l 347 825 l 651 477 l 651 391 l 347 43 m 43 43 l 43 260 l 217 435 l 43 608 l 43 825 l 347 477 l 347 391 l 43 43 z "},"¼":{"ha":1144,"x_min":47,"x_max":1099,"o":"m 795 260 l 882 260 l 882 433 l 795 260 m 882 -1 l 882 173 l 665 173 l 665 260 l 896 650 l 1013 650 l 1013 260 l 1099 260 l 1099 173 l 1013 173 l 1013 -1 l 882 -1 m 277 0 l 667 1215 l 842 1215 l 451 0 l 277 0 m 134 505 l 134 895 l 47 895 l 47 982 q 220 1112 161 1038 l 264 1112 l 264 505 l 134 505 z "},"½":{"ha":1162,"x_min":45,"x_max":1114,"o":"m 766 2 l 766 89 l 897 262 q 915 287 901 269 q 936 313 929 304 q 953 339 942 321 q 969 370 964 357 q 979 400 975 382 q 983 436 983 418 q 983 458 983 450 q 982 477 983 465 q 978 496 981 490 q 970 510 975 503 q 958 520 966 517 q 940 523 951 523 q 922 520 929 523 q 909 510 914 517 q 902 496 905 503 q 898 477 899 490 q 897 458 897 465 q 897 436 897 450 l 766 436 q 811 564 766 518 q 940 610 857 610 q 1068 564 1023 610 q 1114 436 1114 518 q 1088 335 1114 388 q 1033 247 1063 283 q 959 162 1003 211 q 897 89 914 113 l 1114 89 l 1114 2 l 766 2 m 294 0 l 684 1215 l 859 1215 l 468 0 l 294 0 m 132 505 l 132 895 l 45 895 l 45 982 q 218 1112 159 1038 l 262 1112 l 262 505 l 132 505 z "},"¾":{"ha":1223,"x_min":48,"x_max":1179,"o":"m 876 262 l 962 262 l 962 435 l 876 262 m 962 1 l 962 175 l 745 175 l 745 262 l 976 652 l 1093 652 l 1093 262 l 1179 262 l 1179 175 l 1093 175 l 1093 1 l 962 1 m 352 0 l 742 1215 l 916 1215 l 526 0 l 352 0 m 350 564 q 328 541 350 564 q 222 518 305 518 q 93 564 138 518 q 48 692 48 609 l 178 692 q 179 670 178 677 q 180 650 179 663 q 184 632 181 638 q 191 618 186 625 q 203 608 196 611 q 222 605 211 605 q 240 608 233 605 q 252 618 248 611 q 260 632 257 625 q 263 650 262 638 q 265 670 264 663 q 265 692 265 677 q 246 759 265 740 q 178 779 227 779 l 178 865 q 247 884 228 865 q 265 952 265 903 q 265 974 265 966 q 263 994 264 981 q 260 1012 262 1006 q 252 1026 257 1019 q 240 1036 248 1033 q 222 1039 233 1039 q 203 1036 211 1039 q 191 1026 196 1033 q 184 1012 186 1019 q 180 994 181 1006 q 179 974 179 981 q 178 952 178 966 l 48 952 q 93 1080 48 1034 q 222 1126 138 1126 q 350 1080 305 1126 q 395 952 395 1034 q 360 857 395 890 q 265 822 326 824 q 361 786 326 818 q 395 692 395 754 q 350 564 395 610 z "},"¿":{"ha":604,"x_min":54,"x_max":536,"o":"m 233 750 l 233 901 l 382 901 l 382 750 l 233 750 m 292 -3 q 54 235 54 -3 q 61 292 54 262 q 77 343 68 321 q 104 394 85 365 q 134 437 123 422 q 170 480 144 452 q 203 516 196 509 q 237 551 210 524 l 237 698 l 383 698 l 383 515 q 346 471 375 505 q 299 414 317 437 q 260 356 282 391 q 227 288 238 322 q 216 222 216 254 q 292 137 216 137 q 340 149 320 137 q 369 182 359 161 q 383 229 379 204 q 387 286 387 254 l 536 286 l 536 269 q 474 70 536 142 q 292 -3 412 -3 z "},"À":{"ha":716,"x_min":11,"x_max":705,"o":"m 271 434 l 445 434 l 358 955 l 271 434 m 11 0 l 271 1215 l 445 1215 l 705 0 l 532 0 l 467 304 l 250 304 l 184 0 l 11 0 m 315 1297 l 141 1557 l 315 1557 l 401 1297 l 315 1297 z "},"Á":{"ha":716,"x_min":11,"x_max":705,"o":"m 271 434 l 445 434 l 358 955 l 271 434 m 11 0 l 271 1215 l 445 1215 l 705 0 l 532 0 l 467 304 l 250 304 l 184 0 l 11 0 m 315 1297 l 401 1557 l 575 1557 l 401 1297 l 315 1297 z "},"Â":{"ha":716,"x_min":11,"x_max":705,"o":"m 271 434 l 445 434 l 358 955 l 271 434 m 11 0 l 271 1215 l 445 1215 l 705 0 l 532 0 l 467 304 l 250 304 l 184 0 l 11 0 m 141 1297 l 271 1557 l 445 1557 l 575 1297 l 445 1297 l 358 1470 l 271 1297 l 141 1297 z "},"Ã":{"ha":716,"x_min":11,"x_max":705,"o":"m 271 434 l 445 434 l 358 955 l 271 434 m 11 0 l 271 1215 l 445 1215 l 705 0 l 532 0 l 467 304 l 250 304 l 184 0 l 11 0 m 448 1297 q 381 1312 416 1297 q 315 1341 347 1326 q 256 1356 283 1356 q 223 1310 223 1356 l 119 1310 q 158 1442 119 1389 q 268 1495 197 1495 q 366 1466 307 1495 q 458 1437 425 1437 q 493 1484 493 1437 l 597 1484 q 558 1351 597 1404 q 448 1297 519 1297 z "},"Ä":{"ha":716,"x_min":11,"x_max":705,"o":"m 271 434 l 445 434 l 358 955 l 271 434 m 11 0 l 271 1215 l 445 1215 l 705 0 l 532 0 l 467 304 l 250 304 l 184 0 l 11 0 m 401 1297 l 401 1470 l 575 1470 l 575 1297 l 401 1297 m 141 1297 l 141 1470 l 315 1470 l 315 1297 l 141 1297 z "},"Å":{"ha":716,"x_min":11,"x_max":705,"o":"m 271 434 l 445 434 l 358 955 l 271 434 m 11 0 l 271 1215 l 445 1215 l 705 0 l 532 0 l 467 304 l 250 304 l 184 0 l 11 0 m 485 1307 q 461 1283 485 1307 q 358 1259 437 1259 q 232 1307 279 1259 q 184 1433 184 1354 q 232 1559 184 1512 q 358 1607 279 1607 q 485 1559 437 1607 q 532 1433 532 1512 q 485 1307 532 1354 m 294 1369 q 306 1358 294 1369 q 358 1346 317 1346 q 422 1370 399 1346 q 445 1433 445 1393 q 422 1496 445 1473 q 358 1520 399 1520 q 294 1497 317 1520 q 271 1433 271 1474 q 294 1369 271 1392 z "},"Æ":{"ha":955,"x_min":-85,"x_max":911,"o":"m 267 434 l 434 434 l 434 880 l 267 434 m -85 0 l 433 1215 l 911 1215 l 911 1085 l 608 1085 l 608 694 l 825 694 l 825 564 l 608 564 l 608 130 l 911 130 l 911 0 l 434 0 l 434 304 l 217 304 l 87 0 l -85 0 z "},"Ç":{"ha":751,"x_min":65,"x_max":722,"o":"m 399 -12 q 264 9 322 -12 q 168 70 205 31 q 107 165 131 108 q 75 288 84 222 q 65 435 65 353 l 65 781 q 75 928 65 863 q 107 1051 84 994 q 168 1146 131 1108 q 264 1206 205 1184 q 399 1227 322 1227 q 545 1202 484 1227 q 644 1128 607 1177 q 700 1015 681 1080 q 722 865 718 951 q 722 825 722 852 l 549 825 l 549 863 q 546 925 548 899 q 538 977 544 950 q 523 1022 533 1004 q 496 1056 512 1040 q 456 1078 480 1071 q 399 1085 431 1085 q 327 1072 357 1085 q 279 1037 296 1058 q 253 979 262 1015 q 241 909 244 943 q 239 825 239 875 l 239 391 q 242 312 239 347 q 257 242 246 277 q 285 183 268 207 q 331 145 302 159 q 399 130 360 130 q 465 145 437 130 q 509 183 493 160 q 534 242 525 206 q 546 312 543 278 q 549 391 549 346 l 549 434 l 722 434 l 722 391 q 706 225 722 296 q 652 99 689 154 q 552 16 615 45 q 399 -12 488 -12 m 307 -348 l 307 -261 q 341 -262 317 -261 q 380 -262 366 -262 q 453 -253 426 -262 q 480 -218 480 -244 q 475 -199 480 -208 q 460 -183 470 -191 q 440 -169 450 -175 q 416 -156 431 -163 q 392 -146 401 -150 q 368 -137 383 -142 q 350 -131 353 -132 l 350 -1 l 437 -1 l 437 -87 q 492 -105 469 -96 q 546 -130 515 -114 q 593 -168 576 -145 q 610 -218 610 -190 q 603 -263 610 -243 q 584 -297 595 -283 q 552 -320 572 -311 q 514 -335 533 -330 q 467 -343 495 -340 q 417 -347 439 -347 q 364 -348 395 -348 l 307 -348 z "},"È":{"ha":584,"x_min":87,"x_max":564,"o":"m 87 0 l 87 1215 l 564 1215 l 564 1085 l 260 1085 l 260 694 l 477 694 l 477 564 l 260 564 l 260 130 l 564 130 l 564 0 l 87 0 m 282 1297 l 109 1557 l 282 1557 l 369 1297 l 282 1297 z "},"É":{"ha":584,"x_min":87,"x_max":564,"o":"m 87 0 l 87 1215 l 564 1215 l 564 1085 l 260 1085 l 260 694 l 477 694 l 477 564 l 260 564 l 260 130 l 564 130 l 564 0 l 87 0 m 282 1297 l 369 1557 l 543 1557 l 369 1297 l 282 1297 z "},"Ê":{"ha":584,"x_min":87,"x_max":564,"o":"m 87 0 l 87 1215 l 564 1215 l 564 1085 l 260 1085 l 260 694 l 477 694 l 477 564 l 260 564 l 260 130 l 564 130 l 564 0 l 87 0 m 109 1297 l 239 1557 l 412 1557 l 543 1297 l 412 1297 l 326 1470 l 239 1297 l 109 1297 z "},"Ë":{"ha":584,"x_min":87,"x_max":564,"o":"m 87 0 l 87 1215 l 564 1215 l 564 1085 l 260 1085 l 260 694 l 477 694 l 477 564 l 260 564 l 260 130 l 564 130 l 564 0 l 87 0 m 369 1297 l 369 1470 l 543 1470 l 543 1297 l 369 1297 m 109 1297 l 109 1470 l 282 1470 l 282 1297 l 109 1297 z "},"Ì":{"ha":368,"x_min":-35,"x_max":269,"o":"m 95 0 l 95 1215 l 269 1215 l 269 0 l 95 0 m 138 1297 l -35 1557 l 138 1557 l 225 1297 l 138 1297 z "},"Í":{"ha":368,"x_min":95,"x_max":399,"o":"m 95 0 l 95 1215 l 269 1215 l 269 0 l 95 0 m 138 1297 l 225 1557 l 399 1557 l 225 1297 l 138 1297 z "},"Î":{"ha":368,"x_min":-35,"x_max":399,"o":"m 95 0 l 95 1215 l 269 1215 l 269 0 l 95 0 m -35 1297 l 95 1557 l 269 1557 l 399 1297 l 269 1297 l 182 1470 l 95 1297 l -35 1297 z "},"Ï":{"ha":368,"x_min":-35,"x_max":399,"o":"m 95 0 l 95 1215 l 269 1215 l 269 0 l 95 0 m 225 1297 l 225 1470 l 399 1470 l 399 1297 l 225 1297 m -35 1297 l -35 1470 l 138 1470 l 138 1297 l -35 1297 z "},"Ð":{"ha":781,"x_min":23,"x_max":694,"o":"m 87 0 l 87 578 l 23 578 l 23 681 l 87 681 l 87 1215 l 347 1215 q 616 1137 538 1215 q 694 868 694 1059 l 694 391 q 615 95 694 191 q 346 0 535 0 l 87 0 m 260 130 l 347 130 q 420 138 390 130 q 470 166 451 146 q 500 206 489 187 q 515 264 511 224 q 520 329 519 303 q 521 408 521 354 q 521 434 521 425 l 521 825 q 520 878 521 858 q 518 924 520 897 q 513 966 517 951 q 504 1001 510 982 q 489 1031 498 1021 q 466 1054 479 1042 q 436 1072 453 1066 q 395 1081 418 1078 q 344 1085 372 1085 l 260 1085 l 260 681 l 358 681 l 358 578 l 260 578 l 260 130 z "},"Ñ":{"ha":781,"x_min":87,"x_max":694,"o":"m 87 0 l 87 1215 l 217 1215 l 521 464 l 521 1215 l 694 1215 l 694 0 l 571 0 l 260 808 l 260 0 l 87 0 m 481 1297 q 414 1312 448 1297 q 348 1341 380 1326 q 288 1356 316 1356 q 256 1310 256 1356 l 151 1310 q 190 1442 151 1389 q 300 1495 229 1495 q 399 1466 340 1495 q 491 1437 458 1437 q 526 1484 526 1437 l 630 1484 q 591 1351 630 1404 q 481 1297 552 1297 z "},"Ò":{"ha":800,"x_min":65,"x_max":735,"o":"m 400 -12 q 243 16 309 -12 q 139 97 178 43 q 83 223 100 151 q 65 391 65 295 l 65 831 q 83 998 65 927 q 139 1122 100 1069 q 243 1201 178 1175 q 400 1227 309 1227 q 656 1126 578 1227 q 735 831 735 1024 l 735 391 q 717 224 735 296 q 661 98 699 152 q 556 16 622 44 q 400 -12 491 -12 m 274 185 q 291 158 274 185 q 400 130 309 130 q 527 185 492 130 q 562 347 562 240 l 562 875 q 527 1033 562 981 q 400 1085 492 1085 q 273 1033 308 1085 q 239 875 239 981 l 239 347 q 274 185 239 240 m 357 1297 l 183 1557 l 357 1557 l 444 1297 l 357 1297 z "},"Ó":{"ha":800,"x_min":65,"x_max":735,"o":"m 400 -12 q 243 16 309 -12 q 139 97 178 43 q 83 223 100 151 q 65 391 65 295 l 65 831 q 83 998 65 927 q 139 1122 100 1069 q 243 1201 178 1175 q 400 1227 309 1227 q 656 1126 578 1227 q 735 831 735 1024 l 735 391 q 717 224 735 296 q 661 98 699 152 q 556 16 622 44 q 400 -12 491 -12 m 274 185 q 291 158 274 185 q 400 130 309 130 q 527 185 492 130 q 562 347 562 240 l 562 875 q 527 1033 562 981 q 400 1085 492 1085 q 273 1033 308 1085 q 239 875 239 981 l 239 347 q 274 185 239 240 m 357 1297 l 444 1557 l 617 1557 l 444 1297 l 357 1297 z "},"Ô":{"ha":800,"x_min":65,"x_max":735,"o":"m 400 -12 q 243 16 309 -12 q 139 97 178 43 q 83 223 100 151 q 65 391 65 295 l 65 831 q 83 998 65 927 q 139 1122 100 1069 q 243 1201 178 1175 q 400 1227 309 1227 q 656 1126 578 1227 q 735 831 735 1024 l 735 391 q 717 224 735 296 q 661 98 699 152 q 556 16 622 44 q 400 -12 491 -12 m 274 185 q 291 158 274 185 q 400 130 309 130 q 527 185 492 130 q 562 347 562 240 l 562 875 q 527 1033 562 981 q 400 1085 492 1085 q 273 1033 308 1085 q 239 875 239 981 l 239 347 q 274 185 239 240 m 183 1297 l 313 1557 l 487 1557 l 617 1297 l 487 1297 l 400 1470 l 313 1297 l 183 1297 z "},"Õ":{"ha":800,"x_min":65,"x_max":735,"o":"m 400 -12 q 243 16 309 -12 q 139 97 178 43 q 83 223 100 151 q 65 391 65 295 l 65 831 q 83 998 65 927 q 139 1122 100 1069 q 243 1201 178 1175 q 400 1227 309 1227 q 656 1126 578 1227 q 735 831 735 1024 l 735 391 q 717 224 735 296 q 661 98 699 152 q 556 16 622 44 q 400 -12 491 -12 m 274 185 q 291 158 274 185 q 400 130 309 130 q 527 185 492 130 q 562 347 562 240 l 562 875 q 527 1033 562 981 q 400 1085 492 1085 q 273 1033 308 1085 q 239 875 239 981 l 239 347 q 274 185 239 240 m 490 1297 q 424 1312 458 1297 q 357 1341 389 1326 q 298 1356 326 1356 q 265 1310 265 1356 l 161 1310 q 200 1442 161 1389 q 310 1495 239 1495 q 408 1466 349 1495 q 500 1437 467 1437 q 535 1484 535 1437 l 640 1484 q 601 1351 640 1404 q 490 1297 562 1297 z "},"Ö":{"ha":800,"x_min":65,"x_max":735,"o":"m 400 -12 q 243 16 309 -12 q 139 97 178 43 q 83 223 100 151 q 65 391 65 295 l 65 831 q 83 998 65 927 q 139 1122 100 1069 q 243 1201 178 1175 q 400 1227 309 1227 q 656 1126 578 1227 q 735 831 735 1024 l 735 391 q 717 224 735 296 q 661 98 699 152 q 556 16 622 44 q 400 -12 491 -12 m 274 185 q 291 158 274 185 q 400 130 309 130 q 527 185 492 130 q 562 347 562 240 l 562 875 q 527 1033 562 981 q 400 1085 492 1085 q 273 1033 308 1085 q 239 875 239 981 l 239 347 q 274 185 239 240 m 444 1297 l 444 1470 l 617 1470 l 617 1297 l 444 1297 m 183 1297 l 183 1470 l 357 1470 l 357 1297 l 183 1297 z "},"×":{"ha":521,"x_min":43,"x_max":477,"o":"m 130 217 l 43 304 l 174 434 l 43 564 l 130 651 l 260 521 l 391 651 l 477 564 l 347 434 l 477 304 l 391 217 l 260 347 l 130 217 z "},"Ø":{"ha":800,"x_min":65,"x_max":735,"o":"m 400 130 q 527 185 492 130 q 562 347 562 240 l 562 875 q 542 1006 562 961 l 314 149 q 400 130 347 130 m 262 204 l 490 1065 q 400 1085 455 1085 q 273 1033 308 1085 q 239 875 239 981 l 239 347 q 262 204 239 254 m 247 -106 l 186 -87 l 216 29 q 65 391 65 115 l 65 831 q 83 998 65 927 q 139 1122 100 1069 q 243 1201 178 1175 q 400 1227 309 1227 q 528 1211 475 1227 l 557 1318 l 620 1302 l 589 1184 q 735 831 735 1098 l 735 391 q 717 224 735 296 q 661 98 699 152 q 556 16 622 44 q 400 -12 491 -12 q 276 4 330 -12 l 247 -106 z "},"Ù":{"ha":849,"x_min":77,"x_max":772,"o":"m 564 8 q 534 -2 564 8 q 425 -13 504 -13 q 285 8 345 -13 q 185 67 224 29 q 122 161 146 104 q 87 284 98 218 q 77 434 77 351 l 77 1215 l 251 1215 l 251 434 q 253 340 251 378 q 266 259 256 302 q 294 190 276 216 q 345 147 312 164 q 425 130 378 130 q 504 147 471 130 q 555 190 537 164 q 583 259 573 216 q 596 340 593 302 q 598 434 598 378 l 598 1215 l 772 1215 l 772 434 q 762 284 772 351 q 727 161 751 218 q 664 67 703 104 q 564 8 625 29 m 381 1297 l 208 1557 l 381 1557 l 468 1297 l 381 1297 z "},"Ú":{"ha":849,"x_min":77,"x_max":772,"o":"m 564 8 q 534 -2 564 8 q 425 -13 504 -13 q 285 8 345 -13 q 185 67 224 29 q 122 161 146 104 q 87 284 98 218 q 77 434 77 351 l 77 1215 l 251 1215 l 251 434 q 253 340 251 378 q 266 259 256 302 q 294 190 276 216 q 345 147 312 164 q 425 130 378 130 q 504 147 471 130 q 555 190 537 164 q 583 259 573 216 q 596 340 593 302 q 598 434 598 378 l 598 1215 l 772 1215 l 772 434 q 762 284 772 351 q 727 161 751 218 q 664 67 703 104 q 564 8 625 29 m 381 1297 l 468 1557 l 642 1557 l 468 1297 l 381 1297 z "},"Û":{"ha":849,"x_min":77,"x_max":772,"o":"m 564 8 q 534 -2 564 8 q 425 -13 504 -13 q 285 8 345 -13 q 185 67 224 29 q 122 161 146 104 q 87 284 98 218 q 77 434 77 351 l 77 1215 l 251 1215 l 251 434 q 253 340 251 378 q 266 259 256 302 q 294 190 276 216 q 345 147 312 164 q 425 130 378 130 q 504 147 471 130 q 555 190 537 164 q 583 259 573 216 q 596 340 593 302 q 598 434 598 378 l 598 1215 l 772 1215 l 772 434 q 762 284 772 351 q 727 161 751 218 q 664 67 703 104 q 564 8 625 29 m 208 1297 l 338 1557 l 511 1557 l 642 1297 l 511 1297 l 425 1470 l 338 1297 l 208 1297 z "},"Ü":{"ha":849,"x_min":77,"x_max":772,"o":"m 564 8 q 534 -2 564 8 q 425 -13 504 -13 q 285 8 345 -13 q 185 67 224 29 q 122 161 146 104 q 87 284 98 218 q 77 434 77 351 l 77 1215 l 251 1215 l 251 434 q 253 340 251 378 q 266 259 256 302 q 294 190 276 216 q 345 147 312 164 q 425 130 378 130 q 504 147 471 130 q 555 190 537 164 q 583 259 573 216 q 596 340 593 302 q 598 434 598 378 l 598 1215 l 772 1215 l 772 434 q 762 284 772 351 q 727 161 751 218 q 664 67 703 104 q 564 8 625 29 m 468 1297 l 468 1470 l 642 1470 l 642 1297 l 468 1297 m 208 1297 l 208 1470 l 381 1470 l 381 1297 l 208 1297 z "},"Ý":{"ha":690,"x_min":-2,"x_max":692,"o":"m 258 0 l 258 391 l -2 1215 l 172 1215 l 345 608 l 519 1215 l 692 1215 l 432 391 l 432 0 l 258 0 m 302 1297 l 389 1557 l 562 1557 l 389 1297 l 302 1297 z "},"Þ":{"ha":646,"x_min":49,"x_max":631,"o":"m 220 394 l 250 394 q 405 438 355 394 q 454 602 454 483 q 411 760 454 713 q 272 806 368 806 l 220 806 l 220 394 m 49 0 l 49 1215 l 220 1215 l 220 957 l 342 957 q 560 864 488 957 q 631 601 631 770 q 551 334 631 422 q 310 247 471 247 l 221 247 l 221 0 l 49 0 z "},"ß":{"ha":781,"x_min":87,"x_max":694,"o":"m 347 -12 l 347 130 q 435 143 401 130 q 488 184 469 155 q 514 251 507 213 q 521 347 521 289 q 477 497 521 443 q 347 551 433 551 l 347 694 q 412 713 385 694 q 454 763 439 731 q 476 832 469 795 q 482 911 482 868 q 478 981 482 952 q 462 1034 473 1009 q 427 1072 450 1059 q 369 1085 404 1085 q 314 1073 336 1085 q 280 1038 292 1061 q 265 987 269 1014 q 260 922 260 960 l 260 0 l 87 0 l 87 918 q 154 1143 87 1059 q 347 1227 220 1227 q 575 1146 498 1227 q 651 911 651 1065 q 614 743 651 808 q 503 637 578 678 q 643 536 592 612 q 694 347 694 460 q 610 78 694 168 q 347 -12 525 -12 z "},"à":{"ha":648,"x_min":57,"x_max":600,"o":"m 317 130 q 353 141 336 130 q 379 162 370 152 q 401 189 388 172 q 404 194 403 193 l 404 434 q 368 411 393 427 q 328 386 343 395 q 292 358 313 376 q 260 325 271 341 q 239 286 248 309 q 231 238 231 263 q 317 130 231 130 m 231 -12 q 107 51 158 -12 q 57 192 57 113 q 78 307 57 255 q 123 389 100 358 q 203 453 147 420 q 287 498 258 486 q 386 538 315 510 q 404 545 398 543 l 404 608 q 386 710 404 673 q 317 746 368 746 q 253 715 273 746 q 231 630 234 684 q 231 608 231 623 l 57 608 q 127 806 58 732 q 317 880 195 880 q 508 805 439 880 q 578 608 578 730 l 578 217 q 600 0 578 81 l 427 0 l 404 130 q 382 88 391 103 q 357 51 374 73 q 325 17 341 29 q 284 -3 309 5 q 231 -12 260 -12 m 266 949 l 92 1210 l 266 1210 l 353 949 l 266 949 z "},"á":{"ha":648,"x_min":57,"x_max":600,"o":"m 317 130 q 353 141 336 130 q 379 162 370 152 q 401 189 388 172 q 404 194 403 193 l 404 434 q 368 411 393 427 q 328 386 343 395 q 292 358 313 376 q 260 325 271 341 q 239 286 248 309 q 231 238 231 263 q 317 130 231 130 m 231 -12 q 107 51 158 -12 q 57 192 57 113 q 78 307 57 255 q 123 389 100 358 q 203 453 147 420 q 287 498 258 486 q 386 538 315 510 q 404 545 398 543 l 404 608 q 386 710 404 673 q 317 746 368 746 q 253 715 273 746 q 231 630 234 684 q 231 608 231 623 l 57 608 q 127 806 58 732 q 317 880 195 880 q 508 805 439 880 q 578 608 578 730 l 578 217 q 600 0 578 81 l 427 0 l 404 130 q 382 88 391 103 q 357 51 374 73 q 325 17 341 29 q 284 -3 309 5 q 231 -12 260 -12 m 266 949 l 353 1210 l 526 1210 l 353 949 l 266 949 z "},"â":{"ha":648,"x_min":57,"x_max":600,"o":"m 317 130 q 353 141 336 130 q 379 162 370 152 q 401 189 388 172 q 404 194 403 193 l 404 434 q 368 411 393 427 q 328 386 343 395 q 292 358 313 376 q 260 325 271 341 q 239 286 248 309 q 231 238 231 263 q 317 130 231 130 m 231 -12 q 107 51 158 -12 q 57 192 57 113 q 78 307 57 255 q 123 389 100 358 q 203 453 147 420 q 287 498 258 486 q 386 538 315 510 q 404 545 398 543 l 404 608 q 386 710 404 673 q 317 746 368 746 q 253 715 273 746 q 231 630 234 684 q 231 608 231 623 l 57 608 q 127 806 58 732 q 317 880 195 880 q 508 805 439 880 q 578 608 578 730 l 578 217 q 600 0 578 81 l 427 0 l 404 130 q 382 88 391 103 q 357 51 374 73 q 325 17 341 29 q 284 -3 309 5 q 231 -12 260 -12 m 92 949 l 222 1210 l 396 1210 l 526 949 l 396 949 l 309 1123 l 222 949 l 92 949 z "},"ã":{"ha":648,"x_min":57,"x_max":600,"o":"m 317 130 q 353 141 336 130 q 379 162 370 152 q 401 189 388 172 q 404 194 403 193 l 404 434 q 368 411 393 427 q 328 386 343 395 q 292 358 313 376 q 260 325 271 341 q 239 286 248 309 q 231 238 231 263 q 317 130 231 130 m 231 -12 q 107 51 158 -12 q 57 192 57 113 q 78 307 57 255 q 123 389 100 358 q 203 453 147 420 q 287 498 258 486 q 386 538 315 510 q 404 545 398 543 l 404 608 q 386 710 404 673 q 317 746 368 746 q 253 715 273 746 q 231 630 234 684 q 231 608 231 623 l 57 608 q 127 806 58 732 q 317 880 195 880 q 508 805 439 880 q 578 608 578 730 l 578 217 q 600 0 578 81 l 427 0 l 404 130 q 382 88 391 103 q 357 51 374 73 q 325 17 341 29 q 284 -3 309 5 q 231 -12 260 -12 m 399 949 q 333 964 367 949 q 267 994 298 979 q 207 1008 235 1008 q 174 963 174 1008 l 70 963 q 109 1095 70 1042 q 219 1148 148 1148 q 317 1119 258 1148 q 410 1090 376 1090 q 444 1137 444 1090 l 549 1137 q 510 1003 549 1057 q 399 949 471 949 z "},"ä":{"ha":648,"x_min":57,"x_max":600,"o":"m 317 130 q 353 141 336 130 q 379 162 370 152 q 401 189 388 172 q 404 194 403 193 l 404 434 q 368 411 393 427 q 328 386 343 395 q 292 358 313 376 q 260 325 271 341 q 239 286 248 309 q 231 238 231 263 q 317 130 231 130 m 231 -12 q 107 51 158 -12 q 57 192 57 113 q 78 307 57 255 q 123 389 100 358 q 203 453 147 420 q 287 498 258 486 q 386 538 315 510 q 404 545 398 543 l 404 608 q 386 710 404 673 q 317 746 368 746 q 253 715 273 746 q 231 630 234 684 q 231 608 231 623 l 57 608 q 127 806 58 732 q 317 880 195 880 q 508 805 439 880 q 578 608 578 730 l 578 217 q 600 0 578 81 l 427 0 l 404 130 q 382 88 391 103 q 357 51 374 73 q 325 17 341 29 q 284 -3 309 5 q 231 -12 260 -12 m 353 949 l 353 1123 l 526 1123 l 526 949 l 353 949 m 92 949 l 92 1123 l 266 1123 l 266 949 l 92 949 z "},"å":{"ha":648,"x_min":57,"x_max":600,"o":"m 317 130 q 353 141 336 130 q 379 162 370 152 q 401 189 388 172 q 404 194 403 193 l 404 434 q 368 411 393 427 q 328 386 343 395 q 292 358 313 376 q 260 325 271 341 q 239 286 248 309 q 231 238 231 263 q 317 130 231 130 m 231 -12 q 107 51 158 -12 q 57 192 57 113 q 78 307 57 255 q 123 389 100 358 q 203 453 147 420 q 287 498 258 486 q 386 538 315 510 q 404 545 398 543 l 404 608 q 386 710 404 673 q 317 746 368 746 q 253 715 273 746 q 231 630 234 684 q 231 608 231 623 l 57 608 q 127 806 58 732 q 317 880 195 880 q 508 805 439 880 q 578 608 578 730 l 578 217 q 600 0 578 81 l 427 0 l 404 130 q 382 88 391 103 q 357 51 374 73 q 325 17 341 29 q 284 -3 309 5 q 231 -12 260 -12 m 436 997 q 412 973 436 997 q 309 949 389 949 q 183 997 230 949 q 136 1123 136 1044 q 183 1249 136 1202 q 309 1297 230 1297 q 436 1249 389 1297 q 483 1123 483 1202 q 436 997 483 1044 m 245 1059 q 257 1048 245 1059 q 309 1036 269 1036 q 373 1060 350 1036 q 396 1123 396 1083 q 373 1186 396 1163 q 309 1210 350 1210 q 245 1187 269 1210 q 222 1123 222 1164 q 245 1059 222 1082 z "},"æ":{"ha":994,"x_min":66,"x_max":924,"o":"m 586 518 l 665 518 q 707 527 692 522 q 735 541 722 531 q 754 568 749 551 q 760 613 760 585 q 739 702 760 667 q 673 738 718 738 q 641 730 654 738 q 617 712 627 722 q 602 682 608 701 q 592 647 595 663 q 588 606 589 632 q 586 566 587 581 q 586 526 586 552 q 586 518 586 521 m 326 130 q 442 197 383 130 q 413 393 416 294 q 349 373 375 383 q 295 346 323 363 q 254 301 268 328 q 239 238 239 274 q 326 130 239 130 m 239 -12 q 116 51 167 -12 q 66 192 66 113 q 76 273 66 236 q 103 337 87 311 q 147 387 119 364 q 201 424 175 410 q 267 452 227 439 q 337 474 307 466 q 413 492 368 481 l 413 608 q 395 710 413 673 q 326 746 376 746 q 272 726 292 746 q 246 678 252 707 q 239 608 239 650 l 66 608 q 136 806 67 732 q 326 880 205 880 q 437 853 391 880 q 500 777 484 826 q 569 851 526 823 q 673 880 613 880 q 856 804 793 880 q 918 597 918 727 q 913 549 918 570 q 900 511 908 527 q 877 483 891 495 q 848 461 863 470 q 813 447 834 453 q 774 437 792 440 q 729 431 755 433 q 684 427 703 428 q 635 424 664 425 q 586 420 606 422 l 586 391 q 586 361 586 381 q 586 309 585 336 q 588 256 587 282 q 595 206 589 229 q 610 164 602 182 q 635 136 619 146 q 673 125 651 125 q 702 131 689 125 q 723 145 715 137 q 737 169 731 153 q 745 196 743 184 q 749 229 748 208 q 751 262 751 250 q 751 298 751 275 q 751 301 751 300 q 751 304 751 302 l 924 304 q 865 68 924 149 q 672 -12 806 -12 q 464 121 520 -12 q 424 70 442 90 q 379 28 406 49 q 317 -2 352 8 q 239 -12 282 -12 z "},"ç":{"ha":611,"x_min":33,"x_max":555,"o":"m 294 -12 q 185 9 231 -12 q 111 64 138 30 q 66 150 83 98 q 42 255 49 203 q 35 378 36 308 q 35 491 33 434 q 42 613 36 560 q 66 719 49 666 q 111 805 83 771 q 185 859 138 838 q 294 880 231 880 q 491 806 431 880 q 555 587 551 732 l 555 564 l 381 564 l 381 589 q 377 646 380 621 q 365 694 373 670 q 338 732 356 719 q 294 745 320 745 q 251 730 269 745 q 224 686 233 715 q 211 628 215 658 q 206 558 207 597 q 206 304 203 474 q 212 239 208 267 q 225 185 216 211 q 252 144 234 159 q 294 130 269 130 q 334 139 317 130 q 359 161 351 148 q 373 195 368 174 q 380 236 378 217 q 381 283 381 254 l 381 304 l 555 304 l 555 281 q 538 160 553 213 q 493 68 523 108 q 413 8 463 29 q 294 -12 363 -12 m 237 -348 l 237 -261 q 272 -262 247 -261 q 310 -262 296 -262 q 383 -253 356 -262 q 410 -218 410 -244 q 405 -199 410 -208 q 390 -183 400 -191 q 371 -169 380 -175 q 346 -156 361 -163 q 322 -146 331 -150 q 298 -137 313 -142 q 280 -131 283 -132 l 280 -1 l 367 -1 l 367 -87 q 422 -105 399 -96 q 476 -130 446 -114 q 524 -168 507 -145 q 541 -218 541 -190 q 533 -263 541 -243 q 514 -297 526 -283 q 483 -320 502 -311 q 444 -335 463 -330 q 397 -343 425 -340 q 348 -347 370 -347 q 294 -348 326 -348 l 237 -348 z "},"è":{"ha":617,"x_min":62,"x_max":585,"o":"m 323 -12 q 213 9 260 -12 q 139 66 167 31 q 95 156 112 101 q 72 265 78 210 q 64 392 65 319 q 64 506 62 449 q 73 626 66 574 q 98 728 80 679 q 143 810 115 778 q 217 861 172 842 q 324 880 263 880 q 422 866 380 880 q 493 822 465 851 q 539 756 521 792 q 568 669 558 720 q 581 568 577 618 q 585 454 585 519 l 585 434 l 237 434 l 237 391 q 237 363 237 382 q 237 311 236 338 q 239 258 238 284 q 247 209 241 233 q 262 168 253 186 q 287 140 271 151 q 324 130 302 130 q 369 141 351 130 q 395 172 387 151 q 407 214 404 193 q 411 267 410 235 l 411 304 l 583 304 l 583 269 q 515 59 577 130 q 323 -12 452 -12 m 237 521 l 410 521 l 410 573 q 406 633 409 608 q 394 685 402 659 q 368 724 385 711 q 324 738 350 738 q 280 724 298 738 q 253 683 262 709 q 241 630 245 656 q 237 568 238 604 l 237 521 m 280 949 l 106 1210 l 280 1210 l 367 949 l 280 949 z "},"é":{"ha":617,"x_min":62,"x_max":585,"o":"m 323 -12 q 213 9 260 -12 q 139 66 167 31 q 95 156 112 101 q 72 265 78 210 q 64 392 65 319 q 64 506 62 449 q 73 626 66 574 q 98 728 80 679 q 143 810 115 778 q 217 861 172 842 q 324 880 263 880 q 422 866 380 880 q 493 822 465 851 q 539 756 521 792 q 568 669 558 720 q 581 568 577 618 q 585 454 585 519 l 585 434 l 237 434 l 237 391 q 237 363 237 382 q 237 311 236 338 q 239 258 238 284 q 247 209 241 233 q 262 168 253 186 q 287 140 271 151 q 324 130 302 130 q 369 141 351 130 q 395 172 387 151 q 407 214 404 193 q 411 267 410 235 l 411 304 l 583 304 l 583 269 q 515 59 577 130 q 323 -12 452 -12 m 237 521 l 410 521 l 410 573 q 406 633 409 608 q 394 685 402 659 q 368 724 385 711 q 324 738 350 738 q 280 724 298 738 q 253 683 262 709 q 241 630 245 656 q 237 568 238 604 l 237 521 m 280 949 l 367 1210 l 541 1210 l 367 949 l 280 949 z "},"ê":{"ha":617,"x_min":62,"x_max":585,"o":"m 323 -12 q 213 9 260 -12 q 139 66 167 31 q 95 156 112 101 q 72 265 78 210 q 64 392 65 319 q 64 506 62 449 q 73 626 66 574 q 98 728 80 679 q 143 810 115 778 q 217 861 172 842 q 324 880 263 880 q 422 866 380 880 q 493 822 465 851 q 539 756 521 792 q 568 669 558 720 q 581 568 577 618 q 585 454 585 519 l 585 434 l 237 434 l 237 391 q 237 363 237 382 q 237 311 236 338 q 239 258 238 284 q 247 209 241 233 q 262 168 253 186 q 287 140 271 151 q 324 130 302 130 q 369 141 351 130 q 395 172 387 151 q 407 214 404 193 q 411 267 410 235 l 411 304 l 583 304 l 583 269 q 515 59 577 130 q 323 -12 452 -12 m 237 521 l 410 521 l 410 573 q 406 633 409 608 q 394 685 402 659 q 368 724 385 711 q 324 738 350 738 q 280 724 298 738 q 253 683 262 709 q 241 630 245 656 q 237 568 238 604 l 237 521 m 106 949 l 237 1210 l 410 1210 l 541 949 l 410 949 l 323 1123 l 237 949 l 106 949 z "},"ë":{"ha":617,"x_min":62,"x_max":585,"o":"m 323 -12 q 213 9 260 -12 q 139 66 167 31 q 95 156 112 101 q 72 265 78 210 q 64 392 65 319 q 64 506 62 449 q 73 626 66 574 q 98 728 80 679 q 143 810 115 778 q 217 861 172 842 q 324 880 263 880 q 422 866 380 880 q 493 822 465 851 q 539 756 521 792 q 568 669 558 720 q 581 568 577 618 q 585 454 585 519 l 585 434 l 237 434 l 237 391 q 237 363 237 382 q 237 311 236 338 q 239 258 238 284 q 247 209 241 233 q 262 168 253 186 q 287 140 271 151 q 324 130 302 130 q 369 141 351 130 q 395 172 387 151 q 407 214 404 193 q 411 267 410 235 l 411 304 l 583 304 l 583 269 q 515 59 577 130 q 323 -12 452 -12 m 237 521 l 410 521 l 410 573 q 406 633 409 608 q 394 685 402 659 q 368 724 385 711 q 324 738 350 738 q 280 724 298 738 q 253 683 262 709 q 241 630 245 656 q 237 568 238 604 l 237 521 m 367 949 l 367 1123 l 541 1123 l 541 949 l 367 949 m 106 949 l 106 1123 l 280 1123 l 280 949 l 106 949 z "},"ì":{"ha":347,"x_min":-43,"x_max":260,"o":"m 87 0 l 87 868 l 260 868 l 260 0 l 87 0 m 130 949 l -43 1210 l 130 1210 l 217 949 l 130 949 z "},"í":{"ha":347,"x_min":87,"x_max":391,"o":"m 87 0 l 87 868 l 260 868 l 260 0 l 87 0 m 130 949 l 217 1210 l 391 1210 l 217 949 l 130 949 z "},"î":{"ha":347,"x_min":-43,"x_max":391,"o":"m 87 0 l 87 868 l 260 868 l 260 0 l 87 0 m -43 949 l 87 1210 l 260 1210 l 391 949 l 260 949 l 174 1123 l 87 949 l -43 949 z "},"ï":{"ha":347,"x_min":-43,"x_max":391,"o":"m 87 0 l 87 868 l 260 868 l 260 0 l 87 0 m 217 949 l 217 1123 l 391 1123 l 391 949 l 217 949 m -43 949 l -43 1123 l 130 1123 l 130 949 l -43 949 z "},"ð":{"ha":781,"x_min":87,"x_max":738,"o":"m 391 130 q 454 149 428 130 q 495 199 481 167 q 515 268 509 232 q 521 347 521 304 l 521 663 q 391 738 470 738 q 260 477 260 738 q 260 473 260 476 q 261 397 260 424 q 265 322 262 370 q 277 247 269 274 q 299 189 286 219 q 336 144 313 159 q 391 130 359 130 m 391 -12 q 264 11 319 -12 q 177 73 210 34 q 123 170 144 112 q 95 292 103 229 q 87 434 87 355 q 94 563 87 503 q 119 683 101 623 q 166 785 138 743 q 241 854 195 827 q 347 880 288 880 q 457 852 408 880 q 521 781 506 825 q 474 981 521 912 l 174 911 l 174 998 l 391 1048 q 280 1078 342 1070 q 130 1085 219 1085 l 130 1227 q 406 1198 294 1227 q 583 1093 518 1168 l 738 1128 l 738 1042 l 632 1017 q 694 651 694 889 l 694 391 q 676 235 694 307 q 623 107 659 163 q 528 20 587 52 q 391 -12 468 -12 z "},"ñ":{"ha":673,"x_min":79,"x_max":600,"o":"m 79 0 l 79 868 l 253 868 l 253 774 q 316 828 292 810 q 384 864 340 847 q 475 880 427 880 q 566 840 531 880 q 600 740 600 799 l 600 0 l 427 0 l 427 651 q 414 717 427 696 q 361 738 401 738 q 317 729 339 738 q 284 712 295 720 q 253 687 273 704 l 253 0 l 79 0 m 430 949 q 363 964 397 949 q 297 994 329 979 q 237 1008 265 1008 q 205 963 205 1008 l 100 963 q 139 1095 100 1042 q 250 1148 178 1148 q 348 1119 289 1148 q 440 1090 407 1090 q 475 1137 475 1090 l 579 1137 q 540 1003 579 1057 q 430 949 501 949 z "},"ò":{"ha":647,"x_min":63,"x_max":584,"o":"m 524 69 q 493 28 524 69 q 323 -12 463 -12 q 123 69 184 -12 q 63 304 63 151 l 63 564 q 123 799 63 718 q 323 880 184 880 q 524 799 463 880 q 584 564 584 718 l 584 304 q 524 69 584 151 m 291 136 q 298 133 291 136 q 323 130 305 130 q 356 136 342 130 q 379 149 370 141 q 394 172 388 157 q 404 199 400 187 q 408 232 407 210 q 410 266 410 254 q 410 304 410 279 l 410 564 q 410 602 410 589 q 408 636 410 614 q 404 669 407 658 q 394 696 400 681 q 379 719 388 711 q 356 732 370 727 q 323 738 342 738 q 291 732 305 738 q 268 719 277 727 q 253 696 259 711 q 243 669 247 681 q 239 636 240 658 q 237 602 237 614 q 237 564 237 589 l 237 304 q 237 266 237 279 q 239 232 237 254 q 243 199 240 210 q 253 172 247 187 q 268 149 259 157 q 291 136 277 141 m 280 949 l 106 1210 l 280 1210 l 367 949 l 280 949 z "},"ó":{"ha":647,"x_min":63,"x_max":584,"o":"m 524 69 q 493 28 524 69 q 323 -12 463 -12 q 123 69 184 -12 q 63 304 63 151 l 63 564 q 123 799 63 718 q 323 880 184 880 q 524 799 463 880 q 584 564 584 718 l 584 304 q 524 69 584 151 m 291 136 q 298 133 291 136 q 323 130 305 130 q 356 136 342 130 q 379 149 370 141 q 394 172 388 157 q 404 199 400 187 q 408 232 407 210 q 410 266 410 254 q 410 304 410 279 l 410 564 q 410 602 410 589 q 408 636 410 614 q 404 669 407 658 q 394 696 400 681 q 379 719 388 711 q 356 732 370 727 q 323 738 342 738 q 291 732 305 738 q 268 719 277 727 q 253 696 259 711 q 243 669 247 681 q 239 636 240 658 q 237 602 237 614 q 237 564 237 589 l 237 304 q 237 266 237 279 q 239 232 237 254 q 243 199 240 210 q 253 172 247 187 q 268 149 259 157 q 291 136 277 141 m 280 949 l 367 1210 l 541 1210 l 367 949 l 280 949 z "},"ô":{"ha":647,"x_min":63,"x_max":584,"o":"m 524 69 q 493 28 524 69 q 323 -12 463 -12 q 123 69 184 -12 q 63 304 63 151 l 63 564 q 123 799 63 718 q 323 880 184 880 q 524 799 463 880 q 584 564 584 718 l 584 304 q 524 69 584 151 m 291 136 q 298 133 291 136 q 323 130 305 130 q 356 136 342 130 q 379 149 370 141 q 394 172 388 157 q 404 199 400 187 q 408 232 407 210 q 410 266 410 254 q 410 304 410 279 l 410 564 q 410 602 410 589 q 408 636 410 614 q 404 669 407 658 q 394 696 400 681 q 379 719 388 711 q 356 732 370 727 q 323 738 342 738 q 291 732 305 738 q 268 719 277 727 q 253 696 259 711 q 243 669 247 681 q 239 636 240 658 q 237 602 237 614 q 237 564 237 589 l 237 304 q 237 266 237 279 q 239 232 237 254 q 243 199 240 210 q 253 172 247 187 q 268 149 259 157 q 291 136 277 141 m 106 949 l 237 1210 l 410 1210 l 541 949 l 410 949 l 323 1123 l 237 949 l 106 949 z "},"õ":{"ha":647,"x_min":63,"x_max":584,"o":"m 524 69 q 493 28 524 69 q 323 -12 463 -12 q 123 69 184 -12 q 63 304 63 151 l 63 564 q 123 799 63 718 q 323 880 184 880 q 524 799 463 880 q 584 564 584 718 l 584 304 q 524 69 584 151 m 291 136 q 298 133 291 136 q 323 130 305 130 q 356 136 342 130 q 379 149 370 141 q 394 172 388 157 q 404 199 400 187 q 408 232 407 210 q 410 266 410 254 q 410 304 410 279 l 410 564 q 410 602 410 589 q 408 636 410 614 q 404 669 407 658 q 394 696 400 681 q 379 719 388 711 q 356 732 370 727 q 323 738 342 738 q 291 732 305 738 q 268 719 277 727 q 253 696 259 711 q 243 669 247 681 q 239 636 240 658 q 237 602 237 614 q 237 564 237 589 l 237 304 q 237 266 237 279 q 239 232 237 254 q 243 199 240 210 q 253 172 247 187 q 268 149 259 157 q 291 136 277 141 m 414 949 q 347 964 381 949 q 281 994 313 979 q 221 1008 249 1008 q 189 963 189 1008 l 84 963 q 123 1095 84 1042 q 233 1148 162 1148 q 332 1119 273 1148 q 424 1090 391 1090 q 458 1137 458 1090 l 563 1137 q 524 1003 563 1057 q 414 949 485 949 z "},"ö":{"ha":647,"x_min":63,"x_max":584,"o":"m 524 69 q 493 28 524 69 q 323 -12 463 -12 q 123 69 184 -12 q 63 304 63 151 l 63 564 q 123 799 63 718 q 323 880 184 880 q 524 799 463 880 q 584 564 584 718 l 584 304 q 524 69 584 151 m 291 136 q 298 133 291 136 q 323 130 305 130 q 356 136 342 130 q 379 149 370 141 q 394 172 388 157 q 404 199 400 187 q 408 232 407 210 q 410 266 410 254 q 410 304 410 279 l 410 564 q 410 602 410 589 q 408 636 410 614 q 404 669 407 658 q 394 696 400 681 q 379 719 388 711 q 356 732 370 727 q 323 738 342 738 q 291 732 305 738 q 268 719 277 727 q 253 696 259 711 q 243 669 247 681 q 239 636 240 658 q 237 602 237 614 q 237 564 237 589 l 237 304 q 237 266 237 279 q 239 232 237 254 q 243 199 240 210 q 253 172 247 187 q 268 149 259 157 q 291 136 277 141 m 367 949 l 367 1123 l 541 1123 l 541 949 l 367 949 m 106 949 l 106 1123 l 280 1123 l 280 949 l 106 949 z "},"÷":{"ha":434,"x_min":0,"x_max":434,"o":"m 130 596 l 130 770 l 304 770 l 304 596 l 130 596 m 0 391 l 0 521 l 434 521 l 434 391 l 0 391 m 130 158 l 130 332 l 304 332 l 304 158 l 130 158 z "},"ø":{"ha":694,"x_min":87,"x_max":608,"o":"m 260 235 l 422 688 q 347 738 403 738 q 315 732 329 738 q 292 719 301 727 q 277 696 283 711 q 267 669 271 681 q 262 636 264 658 q 261 602 261 614 q 260 564 260 589 l 260 235 m 347 130 q 379 136 366 130 q 402 149 393 141 q 418 172 412 157 q 427 199 424 187 q 432 232 431 210 q 434 266 433 254 q 434 304 434 279 l 434 545 l 292 149 q 347 130 315 130 m 184 -151 l 133 -133 l 190 29 q 87 304 87 96 l 87 564 q 100 695 87 639 q 144 794 114 751 q 225 858 174 836 q 347 880 276 880 q 479 853 420 880 l 535 1011 l 594 991 l 532 817 q 608 564 608 741 l 608 304 q 547 69 608 151 q 347 -12 487 -12 q 240 4 283 -12 l 184 -151 z "},"ù":{"ha":669,"x_min":77,"x_max":598,"o":"m 203 -12 q 112 28 146 -12 q 77 128 77 68 l 77 868 l 251 868 l 251 181 q 268 137 251 154 q 311 120 284 120 q 338 123 325 120 q 365 135 352 127 q 386 149 378 144 q 407 166 393 154 q 425 181 421 178 l 425 868 l 598 868 l 598 0 l 425 0 l 425 94 q 387 61 399 71 q 351 34 375 51 q 308 8 326 16 q 261 -6 289 1 q 203 -12 233 -12 m 294 949 l 121 1210 l 294 1210 l 381 949 l 294 949 z "},"ú":{"ha":669,"x_min":77,"x_max":598,"o":"m 203 -12 q 112 28 146 -12 q 77 128 77 68 l 77 868 l 251 868 l 251 181 q 268 137 251 154 q 311 120 284 120 q 338 123 325 120 q 365 135 352 127 q 386 149 378 144 q 407 166 393 154 q 425 181 421 178 l 425 868 l 598 868 l 598 0 l 425 0 l 425 94 q 387 61 399 71 q 351 34 375 51 q 308 8 326 16 q 261 -6 289 1 q 203 -12 233 -12 m 294 949 l 381 1210 l 555 1210 l 381 949 l 294 949 z "},"û":{"ha":669,"x_min":77,"x_max":598,"o":"m 203 -12 q 112 28 146 -12 q 77 128 77 68 l 77 868 l 251 868 l 251 181 q 268 137 251 154 q 311 120 284 120 q 338 123 325 120 q 365 135 352 127 q 386 149 378 144 q 407 166 393 154 q 425 181 421 178 l 425 868 l 598 868 l 598 0 l 425 0 l 425 94 q 387 61 399 71 q 351 34 375 51 q 308 8 326 16 q 261 -6 289 1 q 203 -12 233 -12 m 121 949 l 251 1210 l 425 1210 l 555 949 l 425 949 l 338 1123 l 251 949 l 121 949 z "},"ü":{"ha":669,"x_min":77,"x_max":598,"o":"m 203 -12 q 112 28 146 -12 q 77 128 77 68 l 77 868 l 251 868 l 251 181 q 268 137 251 154 q 311 120 284 120 q 338 123 325 120 q 365 135 352 127 q 386 149 378 144 q 407 166 393 154 q 425 181 421 178 l 425 868 l 598 868 l 598 0 l 425 0 l 425 94 q 387 61 399 71 q 351 34 375 51 q 308 8 326 16 q 261 -6 289 1 q 203 -12 233 -12 m 381 949 l 381 1123 l 555 1123 l 555 949 l 381 949 m 121 949 l 121 1123 l 294 1123 l 294 949 l 121 949 z "},"ý":{"ha":571,"x_min":14,"x_max":578,"o":"m 57 -217 l 57 -87 q 139 -80 109 -87 q 186 -56 170 -73 q 206 -18 201 -39 q 210 39 210 3 l 14 868 l 187 868 q 296 260 288 310 q 329 453 311 352 q 369 677 347 555 q 404 868 392 800 l 578 868 l 361 -43 q 269 -177 339 -138 q 75 -217 199 -217 l 57 -217 m 245 949 l 332 1210 l 506 1210 l 332 949 l 245 949 z "},"þ":{"ha":716,"x_min":87,"x_max":651,"o":"m 391 130 q 437 151 418 130 q 464 209 456 171 q 476 283 473 246 q 479 370 479 321 l 479 558 q 477 611 479 589 q 470 659 475 634 q 456 701 465 684 q 430 727 446 717 q 391 738 414 738 q 260 703 319 738 l 260 157 q 391 130 328 130 m 87 -278 l 87 1215 l 260 1215 l 260 782 q 297 819 285 808 q 333 848 309 831 q 381 873 356 866 q 437 880 406 880 q 515 864 481 880 q 572 826 550 848 q 610 762 595 804 q 634 686 626 720 q 646 595 642 652 q 650 502 650 537 q 651 403 651 466 q 646 290 651 344 q 626 179 640 236 q 588 81 611 122 q 525 14 564 40 q 434 -12 485 -12 q 340 13 381 -12 q 260 79 300 38 l 260 -278 l 87 -278 z "},"ÿ":{"ha":571,"x_min":14,"x_max":578,"o":"m 57 -217 l 57 -87 q 139 -80 109 -87 q 186 -56 170 -73 q 206 -18 201 -39 q 210 39 210 3 l 14 868 l 187 868 q 296 260 288 310 q 329 453 311 352 q 369 677 347 555 q 404 868 392 800 l 578 868 l 361 -43 q 269 -177 339 -138 q 75 -217 199 -217 l 57 -217 m 332 949 l 332 1123 l 506 1123 l 506 949 l 332 949 m 72 949 l 72 1123 l 245 1123 l 245 949 l 72 949 z "},"Ā":{"ha":716,"x_min":11,"x_max":705,"o":"m 271 434 l 445 434 l 358 955 l 271 434 m 11 0 l 271 1215 l 445 1215 l 705 0 l 532 0 l 467 304 l 250 304 l 184 0 l 11 0 m 211 1297 l 211 1400 l 505 1400 l 505 1297 l 211 1297 z "},"ā":{"ha":648,"x_min":57,"x_max":600,"o":"m 317 130 q 353 141 336 130 q 379 162 370 152 q 401 189 388 172 q 404 194 403 193 l 404 434 q 368 411 393 427 q 328 386 343 395 q 292 358 313 376 q 260 325 271 341 q 239 286 248 309 q 231 238 231 263 q 317 130 231 130 m 231 -12 q 107 51 158 -12 q 57 192 57 113 q 78 307 57 255 q 123 389 100 358 q 203 453 147 420 q 287 498 258 486 q 386 538 315 510 q 404 545 398 543 l 404 608 q 386 710 404 673 q 317 746 368 746 q 253 715 273 746 q 231 630 234 684 q 231 608 231 623 l 57 608 q 127 806 58 732 q 317 880 195 880 q 508 805 439 880 q 578 608 578 730 l 578 217 q 600 0 578 81 l 427 0 l 404 130 q 382 88 391 103 q 357 51 374 73 q 325 17 341 29 q 284 -3 309 5 q 231 -12 260 -12 m 162 949 l 162 1053 l 456 1053 l 456 949 l 162 949 z "},"Ă":{"ha":716,"x_min":11,"x_max":705,"o":"m 271 434 l 445 434 l 358 955 l 271 434 m 11 0 l 271 1215 l 445 1215 l 705 0 l 532 0 l 467 304 l 250 304 l 184 0 l 11 0 m 358 1297 q 189 1360 237 1297 q 141 1557 141 1423 l 271 1557 q 288 1457 271 1488 q 358 1427 304 1427 q 428 1458 412 1427 q 445 1557 445 1489 l 575 1557 q 528 1359 575 1421 q 358 1297 481 1297 z "},"ă":{"ha":648,"x_min":57,"x_max":600,"o":"m 317 130 q 353 141 336 130 q 379 162 370 152 q 401 189 388 172 q 404 194 403 193 l 404 434 q 368 411 393 427 q 328 386 343 395 q 292 358 313 376 q 260 325 271 341 q 239 286 248 309 q 231 238 231 263 q 317 130 231 130 m 231 -12 q 107 51 158 -12 q 57 192 57 113 q 78 307 57 255 q 123 389 100 358 q 203 453 147 420 q 287 498 258 486 q 386 538 315 510 q 404 545 398 543 l 404 608 q 386 710 404 673 q 317 746 368 746 q 253 715 273 746 q 231 630 234 684 q 231 608 231 623 l 57 608 q 127 806 58 732 q 317 880 195 880 q 508 805 439 880 q 578 608 578 730 l 578 217 q 600 0 578 81 l 427 0 l 404 130 q 382 88 391 103 q 357 51 374 73 q 325 17 341 29 q 284 -3 309 5 q 231 -12 260 -12 m 309 949 q 140 1013 188 949 q 92 1210 92 1076 l 222 1210 q 239 1110 222 1141 q 309 1080 256 1080 q 379 1111 363 1080 q 396 1210 396 1141 l 526 1210 q 479 1012 526 1074 q 309 949 432 949 z "},"Ą":{"ha":716,"x_min":11,"x_max":705,"o":"m 271 434 l 445 434 l 358 955 l 271 434 m 11 0 l 271 1215 l 445 1215 l 705 0 l 532 0 l 467 304 l 250 304 l 184 0 l 11 0 m 668 -352 q 616 -352 636 -352 q 569 -350 596 -351 q 526 -346 543 -349 q 489 -339 509 -344 q 456 -328 469 -334 q 431 -312 444 -321 q 411 -289 418 -302 q 399 -260 404 -277 q 395 -222 395 -243 q 450 -82 395 -149 q 568 2 505 -16 l 655 2 q 619 -42 651 -3 q 572 -102 587 -81 q 541 -157 557 -123 q 525 -219 525 -192 q 623 -269 525 -269 q 662 -267 635 -269 q 699 -265 689 -265 l 699 -352 l 668 -352 z "},"ą":{"ha":648,"x_min":57,"x_max":600,"o":"m 317 130 q 353 141 336 130 q 379 162 370 152 q 401 189 388 172 q 404 194 403 193 l 404 434 q 368 411 393 427 q 328 386 343 395 q 292 358 313 376 q 260 325 271 341 q 239 286 248 309 q 231 238 231 263 q 317 130 231 130 m 231 -12 q 107 51 158 -12 q 57 192 57 113 q 78 307 57 255 q 123 389 100 358 q 203 453 147 420 q 287 498 258 486 q 386 538 315 510 q 404 545 398 543 l 404 608 q 386 710 404 673 q 317 746 368 746 q 253 715 273 746 q 231 630 234 684 q 231 608 231 623 l 57 608 q 127 806 58 732 q 317 880 195 880 q 508 805 439 880 q 578 608 578 730 l 578 217 q 600 0 578 81 l 427 0 l 404 130 q 382 88 391 103 q 357 51 374 73 q 325 17 341 29 q 284 -3 309 5 q 231 -12 260 -12 m 535 -349 q 483 -349 503 -349 q 436 -347 463 -349 q 393 -343 410 -346 q 356 -336 376 -341 q 323 -325 336 -332 q 298 -309 311 -319 q 278 -287 285 -299 q 266 -257 271 -274 q 262 -219 262 -240 q 317 -80 262 -146 q 435 5 372 -14 l 522 5 q 486 -39 518 -1 q 439 -99 454 -78 q 408 -155 425 -120 q 392 -216 392 -189 q 490 -267 392 -267 q 529 -264 503 -267 q 566 -262 556 -262 l 566 -349 l 535 -349 z "},"Ć":{"ha":751,"x_min":65,"x_max":722,"o":"m 399 -12 q 264 9 322 -12 q 168 70 205 31 q 107 165 131 108 q 75 288 84 222 q 65 435 65 353 l 65 781 q 75 928 65 863 q 107 1051 84 994 q 168 1146 131 1108 q 264 1206 205 1184 q 399 1227 322 1227 q 545 1202 484 1227 q 644 1128 607 1177 q 700 1015 681 1080 q 722 865 718 951 q 722 825 722 852 l 549 825 l 549 863 q 546 925 548 899 q 538 977 544 950 q 523 1022 533 1004 q 496 1056 512 1040 q 456 1078 480 1071 q 399 1085 431 1085 q 327 1072 357 1085 q 279 1037 296 1058 q 253 979 262 1015 q 241 909 244 943 q 239 825 239 875 l 239 391 q 242 312 239 347 q 257 242 246 277 q 285 183 268 207 q 331 145 302 159 q 399 130 360 130 q 465 145 437 130 q 509 183 493 160 q 534 242 525 206 q 546 312 543 278 q 549 391 549 346 l 549 434 l 722 434 l 722 391 q 706 225 722 296 q 652 99 689 154 q 552 16 615 45 q 399 -12 488 -12 m 350 1297 l 437 1557 l 610 1557 l 437 1297 l 350 1297 z "},"ć":{"ha":611,"x_min":33,"x_max":555,"o":"m 294 -12 q 185 9 231 -12 q 111 64 138 30 q 66 150 83 98 q 42 255 49 203 q 35 378 36 308 q 35 491 33 434 q 42 613 36 560 q 66 719 49 666 q 111 805 83 771 q 185 859 138 838 q 294 880 231 880 q 491 806 431 880 q 555 587 551 732 l 555 564 l 381 564 l 381 589 q 377 646 380 621 q 365 694 373 670 q 338 732 356 719 q 294 745 320 745 q 251 730 269 745 q 224 686 233 715 q 211 628 215 658 q 206 558 207 597 q 206 304 203 474 q 212 239 208 267 q 225 185 216 211 q 252 144 234 159 q 294 130 269 130 q 334 139 317 130 q 359 161 351 148 q 373 195 368 174 q 380 236 378 217 q 381 283 381 254 l 381 304 l 555 304 l 555 281 q 538 160 553 213 q 493 68 523 108 q 413 8 463 29 q 294 -12 363 -12 m 280 949 l 367 1210 l 541 1210 l 367 949 l 280 949 z "},"Ĉ":{"ha":751,"x_min":65,"x_max":722,"o":"m 399 -12 q 264 9 322 -12 q 168 70 205 31 q 107 165 131 108 q 75 288 84 222 q 65 435 65 353 l 65 781 q 75 928 65 863 q 107 1051 84 994 q 168 1146 131 1108 q 264 1206 205 1184 q 399 1227 322 1227 q 545 1202 484 1227 q 644 1128 607 1177 q 700 1015 681 1080 q 722 865 718 951 q 722 825 722 852 l 549 825 l 549 863 q 546 925 548 899 q 538 977 544 950 q 523 1022 533 1004 q 496 1056 512 1040 q 456 1078 480 1071 q 399 1085 431 1085 q 327 1072 357 1085 q 279 1037 296 1058 q 253 979 262 1015 q 241 909 244 943 q 239 825 239 875 l 239 391 q 242 312 239 347 q 257 242 246 277 q 285 183 268 207 q 331 145 302 159 q 399 130 360 130 q 465 145 437 130 q 509 183 493 160 q 534 242 525 206 q 546 312 543 278 q 549 391 549 346 l 549 434 l 722 434 l 722 391 q 706 225 722 296 q 652 99 689 154 q 552 16 615 45 q 399 -12 488 -12 m 176 1297 l 307 1557 l 480 1557 l 610 1297 l 480 1297 l 393 1470 l 307 1297 l 176 1297 z "},"ĉ":{"ha":611,"x_min":33,"x_max":555,"o":"m 294 -12 q 185 9 231 -12 q 111 64 138 30 q 66 150 83 98 q 42 255 49 203 q 35 378 36 308 q 35 491 33 434 q 42 613 36 560 q 66 719 49 666 q 111 805 83 771 q 185 859 138 838 q 294 880 231 880 q 491 806 431 880 q 555 587 551 732 l 555 564 l 381 564 l 381 589 q 377 646 380 621 q 365 694 373 670 q 338 732 356 719 q 294 745 320 745 q 251 730 269 745 q 224 686 233 715 q 211 628 215 658 q 206 558 207 597 q 206 304 203 474 q 212 239 208 267 q 225 185 216 211 q 252 144 234 159 q 294 130 269 130 q 334 139 317 130 q 359 161 351 148 q 373 195 368 174 q 380 236 378 217 q 381 283 381 254 l 381 304 l 555 304 l 555 281 q 538 160 553 213 q 493 68 523 108 q 413 8 463 29 q 294 -12 363 -12 m 106 949 l 237 1210 l 410 1210 l 541 949 l 410 949 l 323 1123 l 237 949 l 106 949 z "},"Ċ":{"ha":751,"x_min":65,"x_max":722,"o":"m 307 1297 l 307 1470 l 480 1470 l 480 1297 l 307 1297 m 399 -12 q 264 9 322 -12 q 168 70 205 31 q 107 165 131 108 q 75 288 84 222 q 65 435 65 353 l 65 781 q 75 928 65 863 q 107 1051 84 994 q 168 1146 131 1108 q 264 1206 205 1184 q 399 1227 322 1227 q 545 1202 484 1227 q 644 1128 607 1177 q 700 1015 681 1080 q 722 865 718 951 q 722 825 722 852 l 549 825 l 549 863 q 546 925 548 899 q 538 977 544 950 q 523 1022 533 1004 q 496 1056 512 1040 q 456 1078 480 1071 q 399 1085 431 1085 q 327 1072 357 1085 q 279 1037 296 1058 q 253 979 262 1015 q 241 909 244 943 q 239 825 239 875 l 239 391 q 242 312 239 347 q 257 242 246 277 q 285 183 268 207 q 331 145 302 159 q 399 130 360 130 q 465 145 437 130 q 509 183 493 160 q 534 242 525 206 q 546 312 543 278 q 549 391 549 346 l 549 434 l 722 434 l 722 391 q 706 225 722 296 q 652 99 689 154 q 552 16 615 45 q 399 -12 488 -12 z "},"ċ":{"ha":611,"x_min":33,"x_max":555,"o":"m 237 949 l 237 1123 l 410 1123 l 410 949 l 237 949 m 294 -12 q 185 9 231 -12 q 111 64 138 30 q 66 150 83 98 q 42 255 49 203 q 35 378 36 308 q 35 491 33 434 q 42 613 36 560 q 66 719 49 666 q 111 805 83 771 q 185 859 138 838 q 294 880 231 880 q 491 806 431 880 q 555 587 551 732 l 555 564 l 381 564 l 381 589 q 377 646 380 621 q 365 694 373 670 q 338 732 356 719 q 294 745 320 745 q 251 730 269 745 q 224 686 233 715 q 211 628 215 658 q 206 558 207 597 q 206 304 203 474 q 212 239 208 267 q 225 185 216 211 q 252 144 234 159 q 294 130 269 130 q 334 139 317 130 q 359 161 351 148 q 373 195 368 174 q 380 236 378 217 q 381 283 381 254 l 381 304 l 555 304 l 555 281 q 538 160 553 213 q 493 68 523 108 q 413 8 463 29 q 294 -12 363 -12 z "},"Č":{"ha":751,"x_min":65,"x_max":722,"o":"m 399 -12 q 264 9 322 -12 q 168 70 205 31 q 107 165 131 108 q 75 288 84 222 q 65 435 65 353 l 65 781 q 75 928 65 863 q 107 1051 84 994 q 168 1146 131 1108 q 264 1206 205 1184 q 399 1227 322 1227 q 545 1202 484 1227 q 644 1128 607 1177 q 700 1015 681 1080 q 722 865 718 951 q 722 825 722 852 l 549 825 l 549 863 q 546 925 548 899 q 538 977 544 950 q 523 1022 533 1004 q 496 1056 512 1040 q 456 1078 480 1071 q 399 1085 431 1085 q 327 1072 357 1085 q 279 1037 296 1058 q 253 979 262 1015 q 241 909 244 943 q 239 825 239 875 l 239 391 q 242 312 239 347 q 257 242 246 277 q 285 183 268 207 q 331 145 302 159 q 399 130 360 130 q 465 145 437 130 q 509 183 493 160 q 534 242 525 206 q 546 312 543 278 q 549 391 549 346 l 549 434 l 722 434 l 722 391 q 706 225 722 296 q 652 99 689 154 q 552 16 615 45 q 399 -12 488 -12 m 307 1297 l 176 1557 l 307 1557 l 393 1383 l 480 1557 l 610 1557 l 480 1297 l 307 1297 z "},"č":{"ha":611,"x_min":33,"x_max":555,"o":"m 294 -12 q 185 9 231 -12 q 111 64 138 30 q 66 150 83 98 q 42 255 49 203 q 35 378 36 308 q 35 491 33 434 q 42 613 36 560 q 66 719 49 666 q 111 805 83 771 q 185 859 138 838 q 294 880 231 880 q 491 806 431 880 q 555 587 551 732 l 555 564 l 381 564 l 381 589 q 377 646 380 621 q 365 694 373 670 q 338 732 356 719 q 294 745 320 745 q 251 730 269 745 q 224 686 233 715 q 211 628 215 658 q 206 558 207 597 q 206 304 203 474 q 212 239 208 267 q 225 185 216 211 q 252 144 234 159 q 294 130 269 130 q 334 139 317 130 q 359 161 351 148 q 373 195 368 174 q 380 236 378 217 q 381 283 381 254 l 381 304 l 555 304 l 555 281 q 538 160 553 213 q 493 68 523 108 q 413 8 463 29 q 294 -12 363 -12 m 237 949 l 106 1210 l 237 1210 l 323 1036 l 410 1210 l 541 1210 l 410 949 l 237 949 z "},"Ď":{"ha":768,"x_min":87,"x_max":703,"o":"m 87 0 l 87 1215 l 356 1215 q 625 1137 547 1215 q 703 868 703 1059 l 703 391 q 624 95 703 191 q 355 0 544 0 l 87 0 m 260 130 l 356 130 q 429 138 399 130 q 479 166 460 146 q 509 206 498 187 q 524 264 519 224 q 529 329 528 303 q 530 408 530 354 q 530 434 530 425 l 530 825 q 529 878 530 858 q 527 924 529 897 q 522 966 526 951 q 513 1001 519 982 q 497 1031 507 1021 q 475 1054 488 1042 q 445 1072 462 1066 q 404 1081 427 1078 q 353 1085 381 1085 l 260 1085 l 260 130 m 308 1297 l 178 1557 l 308 1557 l 395 1383 l 481 1557 l 612 1557 l 481 1297 l 308 1297 z "},"ď":{"ha":707,"x_min":63,"x_max":905,"o":"m 324 130 q 454 157 387 130 l 454 703 q 324 738 396 738 q 281 725 298 738 q 254 689 263 713 q 241 639 245 665 q 237 579 237 614 q 237 338 234 427 q 241 261 237 295 q 255 196 245 227 q 281 147 264 164 q 324 130 299 130 m 281 -12 q 180 20 223 -12 q 114 109 137 53 q 79 224 90 164 q 64 353 67 284 q 64 509 63 385 q 68 590 66 554 q 78 666 71 627 q 94 735 84 705 q 120 794 104 766 q 158 840 136 822 q 210 869 180 859 q 278 880 241 880 q 333 872 307 880 q 381 848 358 865 q 418 819 404 831 q 454 782 432 806 l 454 1215 l 628 1215 l 628 0 l 454 0 l 454 79 q 374 13 415 38 q 281 -12 334 -12 m 774 867 l 731 954 q 798 975 778 954 q 818 1041 818 995 l 731 1041 l 731 1215 l 905 1215 q 903 1050 905 1117 q 899 989 901 1014 q 888 939 896 964 q 866 900 880 914 q 830 876 852 885 q 774 867 807 867 z "},"Đ":{"ha":781,"x_min":23,"x_max":694,"o":"m 87 0 l 87 578 l 23 578 l 23 681 l 87 681 l 87 1215 l 347 1215 q 616 1137 538 1215 q 694 868 694 1059 l 694 391 q 615 95 694 191 q 346 0 535 0 l 87 0 m 260 130 l 347 130 q 420 138 390 130 q 470 166 451 146 q 500 206 489 187 q 515 264 511 224 q 520 329 519 303 q 521 408 521 354 q 521 434 521 425 l 521 825 q 520 878 521 858 q 518 924 520 897 q 513 966 517 951 q 504 1001 510 982 q 489 1031 498 1021 q 466 1054 479 1042 q 436 1072 453 1066 q 395 1081 418 1078 q 344 1085 372 1085 l 260 1085 l 260 681 l 358 681 l 358 578 l 260 578 l 260 130 z "},"đ":{"ha":716,"x_min":65,"x_max":716,"o":"m 326 130 q 456 157 389 130 l 456 703 q 326 738 397 738 q 296 733 309 738 q 274 717 283 728 q 258 694 264 706 q 247 664 251 682 q 241 630 243 645 q 239 592 239 615 q 238 553 238 568 q 238 514 238 538 q 239 478 239 490 q 238 435 239 464 q 238 386 238 407 q 238 336 237 366 q 240 284 238 306 q 246 237 243 262 q 256 194 250 212 q 272 161 263 176 q 295 138 281 146 q 326 130 309 130 m 282 -12 q 193 13 232 -12 q 130 79 154 39 q 92 174 106 119 q 71 281 77 229 q 65 391 65 334 q 65 399 65 394 q 66 498 65 465 q 70 592 66 532 q 82 685 74 652 q 105 761 90 718 q 143 826 121 804 q 200 864 165 848 q 279 880 235 880 q 334 872 309 880 q 382 848 359 865 q 419 819 406 831 q 456 782 433 806 l 456 1017 l 279 1017 l 279 1111 l 456 1111 l 456 1215 l 629 1215 l 629 1111 l 716 1111 l 716 1017 l 629 1017 l 629 0 l 456 0 l 456 79 q 376 13 416 38 q 282 -12 335 -12 z "},"Ē":{"ha":584,"x_min":87,"x_max":564,"o":"m 87 0 l 87 1215 l 564 1215 l 564 1085 l 260 1085 l 260 694 l 477 694 l 477 564 l 260 564 l 260 130 l 564 130 l 564 0 l 87 0 m 178 1297 l 178 1400 l 473 1400 l 473 1297 l 178 1297 z "},"ē":{"ha":617,"x_min":62,"x_max":585,"o":"m 323 -12 q 213 9 260 -12 q 139 66 167 31 q 95 156 112 101 q 72 265 78 210 q 64 392 65 319 q 64 506 62 449 q 73 626 66 574 q 98 728 80 679 q 143 810 115 778 q 217 861 172 842 q 324 880 263 880 q 422 866 380 880 q 493 822 465 851 q 539 756 521 792 q 568 669 558 720 q 581 568 577 618 q 585 454 585 519 l 585 434 l 237 434 l 237 391 q 237 363 237 382 q 237 311 236 338 q 239 258 238 284 q 247 209 241 233 q 262 168 253 186 q 287 140 271 151 q 324 130 302 130 q 369 141 351 130 q 395 172 387 151 q 407 214 404 193 q 411 267 410 235 l 411 304 l 583 304 l 583 269 q 515 59 577 130 q 323 -12 452 -12 m 237 521 l 410 521 l 410 573 q 406 633 409 608 q 394 685 402 659 q 368 724 385 711 q 324 738 350 738 q 280 724 298 738 q 253 683 262 709 q 241 630 245 656 q 237 568 238 604 l 237 521 m 176 949 l 176 1053 l 471 1053 l 471 949 l 176 949 z "},"Ė":{"ha":584,"x_min":87,"x_max":564,"o":"m 239 1310 l 239 1484 l 412 1484 l 412 1310 l 239 1310 m 87 0 l 87 1215 l 564 1215 l 564 1085 l 260 1085 l 260 694 l 477 694 l 477 564 l 260 564 l 260 130 l 564 130 l 564 0 l 87 0 z "},"ė":{"ha":633,"x_min":62,"x_max":585,"o":"m 237 963 l 237 1137 l 410 1137 l 410 963 l 237 963 m 323 -12 q 213 9 260 -12 q 139 66 167 31 q 95 156 112 101 q 72 265 78 210 q 64 392 65 319 q 64 506 62 449 q 73 626 66 574 q 98 728 80 679 q 143 810 115 778 q 217 861 172 842 q 324 880 263 880 q 422 866 380 880 q 493 822 465 851 q 539 756 521 792 q 568 669 558 720 q 581 568 577 618 q 585 454 585 519 l 585 434 l 237 434 l 237 391 q 237 363 237 382 q 237 311 236 338 q 239 258 238 284 q 247 209 241 233 q 262 168 253 186 q 287 140 271 151 q 324 130 302 130 q 369 141 351 130 q 395 172 387 151 q 407 214 404 193 q 411 267 410 235 l 411 304 l 583 304 l 583 269 q 515 59 577 130 q 323 -12 452 -12 m 237 521 l 410 521 l 410 573 q 406 633 409 608 q 394 685 402 659 q 368 724 385 711 q 324 738 350 738 q 280 724 298 738 q 253 683 262 709 q 241 630 245 656 q 237 568 238 604 l 237 521 z "},"Ę":{"ha":584,"x_min":87,"x_max":564,"o":"m 87 0 l 87 1215 l 564 1215 l 564 1085 l 260 1085 l 260 694 l 477 694 l 477 564 l 260 564 l 260 130 l 564 130 l 564 0 l 87 0 m 425 -342 q 373 -342 393 -342 q 327 -340 353 -342 q 283 -337 300 -339 q 246 -330 267 -334 q 213 -318 226 -325 q 188 -302 201 -312 q 168 -280 175 -292 q 156 -250 161 -267 q 152 -212 152 -233 q 207 -73 152 -139 q 326 12 262 -7 l 412 12 q 376 -33 408 6 q 330 -92 345 -71 q 298 -148 315 -113 q 282 -210 282 -182 q 380 -260 282 -260 q 419 -258 393 -260 q 456 -256 446 -256 l 456 -342 l 425 -342 z "},"ę":{"ha":617,"x_min":62,"x_max":585,"o":"m 323 -12 q 213 9 260 -12 q 139 66 167 31 q 95 156 112 101 q 72 265 78 210 q 64 392 65 319 q 64 506 62 449 q 73 626 66 574 q 98 728 80 679 q 143 810 115 778 q 217 861 172 842 q 324 880 263 880 q 422 866 380 880 q 493 822 465 851 q 539 756 521 792 q 568 669 558 720 q 581 568 577 618 q 585 454 585 519 l 585 434 l 237 434 l 237 391 q 237 363 237 382 q 237 311 236 338 q 239 258 238 284 q 247 209 241 233 q 262 168 253 186 q 287 140 271 151 q 324 130 302 130 q 369 141 351 130 q 395 172 387 151 q 407 214 404 193 q 411 267 410 235 l 411 304 l 583 304 l 583 269 q 515 59 577 130 q 323 -12 452 -12 m 237 521 l 410 521 l 410 573 q 406 633 409 608 q 394 685 402 659 q 368 724 385 711 q 324 738 350 738 q 280 724 298 738 q 253 683 262 709 q 241 630 245 656 q 237 568 238 604 l 237 521 m 380 -355 q 328 -354 348 -355 q 281 -353 308 -354 q 238 -349 254 -351 q 201 -342 221 -347 q 168 -331 180 -337 q 142 -314 155 -324 q 122 -292 130 -304 q 111 -262 115 -279 q 106 -224 106 -245 q 161 -85 106 -151 q 280 -1 216 -19 l 367 -1 q 331 -45 363 -6 q 284 -104 299 -83 q 253 -160 269 -125 q 237 -222 237 -195 q 334 -272 237 -272 q 374 -270 347 -272 q 410 -268 401 -268 l 410 -355 l 380 -355 z "},"Ě":{"ha":584,"x_min":87,"x_max":564,"o":"m 87 0 l 87 1215 l 564 1215 l 564 1085 l 260 1085 l 260 694 l 477 694 l 477 564 l 260 564 l 260 130 l 564 130 l 564 0 l 87 0 m 239 1297 l 109 1557 l 239 1557 l 326 1383 l 412 1557 l 543 1557 l 412 1297 l 239 1297 z "},"ě":{"ha":617,"x_min":62,"x_max":585,"o":"m 323 -12 q 213 9 260 -12 q 139 66 167 31 q 95 156 112 101 q 72 265 78 210 q 64 392 65 319 q 64 506 62 449 q 73 626 66 574 q 98 728 80 679 q 143 810 115 778 q 217 861 172 842 q 324 880 263 880 q 422 866 380 880 q 493 822 465 851 q 539 756 521 792 q 568 669 558 720 q 581 568 577 618 q 585 454 585 519 l 585 434 l 237 434 l 237 391 q 237 363 237 382 q 237 311 236 338 q 239 258 238 284 q 247 209 241 233 q 262 168 253 186 q 287 140 271 151 q 324 130 302 130 q 369 141 351 130 q 395 172 387 151 q 407 214 404 193 q 411 267 410 235 l 411 304 l 583 304 l 583 269 q 515 59 577 130 q 323 -12 452 -12 m 237 521 l 410 521 l 410 573 q 406 633 409 608 q 394 685 402 659 q 368 724 385 711 q 324 738 350 738 q 280 724 298 738 q 253 683 262 709 q 241 630 245 656 q 237 568 238 604 l 237 521 m 237 949 l 106 1210 l 237 1210 l 323 1036 l 410 1210 l 541 1210 l 410 949 l 237 949 z "},"Ĝ":{"ha":813,"x_min":65,"x_max":760,"o":"m 412 -12 q 268 12 329 -12 q 168 76 206 35 q 106 180 129 117 q 74 313 83 243 q 65 473 65 382 l 65 781 q 419 1227 65 1227 q 566 1202 504 1227 q 667 1128 629 1177 q 726 1014 706 1079 q 749 862 745 948 q 749 825 749 850 l 576 825 l 576 861 q 571 935 575 904 q 558 996 568 966 q 531 1044 548 1025 q 486 1074 514 1063 q 419 1085 458 1085 q 330 1066 366 1085 q 274 1009 294 1046 q 247 928 255 972 q 239 825 239 884 l 239 434 q 241 356 239 391 q 251 284 244 321 q 270 222 257 248 q 301 174 282 195 q 348 141 319 153 q 412 130 376 130 q 488 147 456 130 q 538 191 519 164 q 568 259 557 218 q 582 341 578 300 q 586 434 586 382 l 586 477 l 412 477 l 412 606 l 760 606 l 760 0 l 629 0 l 586 130 q 412 -12 535 -12 m 195 1297 l 326 1557 l 499 1557 l 629 1297 l 499 1297 l 412 1470 l 326 1297 l 195 1297 z "},"ĝ":{"ha":656,"x_min":7,"x_max":658,"o":"m 202 564 q 311 380 202 380 q 419 564 419 380 q 414 633 419 602 q 398 695 410 665 q 364 742 387 725 q 311 760 342 760 q 256 742 279 760 q 223 695 234 725 q 207 633 212 665 q 202 564 202 602 m 354 -132 q 387 -131 372 -132 q 420 -128 401 -130 q 453 -122 439 -126 q 480 -111 467 -117 q 499 -93 492 -104 q 506 -67 506 -81 q 367 22 506 5 l 224 39 q 179 -16 197 20 q 160 -92 160 -52 q 168 -110 160 -102 q 190 -122 175 -118 q 219 -129 204 -126 q 256 -132 235 -132 q 292 -133 277 -133 q 327 -132 307 -133 q 354 -132 347 -132 m 354 -260 q 301 -259 321 -260 q 245 -258 281 -259 q 186 -253 210 -256 q 132 -243 163 -249 q 82 -228 102 -237 q 43 -205 62 -218 q 16 -174 25 -193 q 7 -132 7 -155 q 43 -16 7 -64 q 137 60 79 32 q 76 89 102 70 q 50 136 50 109 q 53 161 50 148 q 59 184 56 174 q 70 208 62 195 q 82 230 77 222 q 96 251 86 237 q 110 270 106 265 q 125 289 114 275 q 137 304 136 302 q 50 564 50 407 q 79 725 50 654 q 167 838 107 795 q 311 880 227 880 q 395 867 359 880 q 453 832 431 853 q 498 778 476 812 q 644 880 549 873 q 648 880 646 880 q 653 880 650 880 q 658 880 656 880 l 658 738 q 647 738 654 738 q 603 737 618 738 q 570 731 588 736 q 541 715 551 726 q 562 645 553 689 q 571 564 571 602 q 544 404 571 473 q 456 292 516 334 q 311 250 396 250 l 223 260 q 216 248 222 256 q 208 234 211 239 q 202 220 205 229 q 199 204 199 212 q 216 174 199 186 q 263 156 233 162 q 320 148 293 151 q 382 143 348 145 q 429 140 416 142 q 497 127 467 134 q 559 106 528 120 q 611 74 591 93 q 645 25 631 55 q 658 -43 658 -5 q 641 -128 658 -91 q 597 -190 625 -165 q 530 -230 569 -214 q 447 -253 490 -246 q 354 -260 404 -260 m 121 949 l 251 1210 l 425 1210 l 555 949 l 425 949 l 338 1123 l 251 949 l 121 949 z "},"Ğ":{"ha":813,"x_min":65,"x_max":760,"o":"m 412 -12 q 268 12 329 -12 q 168 76 206 35 q 106 180 129 117 q 74 313 83 243 q 65 473 65 382 l 65 781 q 419 1227 65 1227 q 566 1202 504 1227 q 667 1128 629 1177 q 726 1014 706 1079 q 749 862 745 948 q 749 825 749 850 l 576 825 l 576 861 q 571 935 575 904 q 558 996 568 966 q 531 1044 548 1025 q 486 1074 514 1063 q 419 1085 458 1085 q 330 1066 366 1085 q 274 1009 294 1046 q 247 928 255 972 q 239 825 239 884 l 239 434 q 241 356 239 391 q 251 284 244 321 q 270 222 257 248 q 301 174 282 195 q 348 141 319 153 q 412 130 376 130 q 488 147 456 130 q 538 191 519 164 q 568 259 557 218 q 582 341 578 300 q 586 434 586 382 l 586 477 l 412 477 l 412 606 l 760 606 l 760 0 l 629 0 l 586 130 q 412 -12 535 -12 m 412 1297 q 243 1360 291 1297 q 195 1557 195 1423 l 326 1557 q 342 1457 326 1488 q 412 1427 359 1427 q 483 1458 466 1427 q 499 1557 499 1489 l 629 1557 q 582 1359 629 1421 q 412 1297 535 1297 z "},"ğ":{"ha":656,"x_min":7,"x_max":658,"o":"m 202 564 q 311 380 202 380 q 419 564 419 380 q 414 633 419 602 q 398 695 410 665 q 364 742 387 725 q 311 760 342 760 q 256 742 279 760 q 223 695 234 725 q 207 633 212 665 q 202 564 202 602 m 354 -132 q 387 -131 372 -132 q 420 -128 401 -130 q 453 -122 439 -126 q 480 -111 467 -117 q 499 -93 492 -104 q 506 -67 506 -81 q 367 22 506 5 l 224 39 q 179 -16 197 20 q 160 -92 160 -52 q 168 -110 160 -102 q 190 -122 175 -118 q 219 -129 204 -126 q 256 -132 235 -132 q 292 -133 277 -133 q 327 -132 307 -133 q 354 -132 347 -132 m 354 -260 q 301 -259 321 -260 q 245 -258 281 -259 q 186 -253 210 -256 q 132 -243 163 -249 q 82 -228 102 -237 q 43 -205 62 -218 q 16 -174 25 -193 q 7 -132 7 -155 q 43 -16 7 -64 q 137 60 79 32 q 76 89 102 70 q 50 136 50 109 q 53 161 50 148 q 59 184 56 174 q 70 208 62 195 q 82 230 77 222 q 96 251 86 237 q 110 270 106 265 q 125 289 114 275 q 137 304 136 302 q 50 564 50 407 q 79 725 50 654 q 167 838 107 795 q 311 880 227 880 q 395 867 359 880 q 453 832 431 853 q 498 778 476 812 q 644 880 549 873 q 648 880 646 880 q 653 880 650 880 q 658 880 656 880 l 658 738 q 647 738 654 738 q 603 737 618 738 q 570 731 588 736 q 541 715 551 726 q 562 645 553 689 q 571 564 571 602 q 544 404 571 473 q 456 292 516 334 q 311 250 396 250 l 223 260 q 216 248 222 256 q 208 234 211 239 q 202 220 205 229 q 199 204 199 212 q 216 174 199 186 q 263 156 233 162 q 320 148 293 151 q 382 143 348 145 q 429 140 416 142 q 497 127 467 134 q 559 106 528 120 q 611 74 591 93 q 645 25 631 55 q 658 -43 658 -5 q 641 -128 658 -91 q 597 -190 625 -165 q 530 -230 569 -214 q 447 -253 490 -246 q 354 -260 404 -260 m 338 949 q 169 1013 216 949 q 121 1210 121 1076 l 251 1210 q 268 1110 251 1141 q 338 1080 284 1080 q 408 1111 391 1080 q 425 1210 425 1141 l 555 1210 q 508 1012 555 1074 q 338 949 460 949 z "},"Ġ":{"ha":813,"x_min":65,"x_max":760,"o":"m 326 1297 l 326 1470 l 499 1470 l 499 1297 l 326 1297 m 412 -12 q 268 12 329 -12 q 168 76 206 35 q 106 180 129 117 q 74 313 83 243 q 65 473 65 382 l 65 781 q 419 1227 65 1227 q 566 1202 504 1227 q 667 1128 629 1177 q 726 1014 706 1079 q 749 862 745 948 q 749 825 749 850 l 576 825 l 576 861 q 571 935 575 904 q 558 996 568 966 q 531 1044 548 1025 q 486 1074 514 1063 q 419 1085 458 1085 q 330 1066 366 1085 q 274 1009 294 1046 q 247 928 255 972 q 239 825 239 884 l 239 434 q 241 356 239 391 q 251 284 244 321 q 270 222 257 248 q 301 174 282 195 q 348 141 319 153 q 412 130 376 130 q 488 147 456 130 q 538 191 519 164 q 568 259 557 218 q 582 341 578 300 q 586 434 586 382 l 586 477 l 412 477 l 412 606 l 760 606 l 760 0 l 629 0 l 586 130 q 412 -12 535 -12 z "},"ġ":{"ha":656,"x_min":7,"x_max":658,"o":"m 251 949 l 251 1123 l 425 1123 l 425 949 l 251 949 m 202 564 q 311 380 202 380 q 419 564 419 380 q 414 633 419 602 q 398 695 410 665 q 364 742 387 725 q 311 760 342 760 q 256 742 279 760 q 223 695 234 725 q 207 633 212 665 q 202 564 202 602 m 354 -132 q 387 -131 372 -132 q 420 -128 401 -130 q 453 -122 439 -126 q 480 -111 467 -117 q 499 -93 492 -104 q 506 -67 506 -81 q 367 22 506 5 l 224 39 q 179 -16 197 20 q 160 -92 160 -52 q 168 -110 160 -102 q 190 -122 175 -118 q 219 -129 204 -126 q 256 -132 235 -132 q 292 -133 277 -133 q 327 -132 307 -133 q 354 -132 347 -132 m 354 -260 q 301 -259 321 -260 q 245 -258 281 -259 q 186 -253 210 -256 q 132 -243 163 -249 q 82 -228 102 -237 q 43 -205 62 -218 q 16 -174 25 -193 q 7 -132 7 -155 q 43 -16 7 -64 q 137 60 79 32 q 76 89 102 70 q 50 136 50 109 q 53 161 50 148 q 59 184 56 174 q 70 208 62 195 q 82 230 77 222 q 96 251 86 237 q 110 270 106 265 q 125 289 114 275 q 137 304 136 302 q 50 564 50 407 q 79 725 50 654 q 167 838 107 795 q 311 880 227 880 q 395 867 359 880 q 453 832 431 853 q 498 778 476 812 q 644 880 549 873 q 648 880 646 880 q 653 880 650 880 q 658 880 656 880 l 658 738 q 647 738 654 738 q 603 737 618 738 q 570 731 588 736 q 541 715 551 726 q 562 645 553 689 q 571 564 571 602 q 544 404 571 473 q 456 292 516 334 q 311 250 396 250 l 223 260 q 216 248 222 256 q 208 234 211 239 q 202 220 205 229 q 199 204 199 212 q 216 174 199 186 q 263 156 233 162 q 320 148 293 151 q 382 143 348 145 q 429 140 416 142 q 497 127 467 134 q 559 106 528 120 q 611 74 591 93 q 645 25 631 55 q 658 -43 658 -5 q 641 -128 658 -91 q 597 -190 625 -165 q 530 -230 569 -214 q 447 -253 490 -246 q 354 -260 404 -260 z "},"Ģ":{"ha":813,"x_min":65,"x_max":760,"o":"m 412 -12 q 268 12 329 -12 q 168 76 206 35 q 106 180 129 117 q 74 313 83 243 q 65 473 65 382 l 65 781 q 419 1227 65 1227 q 566 1202 504 1227 q 667 1128 629 1177 q 726 1014 706 1079 q 749 862 745 948 q 749 825 749 850 l 576 825 l 576 861 q 571 935 575 904 q 558 996 568 966 q 531 1044 548 1025 q 486 1074 514 1063 q 419 1085 458 1085 q 330 1066 366 1085 q 274 1009 294 1046 q 247 928 255 972 q 239 825 239 884 l 239 434 q 241 356 239 391 q 251 284 244 321 q 270 222 257 248 q 301 174 282 195 q 348 141 319 153 q 412 130 376 130 q 488 147 456 130 q 538 191 519 164 q 568 259 557 218 q 582 341 578 300 q 586 434 586 382 l 586 477 l 412 477 l 412 606 l 760 606 l 760 0 l 629 0 l 586 130 q 412 -12 535 -12 z "},"ģ":{"ha":660,"x_min":22,"x_max":673,"o":"m 218 564 q 326 380 218 380 q 435 564 435 380 q 430 633 435 602 q 414 695 425 665 q 380 742 402 725 q 326 760 357 760 q 272 742 294 760 q 238 695 250 725 q 222 633 227 665 q 218 564 218 602 m 252 934 q 251 988 252 954 q 250 1044 250 1023 q 250 1096 250 1065 q 254 1146 251 1126 q 262 1190 257 1166 q 278 1228 268 1213 q 301 1256 288 1242 q 336 1275 315 1269 q 382 1281 356 1281 l 425 1194 q 358 1174 378 1194 q 338 1107 338 1154 l 425 1107 l 425 934 l 252 934 m 370 -132 q 402 -131 388 -132 q 436 -128 417 -130 q 469 -122 455 -126 q 495 -111 483 -117 q 515 -93 508 -104 q 522 -67 522 -81 q 519 -45 522 -55 q 382 22 509 7 l 239 39 q 194 -16 213 20 q 176 -92 176 -52 q 183 -110 176 -102 q 205 -122 191 -118 q 235 -129 220 -126 q 271 -132 250 -132 q 307 -133 292 -133 q 342 -132 322 -133 q 370 -132 362 -132 m 370 -260 q 317 -259 337 -260 q 261 -258 296 -259 q 202 -253 226 -256 q 148 -243 178 -249 q 97 -228 117 -237 q 59 -205 77 -218 q 32 -174 41 -193 q 22 -132 22 -155 q 59 -16 22 -64 q 153 60 95 32 q 92 89 117 70 q 66 136 66 109 q 68 161 66 148 q 75 184 71 174 q 85 208 78 195 q 97 230 93 222 q 112 251 102 237 q 126 270 122 265 q 140 289 130 275 q 153 304 151 302 q 66 564 66 407 q 94 725 66 654 q 183 838 123 795 q 326 880 243 880 q 410 867 374 880 q 469 832 446 853 q 513 778 492 812 q 673 880 568 880 l 673 738 q 565 694 608 738 q 587 564 587 631 q 559 404 587 473 q 472 292 532 334 q 326 250 412 250 q 271 254 301 250 l 239 254 q 230 240 237 250 q 219 222 222 231 q 215 204 215 214 q 240 167 215 181 q 306 147 266 153 q 395 135 347 140 q 493 120 444 130 q 582 92 542 109 q 648 41 623 75 q 673 -43 673 6 q 657 -128 673 -91 q 612 -190 640 -165 q 545 -230 585 -214 q 463 -253 506 -246 q 370 -260 419 -260 z "},"Ĥ":{"ha":825,"x_min":87,"x_max":738,"o":"m 87 0 l 87 1215 l 260 1215 l 260 694 l 564 694 l 564 1215 l 738 1215 l 738 0 l 564 0 l 564 564 l 260 564 l 260 0 l 87 0 m 195 1297 l 326 1557 l 499 1557 l 629 1297 l 499 1297 l 412 1470 l 326 1297 l 195 1297 z "},"ĥ":{"ha":673,"x_min":79,"x_max":600,"o":"m 79 0 l 79 1215 l 253 1215 l 253 774 q 316 828 292 810 q 384 864 340 847 q 475 880 427 880 q 566 840 531 880 q 600 740 600 799 l 600 0 l 427 0 l 427 651 q 415 717 427 696 q 367 738 404 738 q 253 687 314 738 l 253 0 l 79 0 m 123 1284 l 253 1545 l 427 1545 l 557 1284 l 427 1284 l 340 1458 l 253 1284 l 123 1284 z "},"Ħ":{"ha":825,"x_min":20,"x_max":804,"o":"m 260 694 l 564 694 l 564 919 l 260 919 l 260 694 m 87 0 l 87 919 l 20 919 l 20 1013 l 87 1013 l 87 1215 l 260 1215 l 260 1013 l 564 1013 l 564 1215 l 738 1215 l 738 1013 l 804 1013 l 804 919 l 738 919 l 738 0 l 564 0 l 564 564 l 260 564 l 260 0 l 87 0 z "},"ħ":{"ha":694,"x_min":-1,"x_max":608,"o":"m 87 0 l 87 983 l -1 983 l -1 1086 l 87 1086 l 87 1215 l 260 1215 l 260 1086 l 374 1086 l 374 983 l 260 983 l 260 774 q 323 828 299 810 q 391 864 348 847 q 483 880 434 880 q 573 840 538 880 q 608 740 608 799 l 608 0 l 434 0 l 434 651 q 423 717 434 696 q 374 738 412 738 q 260 687 321 738 l 260 0 l 87 0 z "},"Ĩ":{"ha":368,"x_min":-58,"x_max":421,"o":"m 95 0 l 95 1215 l 269 1215 l 269 0 l 95 0 m 272 1297 q 205 1312 239 1297 q 139 1341 171 1326 q 79 1356 107 1356 q 47 1310 47 1356 l -58 1310 q -19 1442 -58 1389 q 92 1495 20 1495 q 190 1466 131 1495 q 282 1437 249 1437 q 317 1484 317 1437 l 421 1484 q 382 1351 421 1404 q 272 1297 343 1297 z "},"ĩ":{"ha":347,"x_min":-66,"x_max":413,"o":"m 87 0 l 87 868 l 260 868 l 260 0 l 87 0 m 264 949 q 197 964 231 949 q 131 994 163 979 q 71 1008 99 1008 q 39 963 39 1008 l -66 963 q -27 1095 -66 1042 q 83 1148 12 1148 q 182 1119 123 1148 q 274 1090 241 1090 q 309 1137 309 1090 l 413 1137 q 374 1003 413 1057 q 264 949 335 949 z "},"Ī":{"ha":368,"x_min":35,"x_max":329,"o":"m 95 0 l 95 1215 l 269 1215 l 269 0 l 95 0 m 35 1297 l 35 1400 l 329 1400 l 329 1297 l 35 1297 z "},"ī":{"ha":347,"x_min":26,"x_max":321,"o":"m 87 0 l 87 868 l 260 868 l 260 0 l 87 0 m 26 949 l 26 1053 l 321 1053 l 321 949 l 26 949 z "},"Ĭ":{"ha":368,"x_min":-35,"x_max":399,"o":"m 95 0 l 95 1215 l 269 1215 l 269 0 l 95 0 m 182 1297 q 13 1360 60 1297 q -35 1557 -35 1423 l 95 1557 q 112 1457 95 1488 q 182 1427 128 1427 q 252 1458 235 1427 q 269 1557 269 1489 l 399 1557 q 352 1359 399 1421 q 182 1297 304 1297 z "},"ĭ":{"ha":347,"x_min":-43,"x_max":391,"o":"m 87 0 l 87 868 l 260 868 l 260 0 l 87 0 m 174 949 q 4 1013 52 949 q -43 1210 -43 1076 l 87 1210 q 103 1110 87 1141 q 174 1080 120 1080 q 244 1111 227 1080 q 260 1210 260 1141 l 391 1210 q 343 1012 391 1074 q 174 949 296 949 z "},"Į":{"ha":368,"x_min":-35,"x_max":269,"o":"m 95 0 l 95 1215 l 269 1215 l 269 0 l 95 0 m 238 -342 q 186 -342 206 -342 q 139 -340 166 -342 q 96 -337 113 -339 q 59 -330 79 -334 q 26 -318 39 -325 q 1 -302 14 -312 q -19 -280 -12 -292 q -31 -250 -26 -267 q -35 -212 -35 -233 q 20 -73 -35 -139 q 138 12 75 -7 l 225 12 q 189 -33 221 6 q 142 -92 157 -71 q 111 -148 127 -113 q 95 -210 95 -182 q 193 -260 95 -260 q 232 -258 205 -260 q 269 -256 259 -256 l 269 -342 l 238 -342 z "},"į":{"ha":347,"x_min":-43,"x_max":260,"o":"m 87 998 l 87 1172 l 260 1172 l 260 998 l 87 998 m 87 0 l 87 868 l 260 868 l 260 0 l 87 0 m 230 -342 q 178 -342 198 -342 q 131 -340 158 -342 q 88 -337 104 -339 q 51 -330 71 -334 q 18 -318 31 -325 q -7 -302 5 -312 q -27 -280 -20 -292 q -39 -250 -35 -267 q -43 -212 -43 -233 q 12 -73 -43 -139 q 130 12 66 -7 l 217 12 q 181 -33 213 6 q 134 -92 149 -71 q 103 -148 119 -113 q 87 -210 87 -182 q 184 -260 87 -260 q 224 -258 197 -260 q 260 -256 251 -256 l 260 -342 l 230 -342 z "},"İ":{"ha":368,"x_min":95,"x_max":269,"o":"m 95 1297 l 95 1470 l 269 1470 l 269 1297 l 95 1297 m 95 0 l 95 1215 l 269 1215 l 269 0 l 95 0 z "},"ı":{"ha":347,"x_min":87,"x_max":260,"o":"m 87 0 l 87 868 l 260 868 l 260 0 l 87 0 z "},"Ĳ":{"ha":802,"x_min":95,"x_max":715,"o":"m 368 0 l 368 130 q 455 136 424 130 q 507 162 487 142 q 534 215 528 182 q 541 304 541 247 l 541 1215 l 715 1215 l 715 304 q 704 167 715 221 q 664 74 693 113 q 584 17 635 35 q 454 0 533 0 l 368 0 m 95 0 l 95 1215 l 269 1215 l 269 0 l 95 0 z "},"ĳ":{"ha":691,"x_min":87,"x_max":623,"o":"m 449 998 l 449 1172 l 623 1172 l 623 998 l 449 998 m 406 -217 q 319 -205 349 -217 l 319 -82 q 362 -87 342 -87 q 449 14 449 -87 l 449 868 l 623 868 l 623 -5 q 565 -161 623 -105 q 406 -217 507 -217 m 87 998 l 87 1172 l 260 1172 l 260 998 l 87 998 m 87 0 l 87 868 l 260 868 l 260 0 l 87 0 z "},"Ĵ":{"ha":434,"x_min":0,"x_max":452,"o":"m 0 0 l 0 130 q 88 136 56 130 q 140 162 119 142 q 167 215 160 182 q 174 304 174 247 l 174 1215 l 347 1215 l 347 304 q 336 167 347 221 q 297 74 326 113 q 217 17 268 35 q 87 0 165 0 l 0 0 m 18 1297 l 148 1557 l 321 1557 l 452 1297 l 321 1297 l 235 1470 l 148 1297 l 18 1297 z "},"ĵ":{"ha":391,"x_min":-11,"x_max":423,"o":"m 87 -217 q 0 -205 30 -217 l 0 -82 q 43 -87 24 -87 q 130 14 130 -87 l 130 868 l 304 868 l 304 -5 q 246 -161 304 -105 q 87 -217 188 -217 m -11 949 l 119 1210 l 293 1210 l 423 949 l 293 949 l 206 1123 l 119 949 l -11 949 z "},"Ķ":{"ha":758,"x_min":87,"x_max":781,"o":"m 391 -430 l 347 -343 q 414 -323 394 -343 q 434 -256 434 -302 l 347 -256 l 347 -83 l 521 -83 q 519 -247 521 -181 q 515 -309 517 -283 q 504 -358 512 -334 q 482 -398 496 -383 q 446 -421 469 -412 q 391 -430 423 -430 m 87 0 l 87 1215 l 260 1215 l 260 694 l 521 1215 l 738 1215 l 477 738 l 781 0 l 564 0 l 347 564 l 260 391 l 260 0 l 87 0 z "},"ķ":{"ha":652,"x_min":79,"x_max":644,"o":"m 318 -430 l 275 -343 q 341 -323 321 -343 q 361 -256 361 -302 l 275 -256 l 275 -83 l 448 -83 q 446 -247 448 -181 q 442 -309 445 -283 q 431 -358 439 -334 q 410 -398 423 -383 q 373 -421 396 -412 q 318 -430 351 -430 m 79 0 l 79 1215 l 253 1215 l 253 547 l 470 868 l 644 868 l 449 565 l 644 0 l 470 0 l 340 420 l 253 304 l 253 0 l 79 0 z "},"ĸ":{"ha":651,"x_min":87,"x_max":651,"o":"m 87 0 l 87 869 l 260 869 l 260 500 l 477 868 l 651 868 l 456 538 l 651 0 l 477 0 l 340 420 l 260 297 l 260 0 l 87 0 z "},"Ĺ":{"ha":558,"x_min":87,"x_max":564,"o":"m 87 0 l 87 1215 l 260 1215 l 260 130 l 564 130 l 564 0 l 87 0 m 282 1297 l 369 1557 l 543 1557 l 369 1297 l 282 1297 z "},"ĺ":{"ha":337,"x_min":80,"x_max":387,"o":"m 80 0 l 80 1215 l 254 1215 l 254 0 l 80 0 m 126 1284 l 213 1545 l 387 1545 l 213 1284 l 126 1284 z "},"Ļ":{"ha":558,"x_min":87,"x_max":564,"o":"m 282 -430 l 239 -343 q 306 -323 286 -343 q 326 -256 326 -302 l 239 -256 l 239 -83 l 412 -83 q 410 -247 412 -181 q 406 -309 409 -283 q 395 -358 404 -334 q 374 -398 387 -383 q 337 -421 360 -412 q 282 -430 315 -430 m 87 0 l 87 1215 l 260 1215 l 260 130 l 564 130 l 564 0 l 87 0 z "},"ļ":{"ha":329,"x_min":80,"x_max":254,"o":"m 123 -430 l 80 -343 q 147 -323 127 -343 q 167 -256 167 -302 l 80 -256 l 80 -83 l 254 -83 q 252 -247 254 -181 q 248 -309 250 -283 q 237 -358 245 -334 q 215 -398 229 -383 q 179 -421 201 -412 q 123 -430 156 -430 m 80 0 l 80 1215 l 254 1215 l 254 0 l 80 0 z "},"Ľ":{"ha":558,"x_min":87,"x_max":842,"o":"m 87 0 l 87 1215 l 260 1215 l 260 130 l 564 130 l 564 0 l 87 0 m 711 880 l 668 967 q 735 987 715 967 q 755 1054 755 1008 l 668 1054 l 668 1227 l 842 1227 q 840 1063 842 1130 q 836 1002 838 1027 q 825 952 833 977 q 803 912 817 927 q 767 889 789 898 q 711 880 744 880 z "},"ľ":{"ha":337,"x_min":80,"x_max":534,"o":"m 80 0 l 80 1215 l 254 1215 l 254 0 l 80 0 m 404 868 l 360 955 q 427 975 407 955 q 447 1042 447 996 l 360 1042 l 360 1215 l 534 1215 q 532 1051 534 1118 q 528 989 530 1015 q 517 940 525 964 q 495 900 509 915 q 459 877 481 886 q 404 868 436 868 z "},"Ŀ":{"ha":558,"x_min":87,"x_max":581,"o":"m 407 618 l 407 792 l 581 792 l 581 618 l 407 618 m 87 0 l 87 1215 l 260 1215 l 260 130 l 564 130 l 564 0 l 87 0 m 378 479 l 378 652 l 552 652 l 552 479 l 378 479 z "},"ŀ":{"ha":337,"x_min":80,"x_max":559,"o":"m 80 0 l 80 1215 l 254 1215 l 254 0 l 80 0 m 386 479 l 386 652 l 559 652 l 559 479 l 386 479 z "},"Ł":{"ha":641,"x_min":33,"x_max":597,"o":"m 120 0 l 120 582 l 33 534 l 33 673 l 120 722 l 120 1215 l 294 1215 l 294 819 l 474 919 l 474 779 l 294 679 l 294 130 l 597 130 l 597 0 l 120 0 z "},"ł":{"ha":352,"x_min":8,"x_max":377,"o":"m 96 0 l 96 787 l 8 746 l 8 876 l 96 917 l 96 1215 l 270 1215 l 270 996 l 377 1046 l 377 913 l 270 866 l 270 0 l 96 0 z "},"Ń":{"ha":781,"x_min":87,"x_max":694,"o":"m 87 0 l 87 1215 l 217 1215 l 521 464 l 521 1215 l 694 1215 l 694 0 l 571 0 l 260 808 l 260 0 l 87 0 m 347 1297 l 434 1557 l 608 1557 l 434 1297 l 347 1297 z "},"ń":{"ha":673,"x_min":79,"x_max":600,"o":"m 79 0 l 79 868 l 253 868 l 253 774 q 316 828 292 810 q 384 864 340 847 q 475 880 427 880 q 566 840 531 880 q 600 740 600 799 l 600 0 l 427 0 l 427 651 q 414 717 427 696 q 361 738 401 738 q 317 729 339 738 q 284 712 295 720 q 253 687 273 704 l 253 0 l 79 0 m 296 949 l 383 1210 l 557 1210 l 383 949 l 296 949 z "},"Ņ":{"ha":781,"x_min":87,"x_max":694,"o":"m 347 -430 l 304 -343 q 371 -323 351 -343 q 391 -256 391 -302 l 304 -256 l 304 -83 l 477 -83 q 475 -247 477 -181 q 471 -309 474 -283 q 460 -358 469 -334 q 439 -398 452 -383 q 402 -421 425 -412 q 347 -430 380 -430 m 87 0 l 87 1215 l 217 1215 l 521 464 l 521 1215 l 694 1215 l 694 0 l 571 0 l 260 808 l 260 0 l 87 0 z "},"ņ":{"ha":673,"x_min":79,"x_max":600,"o":"m 296 -430 l 253 -343 q 320 -323 300 -343 q 340 -256 340 -302 l 253 -256 l 253 -83 l 427 -83 q 425 -247 427 -181 q 420 -309 423 -283 q 410 -358 418 -334 q 388 -398 401 -383 q 352 -421 374 -412 q 296 -430 329 -430 m 79 0 l 79 868 l 253 868 l 253 774 q 316 828 292 810 q 384 864 340 847 q 475 880 427 880 q 566 840 531 880 q 600 740 600 799 l 600 0 l 427 0 l 427 651 q 414 717 427 696 q 361 738 401 738 q 317 729 339 738 q 284 712 295 720 q 253 687 273 704 l 253 0 l 79 0 z "},"Ň":{"ha":781,"x_min":87,"x_max":694,"o":"m 87 0 l 87 1215 l 217 1215 l 521 464 l 521 1215 l 694 1215 l 694 0 l 571 0 l 260 808 l 260 0 l 87 0 m 304 1297 l 174 1557 l 304 1557 l 391 1383 l 477 1557 l 608 1557 l 477 1297 l 304 1297 z "},"ň":{"ha":673,"x_min":79,"x_max":600,"o":"m 79 0 l 79 868 l 253 868 l 253 774 q 316 828 292 810 q 384 864 340 847 q 475 880 427 880 q 566 840 531 880 q 600 740 600 799 l 600 0 l 427 0 l 427 651 q 414 717 427 696 q 361 738 401 738 q 317 729 339 738 q 284 712 295 720 q 253 687 273 704 l 253 0 l 79 0 m 253 949 l 123 1210 l 253 1210 l 340 1036 l 427 1210 l 557 1210 l 427 949 l 253 949 z "},"Ō":{"ha":800,"x_min":65,"x_max":735,"o":"m 400 -12 q 243 16 309 -12 q 139 97 178 43 q 83 223 100 151 q 65 391 65 295 l 65 831 q 83 998 65 927 q 139 1122 100 1069 q 243 1201 178 1175 q 400 1227 309 1227 q 656 1126 578 1227 q 735 831 735 1024 l 735 391 q 717 224 735 296 q 661 98 699 152 q 556 16 622 44 q 400 -12 491 -12 m 274 185 q 291 158 274 185 q 400 130 309 130 q 527 185 492 130 q 562 347 562 240 l 562 875 q 527 1033 562 981 q 400 1085 492 1085 q 273 1033 308 1085 q 239 875 239 981 l 239 347 q 274 185 239 240 m 253 1297 l 253 1400 l 547 1400 l 547 1297 l 253 1297 z "},"ō":{"ha":647,"x_min":63,"x_max":584,"o":"m 524 69 q 493 28 524 69 q 323 -12 463 -12 q 123 69 184 -12 q 63 304 63 151 l 63 564 q 123 799 63 718 q 323 880 184 880 q 524 799 463 880 q 584 564 584 718 l 584 304 q 524 69 584 151 m 291 136 q 298 133 291 136 q 323 130 305 130 q 356 136 342 130 q 379 149 370 141 q 394 172 388 157 q 404 199 400 187 q 408 232 407 210 q 410 266 410 254 q 410 304 410 279 l 410 564 q 410 602 410 589 q 408 636 410 614 q 404 669 407 658 q 394 696 400 681 q 379 719 388 711 q 356 732 370 727 q 323 738 342 738 q 291 732 305 738 q 268 719 277 727 q 253 696 259 711 q 243 669 247 681 q 239 636 240 658 q 237 602 237 614 q 237 564 237 589 l 237 304 q 237 266 237 279 q 239 232 237 254 q 243 199 240 210 q 253 172 247 187 q 268 149 259 157 q 291 136 277 141 m 176 949 l 176 1053 l 471 1053 l 471 949 l 176 949 z "},"Ŏ":{"ha":800,"x_min":65,"x_max":735,"o":"m 400 -12 q 243 16 309 -12 q 139 97 178 43 q 83 223 100 151 q 65 391 65 295 l 65 831 q 83 998 65 927 q 139 1122 100 1069 q 243 1201 178 1175 q 400 1227 309 1227 q 656 1126 578 1227 q 735 831 735 1024 l 735 391 q 717 224 735 296 q 661 98 699 152 q 556 16 622 44 q 400 -12 491 -12 m 274 185 q 291 158 274 185 q 400 130 309 130 q 527 185 492 130 q 562 347 562 240 l 562 875 q 527 1033 562 981 q 400 1085 492 1085 q 273 1033 308 1085 q 239 875 239 981 l 239 347 q 274 185 239 240 m 400 1297 q 231 1360 279 1297 q 183 1557 183 1423 l 313 1557 q 330 1457 313 1488 q 400 1427 347 1427 q 470 1458 454 1427 q 487 1557 487 1489 l 617 1557 q 570 1359 617 1421 q 400 1297 523 1297 z "},"ŏ":{"ha":647,"x_min":63,"x_max":584,"o":"m 524 69 q 493 28 524 69 q 323 -12 463 -12 q 123 69 184 -12 q 63 304 63 151 l 63 564 q 123 799 63 718 q 323 880 184 880 q 524 799 463 880 q 584 564 584 718 l 584 304 q 524 69 584 151 m 291 136 q 298 133 291 136 q 323 130 305 130 q 356 136 342 130 q 379 149 370 141 q 394 172 388 157 q 404 199 400 187 q 408 232 407 210 q 410 266 410 254 q 410 304 410 279 l 410 564 q 410 602 410 589 q 408 636 410 614 q 404 669 407 658 q 394 696 400 681 q 379 719 388 711 q 356 732 370 727 q 323 738 342 738 q 291 732 305 738 q 268 719 277 727 q 253 696 259 711 q 243 669 247 681 q 239 636 240 658 q 237 602 237 614 q 237 564 237 589 l 237 304 q 237 266 237 279 q 239 232 237 254 q 243 199 240 210 q 253 172 247 187 q 268 149 259 157 q 291 136 277 141 m 323 949 q 154 1013 202 949 q 106 1210 106 1076 l 237 1210 q 253 1110 237 1141 q 323 1080 270 1080 q 394 1111 377 1080 q 410 1210 410 1141 l 541 1210 q 493 1012 541 1074 q 323 949 446 949 z "},"Ő":{"ha":800,"x_min":65,"x_max":735,"o":"m 400 -12 q 243 16 309 -12 q 139 97 178 43 q 83 223 100 151 q 65 391 65 295 l 65 831 q 83 998 65 927 q 139 1122 100 1069 q 243 1201 178 1175 q 400 1227 309 1227 q 656 1126 578 1227 q 735 831 735 1024 l 735 391 q 717 224 735 296 q 661 98 699 152 q 556 16 622 44 q 400 -12 491 -12 m 274 185 q 291 158 274 185 q 400 130 309 130 q 527 185 492 130 q 562 347 562 240 l 562 875 q 527 1033 562 981 q 400 1085 492 1085 q 273 1033 308 1085 q 239 875 239 981 l 239 347 q 274 185 239 240 m 456 1297 l 543 1557 l 717 1557 l 543 1297 l 456 1297 m 257 1297 l 317 1557 l 456 1557 l 344 1297 l 257 1297 z "},"ő":{"ha":647,"x_min":63,"x_max":640,"o":"m 524 69 q 493 28 524 69 q 323 -12 463 -12 q 123 69 184 -12 q 63 304 63 151 l 63 564 q 123 799 63 718 q 323 880 184 880 q 524 799 463 880 q 584 564 584 718 l 584 304 q 524 69 584 151 m 291 136 q 298 133 291 136 q 323 130 305 130 q 356 136 342 130 q 379 149 370 141 q 394 172 388 157 q 404 199 400 187 q 408 232 407 210 q 410 266 410 254 q 410 304 410 279 l 410 564 q 410 602 410 589 q 408 636 410 614 q 404 669 407 658 q 394 696 400 681 q 379 719 388 711 q 356 732 370 727 q 323 738 342 738 q 291 732 305 738 q 268 719 277 727 q 253 696 259 711 q 243 669 247 681 q 239 636 240 658 q 237 602 237 614 q 237 564 237 589 l 237 304 q 237 266 237 279 q 239 232 237 254 q 243 199 240 210 q 253 172 247 187 q 268 149 259 157 q 291 136 277 141 m 380 949 l 467 1210 l 640 1210 l 467 949 l 380 949 m 180 949 l 240 1210 l 380 1210 l 267 949 l 180 949 z "},"Œ":{"ha":1128,"x_min":87,"x_max":1085,"o":"m 301 186 q 321 158 301 186 q 434 130 341 130 q 567 186 527 130 q 608 347 608 243 l 608 878 q 566 1031 606 977 q 434 1085 525 1085 q 301 1029 341 1085 q 260 868 260 972 l 260 347 q 301 186 260 243 m 434 -12 q 87 391 87 -12 l 87 825 q 434 1227 87 1227 q 608 1128 553 1227 l 608 1215 l 1085 1215 l 1085 1085 l 781 1085 l 781 694 l 998 694 l 998 564 l 781 564 l 781 130 l 1085 130 l 1085 0 l 608 0 l 608 87 q 434 -12 556 -12 z "},"œ":{"ha":1042,"x_min":87,"x_max":955,"o":"m 608 521 l 781 521 q 781 529 781 524 q 781 569 781 555 q 779 609 781 583 q 775 649 778 635 q 765 683 772 664 q 750 713 759 703 q 727 730 741 723 q 695 738 713 738 q 666 733 679 738 q 644 717 653 728 q 629 695 635 706 q 618 665 623 684 q 612 633 614 646 q 609 597 610 620 q 608 562 608 574 q 608 527 608 549 q 608 521 608 523 m 315 136 q 322 133 315 136 q 347 130 329 130 q 379 136 366 130 q 402 149 393 141 q 418 172 412 157 q 427 199 424 187 q 432 232 431 210 q 434 266 433 254 q 434 304 434 279 l 434 564 q 434 602 434 589 q 432 636 433 614 q 427 669 431 658 q 418 696 424 681 q 402 719 412 711 q 379 732 393 727 q 347 738 366 738 q 315 732 329 738 q 292 719 301 727 q 277 696 283 711 q 267 669 271 681 q 262 636 264 658 q 261 602 261 614 q 260 564 260 589 l 260 304 q 261 266 260 279 q 262 232 261 254 q 267 199 264 210 q 277 172 271 187 q 292 149 283 157 q 315 136 301 141 m 347 -12 q 147 69 208 -12 q 87 304 87 151 l 87 564 q 147 799 87 718 q 347 880 208 880 q 521 781 467 880 q 695 880 571 880 q 792 866 750 880 q 863 822 835 851 q 910 756 891 792 q 938 668 928 720 q 951 568 947 617 q 955 454 955 518 l 955 434 l 608 434 l 608 391 q 608 363 608 382 q 607 311 606 338 q 610 258 608 284 q 617 209 611 233 q 632 168 623 186 q 657 140 641 151 q 694 130 673 130 q 727 136 713 130 q 750 149 741 142 q 766 172 760 156 q 775 198 772 187 q 780 231 778 208 q 781 266 781 254 q 781 304 781 277 l 955 304 q 893 68 955 148 q 694 -12 832 -12 q 521 87 572 -12 q 347 -12 469 -12 z "},"Ŕ":{"ha":751,"x_min":87,"x_max":738,"o":"m 260 694 l 304 694 q 467 740 412 694 q 521 890 521 786 q 467 1039 521 994 q 304 1085 412 1085 l 260 1085 l 260 694 m 87 0 l 87 1215 l 304 1215 q 596 1140 498 1215 q 694 890 694 1065 q 656 708 694 781 q 543 608 617 635 l 738 0 l 566 0 l 391 564 l 260 564 l 260 0 l 87 0 m 369 1297 l 456 1557 l 629 1557 l 456 1297 l 369 1297 z "},"ŕ":{"ha":461,"x_min":79,"x_max":492,"o":"m 79 0 l 79 868 l 253 868 l 253 752 q 330 842 279 804 q 442 880 380 880 q 470 878 444 880 l 470 686 q 374 705 422 705 q 286 672 319 705 q 253 586 253 640 l 253 0 l 79 0 m 231 949 l 318 1210 l 492 1210 l 318 949 l 231 949 z "},"Ŗ":{"ha":751,"x_min":87,"x_max":738,"o":"m 369 -430 l 326 -343 q 392 -323 372 -343 q 412 -256 412 -302 l 326 -256 l 326 -83 l 499 -83 q 497 -247 499 -181 q 493 -309 496 -283 q 482 -358 490 -334 q 460 -398 474 -383 q 424 -421 447 -412 q 369 -430 401 -430 m 260 694 l 304 694 q 467 740 412 694 q 521 890 521 786 q 467 1039 521 994 q 304 1085 412 1085 l 260 1085 l 260 694 m 87 0 l 87 1215 l 304 1215 q 596 1140 498 1215 q 694 890 694 1065 q 656 708 694 781 q 543 608 617 635 l 738 0 l 566 0 l 391 564 l 260 564 l 260 0 l 87 0 z "},"ŗ":{"ha":470,"x_min":79,"x_max":470,"o":"m 123 -430 l 79 -343 q 146 -323 126 -343 q 166 -256 166 -302 l 79 -256 l 79 -83 l 253 -83 q 251 -247 253 -181 q 247 -309 250 -283 q 236 -358 244 -334 q 214 -398 228 -383 q 178 -421 201 -412 q 123 -430 155 -430 m 79 0 l 79 868 l 253 868 l 253 752 q 330 842 279 804 q 442 880 380 880 q 470 878 444 880 l 470 686 q 374 705 422 705 q 286 672 319 705 q 253 586 253 640 l 253 0 l 79 0 z "},"Ř":{"ha":751,"x_min":87,"x_max":738,"o":"m 260 694 l 304 694 q 467 740 412 694 q 521 890 521 786 q 467 1039 521 994 q 304 1085 412 1085 l 260 1085 l 260 694 m 87 0 l 87 1215 l 304 1215 q 596 1140 498 1215 q 694 890 694 1065 q 656 708 694 781 q 543 608 617 635 l 738 0 l 566 0 l 391 564 l 260 564 l 260 0 l 87 0 m 326 1297 l 195 1557 l 326 1557 l 412 1383 l 499 1557 l 629 1557 l 499 1297 l 326 1297 z "},"ř":{"ha":461,"x_min":58,"x_max":492,"o":"m 79 0 l 79 868 l 253 868 l 253 752 q 330 842 279 804 q 442 880 380 880 q 470 878 444 880 l 470 686 q 374 705 422 705 q 286 672 319 705 q 253 586 253 640 l 253 0 l 79 0 m 188 949 l 58 1210 l 188 1210 l 275 1036 l 361 1210 l 492 1210 l 361 949 l 188 949 z "},"Ś":{"ha":747,"x_min":56,"x_max":707,"o":"m 404 -12 q 153 84 239 -12 q 56 347 66 180 l 230 391 q 404 130 243 130 q 534 260 534 130 q 523 332 534 299 q 491 392 513 365 q 452 436 469 420 q 404 477 434 453 l 186 651 q 91 770 127 698 q 56 935 56 842 q 139 1148 56 1069 q 360 1227 222 1227 q 595 1155 508 1227 q 703 951 682 1083 q 707 911 705 937 l 534 868 q 530 903 533 880 q 478 1035 519 985 q 360 1085 438 1085 q 264 1050 298 1085 q 230 953 230 1015 q 317 781 230 850 l 534 608 q 707 272 707 467 q 625 63 707 138 q 404 -12 543 -12 m 338 1297 l 425 1557 l 598 1557 l 425 1297 l 338 1297 z "},"ś":{"ha":594,"x_min":47,"x_max":568,"o":"m 307 -12 q 135 52 200 -12 q 47 217 71 115 l 177 260 q 307 130 224 130 q 371 153 349 130 q 394 217 394 176 q 351 317 394 277 l 177 448 q 128 485 148 467 q 88 527 109 502 q 57 583 68 552 q 47 651 47 614 q 118 821 47 762 q 307 880 189 880 q 409 862 363 880 q 485 812 454 844 q 536 740 516 779 q 568 651 556 700 l 437 608 q 418 652 428 633 q 393 692 409 671 q 355 726 377 714 q 307 738 334 738 q 243 715 266 738 q 220 651 220 692 q 264 578 220 610 l 437 448 q 487 403 467 425 q 528 354 508 382 q 557 291 547 326 q 568 217 568 256 q 497 47 568 106 q 307 -12 426 -12 m 271 949 l 358 1210 l 532 1210 l 358 949 l 271 949 z "},"Ŝ":{"ha":747,"x_min":56,"x_max":707,"o":"m 404 -12 q 153 84 239 -12 q 56 347 66 180 l 230 391 q 404 130 243 130 q 534 260 534 130 q 523 332 534 299 q 491 392 513 365 q 452 436 469 420 q 404 477 434 453 l 186 651 q 91 770 127 698 q 56 935 56 842 q 139 1148 56 1069 q 360 1227 222 1227 q 595 1155 508 1227 q 703 951 682 1083 q 707 911 705 937 l 534 868 q 530 903 533 880 q 478 1035 519 985 q 360 1085 438 1085 q 264 1050 298 1085 q 230 953 230 1015 q 317 781 230 850 l 534 608 q 707 272 707 467 q 625 63 707 138 q 404 -12 543 -12 m 164 1297 l 294 1557 l 468 1557 l 598 1297 l 468 1297 l 381 1470 l 294 1297 l 164 1297 z "},"ŝ":{"ha":594,"x_min":47,"x_max":568,"o":"m 307 -12 q 135 52 200 -12 q 47 217 71 115 l 177 260 q 307 130 224 130 q 371 153 349 130 q 394 217 394 176 q 351 317 394 277 l 177 448 q 128 485 148 467 q 88 527 109 502 q 57 583 68 552 q 47 651 47 614 q 118 821 47 762 q 307 880 189 880 q 409 862 363 880 q 485 812 454 844 q 536 740 516 779 q 568 651 556 700 l 437 608 q 418 652 428 633 q 393 692 409 671 q 355 726 377 714 q 307 738 334 738 q 243 715 266 738 q 220 651 220 692 q 264 578 220 610 l 437 448 q 487 403 467 425 q 528 354 508 382 q 557 291 547 326 q 568 217 568 256 q 497 47 568 106 q 307 -12 426 -12 m 98 949 l 228 1210 l 401 1210 l 532 949 l 401 949 l 315 1123 l 228 949 l 98 949 z "},"Ş":{"ha":747,"x_min":56,"x_max":707,"o":"m 404 -12 q 153 84 239 -12 q 56 347 66 180 l 230 391 q 404 130 243 130 q 534 260 534 130 q 523 332 534 299 q 491 392 513 365 q 452 436 469 420 q 404 477 434 453 l 186 651 q 91 770 127 698 q 56 935 56 842 q 139 1148 56 1069 q 360 1227 222 1227 q 595 1155 508 1227 q 703 951 682 1083 q 707 911 705 937 l 534 868 q 530 903 533 880 q 478 1035 519 985 q 360 1085 438 1085 q 264 1050 298 1085 q 230 953 230 1015 q 317 781 230 850 l 534 608 q 707 272 707 467 q 625 63 707 138 q 404 -12 543 -12 m 294 -348 l 294 -261 q 329 -262 304 -261 q 368 -262 354 -262 q 441 -253 414 -262 q 468 -218 468 -244 q 463 -199 468 -208 q 448 -183 458 -191 q 428 -169 438 -175 q 404 -156 418 -163 q 380 -146 389 -150 q 356 -137 371 -142 q 338 -131 341 -132 l 338 -1 l 425 -1 l 425 -87 q 480 -105 456 -96 q 534 -130 503 -114 q 581 -168 564 -145 q 598 -218 598 -190 q 591 -263 598 -243 q 571 -297 583 -283 q 540 -320 559 -311 q 502 -335 521 -330 q 455 -343 483 -340 q 405 -347 427 -347 q 352 -348 383 -348 l 294 -348 z "},"ş":{"ha":594,"x_min":47,"x_max":568,"o":"m 307 -12 q 135 52 200 -12 q 47 217 71 115 l 177 260 q 307 130 224 130 q 371 153 349 130 q 394 217 394 176 q 351 317 394 277 l 177 448 q 128 485 148 467 q 88 527 109 502 q 57 583 68 552 q 47 651 47 614 q 118 821 47 762 q 307 880 189 880 q 409 862 363 880 q 485 812 454 844 q 536 740 516 779 q 568 651 556 700 l 437 608 q 418 652 428 633 q 393 692 409 671 q 355 726 377 714 q 307 738 334 738 q 243 715 266 738 q 220 651 220 692 q 264 578 220 610 l 437 448 q 487 403 467 425 q 528 354 508 382 q 557 291 547 326 q 568 217 568 256 q 497 47 568 106 q 307 -12 426 -12 m 228 -348 l 228 -261 q 263 -262 238 -261 q 301 -262 288 -262 q 374 -253 347 -262 q 401 -218 401 -244 q 396 -199 401 -208 q 381 -183 391 -191 q 362 -169 372 -175 q 337 -156 352 -163 q 313 -146 322 -150 q 290 -137 304 -142 q 271 -131 275 -132 l 271 -1 l 358 -1 l 358 -87 q 413 -105 390 -96 q 467 -130 437 -114 q 515 -168 498 -145 q 532 -218 532 -190 q 524 -263 532 -243 q 505 -297 517 -283 q 474 -320 493 -311 q 435 -335 454 -330 q 389 -343 416 -340 q 339 -347 361 -347 q 286 -348 317 -348 l 228 -348 z "},"Š":{"ha":747,"x_min":56,"x_max":707,"o":"m 404 -12 q 153 84 239 -12 q 56 347 66 180 l 230 391 q 404 130 243 130 q 534 260 534 130 q 523 332 534 299 q 491 392 513 365 q 452 436 469 420 q 404 477 434 453 l 186 651 q 91 770 127 698 q 56 935 56 842 q 139 1148 56 1069 q 360 1227 222 1227 q 595 1155 508 1227 q 703 951 682 1083 q 707 911 705 937 l 534 868 q 530 903 533 880 q 478 1035 519 985 q 360 1085 438 1085 q 264 1050 298 1085 q 230 953 230 1015 q 317 781 230 850 l 534 608 q 707 272 707 467 q 625 63 707 138 q 404 -12 543 -12 m 294 1297 l 164 1557 l 294 1557 l 381 1383 l 468 1557 l 598 1557 l 468 1297 l 294 1297 z "},"š":{"ha":594,"x_min":47,"x_max":568,"o":"m 307 -12 q 135 52 200 -12 q 47 217 71 115 l 177 260 q 307 130 224 130 q 371 153 349 130 q 394 217 394 176 q 351 317 394 277 l 177 448 q 128 485 148 467 q 88 527 109 502 q 57 583 68 552 q 47 651 47 614 q 118 821 47 762 q 307 880 189 880 q 409 862 363 880 q 485 812 454 844 q 536 740 516 779 q 568 651 556 700 l 437 608 q 418 652 428 633 q 393 692 409 671 q 355 726 377 714 q 307 738 334 738 q 243 715 266 738 q 220 651 220 692 q 264 578 220 610 l 437 448 q 487 403 467 425 q 528 354 508 382 q 557 291 547 326 q 568 217 568 256 q 497 47 568 106 q 307 -12 426 -12 m 228 949 l 98 1210 l 228 1210 l 315 1036 l 401 1210 l 532 1210 l 401 949 l 228 949 z "},"Ţ":{"ha":606,"x_min":-1,"x_max":607,"o":"m 216 -336 l 216 -249 q 251 -250 227 -249 q 290 -250 276 -250 q 363 -241 336 -250 q 390 -205 390 -232 q 385 -187 390 -196 q 370 -171 380 -178 q 350 -157 360 -163 q 326 -144 340 -151 q 302 -134 311 -138 q 278 -125 293 -130 q 260 -119 263 -120 l 260 12 l 347 12 l 347 -75 q 402 -93 378 -84 q 456 -117 425 -102 q 503 -155 486 -133 q 520 -205 520 -178 q 513 -251 520 -231 q 493 -285 505 -271 q 462 -308 481 -298 q 424 -323 443 -317 q 377 -331 405 -328 q 327 -335 349 -334 q 274 -336 305 -336 l 216 -336 m 216 0 l 216 1061 l -1 1061 l -1 1215 l 607 1215 l 607 1061 l 390 1061 l 390 0 l 216 0 z "},"ţ":{"ha":475,"x_min":37,"x_max":449,"o":"m 145 -348 l 145 -261 q 180 -262 155 -261 q 218 -262 205 -262 q 292 -253 264 -262 q 319 -218 319 -244 q 314 -199 319 -208 q 299 -183 309 -191 q 279 -169 289 -175 q 254 -156 269 -163 q 231 -146 239 -150 q 207 -137 222 -142 q 189 -131 192 -132 l 189 -1 l 275 -1 l 275 -87 q 331 -105 307 -96 q 385 -130 354 -114 q 432 -168 415 -145 q 449 -218 449 -190 q 441 -263 449 -243 q 422 -297 434 -283 q 391 -320 410 -311 q 353 -335 372 -330 q 306 -343 334 -340 q 256 -347 278 -347 q 203 -348 234 -348 l 145 -348 m 320 -12 q 171 40 218 -12 q 123 198 125 92 l 123 738 l 37 738 l 37 868 l 123 868 l 123 1172 l 297 1172 l 297 868 l 427 868 l 427 738 l 297 738 l 297 231 q 311 155 297 179 q 369 130 326 130 q 427 137 388 130 l 427 -4 q 320 -12 362 -12 z "},"Ť":{"ha":606,"x_min":-1,"x_max":607,"o":"m 216 0 l 216 1061 l -1 1061 l -1 1215 l 607 1215 l 607 1061 l 390 1061 l 390 0 l 216 0 m 216 1297 l 86 1557 l 216 1557 l 303 1383 l 390 1557 l 520 1557 l 390 1297 l 216 1297 z "},"ť":{"ha":446,"x_min":37,"x_max":696,"o":"m 320 -12 q 171 40 218 -12 q 123 198 125 92 l 123 738 l 37 738 l 37 868 l 123 868 l 123 1172 l 297 1172 l 297 868 l 427 868 l 427 738 l 297 738 l 297 231 q 311 155 297 179 q 369 130 326 130 q 427 137 388 130 l 427 -4 q 320 -12 362 -12 m 566 825 l 522 911 q 589 932 569 911 q 609 998 609 952 l 522 998 l 522 1172 l 696 1172 q 694 1008 696 1074 q 690 946 692 971 q 679 896 687 921 q 657 857 671 871 q 621 833 644 842 q 566 825 598 825 z "},"Ũ":{"ha":849,"x_min":77,"x_max":772,"o":"m 564 8 q 534 -2 564 8 q 425 -13 504 -13 q 285 8 345 -13 q 185 67 224 29 q 122 161 146 104 q 87 284 98 218 q 77 434 77 351 l 77 1215 l 251 1215 l 251 434 q 253 340 251 378 q 266 259 256 302 q 294 190 276 216 q 345 147 312 164 q 425 130 378 130 q 504 147 471 130 q 555 190 537 164 q 583 259 573 216 q 596 340 593 302 q 598 434 598 378 l 598 1215 l 772 1215 l 772 434 q 762 284 772 351 q 727 161 751 218 q 664 67 703 104 q 564 8 625 29 m 515 1297 q 448 1312 482 1297 q 382 1341 414 1326 q 322 1356 350 1356 q 290 1310 290 1356 l 185 1310 q 224 1442 185 1389 q 334 1495 263 1495 q 433 1466 374 1495 q 525 1437 492 1437 q 559 1484 559 1437 l 664 1484 q 625 1351 664 1404 q 515 1297 586 1297 z "},"ũ":{"ha":669,"x_min":77,"x_max":598,"o":"m 203 -12 q 112 28 146 -12 q 77 128 77 68 l 77 868 l 251 868 l 251 181 q 268 137 251 154 q 311 120 284 120 q 338 123 325 120 q 365 135 352 127 q 386 149 378 144 q 407 166 393 154 q 425 181 421 178 l 425 868 l 598 868 l 598 0 l 425 0 l 425 94 q 387 61 399 71 q 351 34 375 51 q 308 8 326 16 q 261 -6 289 1 q 203 -12 233 -12 m 428 949 q 361 964 395 949 q 295 994 327 979 q 235 1008 263 1008 q 203 963 203 1008 l 98 963 q 137 1095 98 1042 q 248 1148 176 1148 q 346 1119 287 1148 q 438 1090 405 1090 q 473 1137 473 1090 l 577 1137 q 538 1003 577 1057 q 428 949 499 949 z "},"Ū":{"ha":849,"x_min":77,"x_max":772,"o":"m 564 8 q 534 -2 564 8 q 425 -13 504 -13 q 285 8 345 -13 q 185 67 224 29 q 122 161 146 104 q 87 284 98 218 q 77 434 77 351 l 77 1215 l 251 1215 l 251 434 q 253 340 251 378 q 266 259 256 302 q 294 190 276 216 q 345 147 312 164 q 425 130 378 130 q 504 147 471 130 q 555 190 537 164 q 583 259 573 216 q 596 340 593 302 q 598 434 598 378 l 598 1215 l 772 1215 l 772 434 q 762 284 772 351 q 727 161 751 218 q 664 67 703 104 q 564 8 625 29 m 277 1297 l 277 1400 l 572 1400 l 572 1297 l 277 1297 z "},"ū":{"ha":669,"x_min":77,"x_max":598,"o":"m 203 -12 q 112 28 146 -12 q 77 128 77 68 l 77 868 l 251 868 l 251 181 q 268 137 251 154 q 311 120 284 120 q 338 123 325 120 q 365 135 352 127 q 386 149 378 144 q 407 166 393 154 q 425 181 421 178 l 425 868 l 598 868 l 598 0 l 425 0 l 425 94 q 387 61 399 71 q 351 34 375 51 q 308 8 326 16 q 261 -6 289 1 q 203 -12 233 -12 m 191 949 l 191 1053 l 485 1053 l 485 949 l 191 949 z "},"Ŭ":{"ha":849,"x_min":77,"x_max":772,"o":"m 564 8 q 534 -2 564 8 q 425 -13 504 -13 q 285 8 345 -13 q 185 67 224 29 q 122 161 146 104 q 87 284 98 218 q 77 434 77 351 l 77 1215 l 251 1215 l 251 434 q 253 340 251 378 q 266 259 256 302 q 294 190 276 216 q 345 147 312 164 q 425 130 378 130 q 504 147 471 130 q 555 190 537 164 q 583 259 573 216 q 596 340 593 302 q 598 434 598 378 l 598 1215 l 772 1215 l 772 434 q 762 284 772 351 q 727 161 751 218 q 664 67 703 104 q 564 8 625 29 m 425 1297 q 255 1360 303 1297 q 208 1557 208 1423 l 338 1557 q 354 1457 338 1488 q 425 1427 371 1427 q 495 1458 478 1427 q 511 1557 511 1489 l 642 1557 q 594 1359 642 1421 q 425 1297 547 1297 z "},"ŭ":{"ha":669,"x_min":77,"x_max":598,"o":"m 203 -12 q 112 28 146 -12 q 77 128 77 68 l 77 868 l 251 868 l 251 181 q 268 137 251 154 q 311 120 284 120 q 338 123 325 120 q 365 135 352 127 q 386 149 378 144 q 407 166 393 154 q 425 181 421 178 l 425 868 l 598 868 l 598 0 l 425 0 l 425 94 q 387 61 399 71 q 351 34 375 51 q 308 8 326 16 q 261 -6 289 1 q 203 -12 233 -12 m 338 949 q 169 1013 216 949 q 121 1210 121 1076 l 251 1210 q 268 1110 251 1141 q 338 1080 284 1080 q 408 1111 391 1080 q 425 1210 425 1141 l 555 1210 q 508 1012 555 1074 q 338 949 460 949 z "},"Ů":{"ha":849,"x_min":77,"x_max":772,"o":"m 564 8 q 534 -2 564 8 q 425 -13 504 -13 q 285 8 345 -13 q 185 67 224 29 q 122 161 146 104 q 87 284 98 218 q 77 434 77 351 l 77 1215 l 251 1215 l 251 434 q 253 340 251 378 q 266 259 256 302 q 294 190 276 216 q 345 147 312 164 q 425 130 378 130 q 504 147 471 130 q 555 190 537 164 q 583 259 573 216 q 596 340 593 302 q 598 434 598 378 l 598 1215 l 772 1215 l 772 434 q 762 284 772 351 q 727 161 751 218 q 664 67 703 104 q 564 8 625 29 m 551 1344 q 527 1320 551 1344 q 425 1297 504 1297 q 298 1344 345 1297 q 251 1470 251 1392 q 298 1596 251 1549 q 425 1644 345 1644 q 551 1596 504 1644 q 598 1470 598 1549 q 551 1344 598 1392 m 361 1407 q 372 1395 361 1407 q 425 1383 384 1383 q 488 1407 465 1383 q 511 1470 511 1430 q 488 1534 511 1510 q 425 1557 465 1557 q 361 1534 384 1557 q 338 1470 338 1511 q 361 1407 338 1430 z "},"ů":{"ha":669,"x_min":77,"x_max":598,"o":"m 203 -12 q 112 28 146 -12 q 77 128 77 68 l 77 868 l 251 868 l 251 181 q 268 137 251 154 q 311 120 284 120 q 338 123 325 120 q 365 135 352 127 q 386 149 378 144 q 407 166 393 154 q 425 181 421 178 l 425 868 l 598 868 l 598 0 l 425 0 l 425 94 q 387 61 399 71 q 351 34 375 51 q 308 8 326 16 q 261 -6 289 1 q 203 -12 233 -12 m 464 997 q 441 973 464 997 q 338 949 417 949 q 211 997 258 949 q 164 1123 164 1044 q 211 1249 164 1202 q 338 1297 258 1297 q 464 1249 417 1297 q 511 1123 511 1202 q 464 997 511 1044 m 274 1059 q 286 1048 274 1059 q 338 1036 297 1036 q 401 1060 378 1036 q 425 1123 425 1083 q 401 1186 425 1163 q 338 1210 378 1210 q 274 1187 297 1210 q 251 1123 251 1164 q 274 1059 251 1082 z "},"Ű":{"ha":849,"x_min":77,"x_max":772,"o":"m 564 8 q 534 -2 564 8 q 425 -13 504 -13 q 285 8 345 -13 q 185 67 224 29 q 122 161 146 104 q 87 284 98 218 q 77 434 77 351 l 77 1215 l 251 1215 l 251 434 q 253 340 251 378 q 266 259 256 302 q 294 190 276 216 q 345 147 312 164 q 425 130 378 130 q 504 147 471 130 q 555 190 537 164 q 583 259 573 216 q 596 340 593 302 q 598 434 598 378 l 598 1215 l 772 1215 l 772 434 q 762 284 772 351 q 727 161 751 218 q 664 67 703 104 q 564 8 625 29 m 481 1297 l 568 1557 l 741 1557 l 568 1297 l 481 1297 m 281 1297 l 341 1557 l 481 1557 l 368 1297 l 281 1297 z "},"ű":{"ha":669,"x_min":77,"x_max":654,"o":"m 203 -12 q 112 28 146 -12 q 77 128 77 68 l 77 868 l 251 868 l 251 181 q 268 137 251 154 q 311 120 284 120 q 338 123 325 120 q 365 135 352 127 q 386 149 378 144 q 407 166 393 154 q 425 181 421 178 l 425 868 l 598 868 l 598 0 l 425 0 l 425 94 q 387 61 399 71 q 351 34 375 51 q 308 8 326 16 q 261 -6 289 1 q 203 -12 233 -12 m 394 949 l 481 1210 l 654 1210 l 481 949 l 394 949 m 195 949 l 254 1210 l 394 1210 l 281 949 l 195 949 z "},"Ų":{"ha":849,"x_min":77,"x_max":772,"o":"m 564 8 q 534 -2 564 8 q 425 -13 504 -13 q 285 8 345 -13 q 185 67 224 29 q 122 161 146 104 q 87 284 98 218 q 77 434 77 351 l 77 1215 l 251 1215 l 251 434 q 253 340 251 378 q 266 259 256 302 q 294 190 276 216 q 345 147 312 164 q 425 130 378 130 q 504 147 471 130 q 555 190 537 164 q 583 259 573 216 q 596 340 593 302 q 598 434 598 378 l 598 1215 l 772 1215 l 772 434 q 762 284 772 351 q 727 161 751 218 q 664 67 703 104 q 564 8 625 29 m 481 -355 q 429 -355 449 -355 q 382 -353 409 -355 q 339 -350 355 -352 q 302 -342 322 -347 q 269 -331 281 -338 q 243 -315 256 -325 q 223 -293 231 -305 q 212 -263 216 -280 q 208 -225 208 -246 q 262 -86 208 -152 q 381 -1 317 -20 l 468 -1 q 432 -45 464 -7 q 385 -105 400 -84 q 354 -161 370 -126 q 338 -222 338 -195 q 435 -273 338 -273 q 475 -271 448 -273 q 511 -269 502 -269 l 511 -355 l 481 -355 z "},"ų":{"ha":669,"x_min":77,"x_max":598,"o":"m 203 -12 q 112 28 146 -12 q 77 128 77 68 l 77 868 l 251 868 l 251 181 q 268 137 251 154 q 311 120 284 120 q 338 123 325 120 q 365 135 352 127 q 386 149 378 144 q 407 166 393 154 q 425 181 421 178 l 425 868 l 598 868 l 598 0 l 425 0 l 425 94 q 387 61 399 71 q 351 34 375 51 q 308 8 326 16 q 261 -6 289 1 q 203 -12 233 -12 m 530 -354 q 478 -354 498 -354 q 432 -352 458 -353 q 388 -348 405 -351 q 351 -341 372 -346 q 318 -330 331 -336 q 293 -314 306 -323 q 273 -291 280 -304 q 261 -262 266 -279 q 257 -224 257 -245 q 312 -84 257 -151 q 431 0 367 -18 l 517 0 q 481 -44 513 -5 q 435 -104 450 -83 q 404 -159 420 -125 q 387 -221 387 -194 q 485 -271 387 -271 q 525 -269 498 -271 q 561 -267 551 -267 l 561 -354 l 530 -354 z "},"Ŵ":{"ha":1057,"x_min":7,"x_max":1049,"o":"m 224 0 l 7 1215 l 181 1215 l 268 651 l 312 304 l 355 651 l 441 1215 l 615 1215 l 702 651 l 745 304 l 789 651 l 876 1215 l 1049 1215 l 832 0 l 659 0 l 572 564 l 528 911 l 485 564 l 398 0 l 224 0 m 311 1297 l 441 1557 l 615 1557 l 745 1297 l 615 1297 l 528 1470 l 441 1297 l 311 1297 z "},"ŵ":{"ha":861,"x_min":14,"x_max":855,"o":"m 174 0 l 14 868 l 168 868 l 264 209 l 355 868 l 513 868 l 606 216 l 701 868 l 855 868 l 687 0 l 527 0 l 435 598 l 341 0 l 174 0 m 213 949 l 343 1210 l 517 1210 l 647 949 l 517 949 l 430 1123 l 343 949 l 213 949 z "},"Ŷ":{"ha":690,"x_min":-2,"x_max":692,"o":"m 258 0 l 258 391 l -2 1215 l 172 1215 l 345 608 l 519 1215 l 692 1215 l 432 391 l 432 0 l 258 0 m 128 1297 l 258 1557 l 432 1557 l 562 1297 l 432 1297 l 345 1470 l 258 1297 l 128 1297 z "},"ŷ":{"ha":571,"x_min":14,"x_max":578,"o":"m 57 -217 l 57 -87 q 139 -80 109 -87 q 186 -56 170 -73 q 206 -18 201 -39 q 210 39 210 3 l 14 868 l 187 868 q 296 260 288 310 q 329 453 311 352 q 369 677 347 555 q 404 868 392 800 l 578 868 l 361 -43 q 269 -177 339 -138 q 75 -217 199 -217 l 57 -217 m 72 949 l 202 1210 l 376 1210 l 506 949 l 376 949 l 289 1123 l 202 949 l 72 949 z "},"Ÿ":{"ha":690,"x_min":-2,"x_max":692,"o":"m 258 0 l 258 391 l -2 1215 l 172 1215 l 345 608 l 519 1215 l 692 1215 l 432 391 l 432 0 l 258 0 m 389 1297 l 389 1470 l 562 1470 l 562 1297 l 389 1297 m 128 1297 l 128 1470 l 302 1470 l 302 1297 l 128 1297 z "},"Ź":{"ha":645,"x_min":42,"x_max":606,"o":"m 42 0 l 42 130 l 433 1085 l 85 1085 l 85 1215 l 606 1215 l 606 1085 l 216 130 l 606 130 l 606 0 l 42 0 m 281 1297 l 368 1557 l 541 1557 l 368 1297 l 281 1297 z "},"ź":{"ha":530,"x_min":48,"x_max":526,"o":"m 48 0 l 48 130 l 352 738 l 92 738 l 92 868 l 526 868 l 526 738 l 222 130 l 526 130 l 526 0 l 48 0 m 223 949 l 310 1210 l 484 1210 l 310 949 l 223 949 z "},"Ż":{"ha":645,"x_min":42,"x_max":606,"o":"m 237 1297 l 237 1470 l 411 1470 l 411 1297 l 237 1297 m 42 0 l 42 130 l 433 1085 l 85 1085 l 85 1215 l 606 1215 l 606 1085 l 216 130 l 606 130 l 606 0 l 42 0 z "},"ż":{"ha":530,"x_min":48,"x_max":526,"o":"m 180 949 l 180 1123 l 353 1123 l 353 949 l 180 949 m 48 0 l 48 130 l 352 738 l 92 738 l 92 868 l 526 868 l 526 738 l 222 130 l 526 130 l 526 0 l 48 0 z "},"Ž":{"ha":645,"x_min":42,"x_max":606,"o":"m 42 0 l 42 130 l 433 1085 l 85 1085 l 85 1215 l 606 1215 l 606 1085 l 216 130 l 606 130 l 606 0 l 42 0 m 237 1297 l 107 1557 l 237 1557 l 324 1383 l 411 1557 l 541 1557 l 411 1297 l 237 1297 z "},"ž":{"ha":530,"x_min":48,"x_max":526,"o":"m 48 0 l 48 130 l 352 738 l 92 738 l 92 868 l 526 868 l 526 738 l 222 130 l 526 130 l 526 0 l 48 0 m 180 949 l 50 1210 l 180 1210 l 267 1036 l 353 1210 l 484 1210 l 353 949 l 180 949 z "},"ƒ":{"ha":477,"x_min":0,"x_max":434,"o":"m 107 -174 q 0 -165 65 -174 l 0 -37 q 58 -43 41 -43 q 116 -16 102 -43 q 130 65 130 12 l 130 738 l 38 738 l 38 868 l 130 868 l 130 911 q 135 1002 130 964 q 152 1074 139 1040 q 186 1128 164 1107 q 242 1160 208 1148 q 327 1172 277 1172 q 434 1164 369 1172 l 434 1035 q 406 1039 427 1036 q 376 1042 385 1042 q 318 1014 332 1042 q 304 933 304 987 l 304 868 l 429 868 l 429 738 l 304 738 l 304 87 q 299 -4 304 33 q 283 -76 295 -42 q 249 -130 271 -110 q 192 -162 227 -151 q 107 -174 157 -174 z "},"Ǆ":{"ha":1413,"x_min":87,"x_max":1375,"o":"m 810 0 l 810 130 l 1201 1085 l 854 1085 l 854 1215 l 1375 1215 l 1375 1085 l 984 130 l 1375 130 l 1375 0 l 810 0 m 1006 1297 l 876 1557 l 1006 1557 l 1093 1383 l 1179 1557 l 1310 1557 l 1179 1297 l 1006 1297 m 87 0 l 87 1215 l 356 1215 q 625 1137 547 1215 q 703 868 703 1059 l 703 391 q 624 95 703 191 q 355 0 544 0 l 87 0 m 260 130 l 356 130 q 429 138 399 130 q 479 166 460 146 q 509 206 498 187 q 524 264 519 224 q 529 329 528 303 q 530 408 530 354 q 530 434 530 425 l 530 825 q 529 878 530 858 q 527 924 529 897 q 522 966 526 951 q 513 1001 519 982 q 497 1031 507 1021 q 475 1054 488 1042 q 445 1072 462 1066 q 404 1081 427 1078 q 353 1085 381 1085 l 260 1085 l 260 130 z "},"ǅ":{"ha":1299,"x_min":87,"x_max":1294,"o":"m 817 0 l 817 130 l 1120 738 l 860 738 l 860 868 l 1294 868 l 1294 738 l 990 130 l 1294 130 l 1294 0 l 817 0 m 948 949 l 818 1210 l 948 1210 l 1035 1036 l 1122 1210 l 1252 1210 l 1122 949 l 948 949 m 87 0 l 87 1215 l 356 1215 q 625 1137 547 1215 q 703 868 703 1059 l 703 391 q 624 95 703 191 q 355 0 544 0 l 87 0 m 260 130 l 356 130 q 429 138 399 130 q 479 166 460 146 q 509 206 498 187 q 524 264 519 224 q 529 329 528 303 q 530 408 530 354 q 530 434 530 425 l 530 825 q 529 878 530 858 q 527 924 529 897 q 522 966 526 951 q 513 1001 519 982 q 497 1031 507 1021 q 475 1054 488 1042 q 445 1072 462 1066 q 404 1081 427 1078 q 353 1085 381 1085 l 260 1085 l 260 130 z "},"ǆ":{"ha":1242,"x_min":63,"x_max":1238,"o":"m 760 0 l 760 130 l 1064 738 l 804 738 l 804 868 l 1238 868 l 1238 738 l 934 130 l 1238 130 l 1238 0 l 760 0 m 892 949 l 762 1210 l 892 1210 l 979 1036 l 1065 1210 l 1196 1210 l 1065 949 l 892 949 m 324 130 q 454 157 387 130 l 454 703 q 324 738 396 738 q 281 725 298 738 q 254 689 263 713 q 241 639 245 665 q 237 579 237 614 q 237 338 234 427 q 241 261 237 295 q 255 196 245 227 q 281 147 264 164 q 324 130 299 130 m 281 -12 q 180 20 223 -12 q 114 109 137 53 q 79 224 90 164 q 64 353 67 284 q 64 509 63 385 q 68 590 66 554 q 78 666 71 627 q 94 735 84 705 q 120 794 104 766 q 158 840 136 822 q 210 869 180 859 q 278 880 241 880 q 333 872 307 880 q 381 848 358 865 q 418 819 404 831 q 454 782 432 806 l 454 1215 l 628 1215 l 628 0 l 454 0 l 454 79 q 374 13 415 38 q 281 -12 334 -12 z "},"Ǉ":{"ha":992,"x_min":87,"x_max":905,"o":"m 558 0 l 558 130 q 646 136 614 130 q 698 162 677 142 q 725 215 718 182 q 732 304 732 247 l 732 1215 l 905 1215 l 905 304 q 895 167 905 221 q 855 74 884 113 q 775 17 826 35 q 645 0 724 0 l 558 0 m 87 0 l 87 1215 l 260 1215 l 260 130 l 564 130 l 564 0 l 87 0 z "},"ǈ":{"ha":902,"x_min":87,"x_max":833,"o":"m 660 998 l 660 1172 l 833 1172 l 833 998 l 660 998 m 616 -217 q 530 -205 559 -217 l 530 -82 q 573 -87 553 -87 q 660 14 660 -87 l 660 868 l 833 868 l 833 -5 q 775 -161 833 -105 q 616 -217 718 -217 m 87 0 l 87 1215 l 260 1215 l 260 130 l 564 130 l 564 0 l 87 0 z "},"ǉ":{"ha":673,"x_min":80,"x_max":604,"o":"m 431 998 l 431 1172 l 604 1172 l 604 998 l 431 998 m 387 -217 q 300 -205 330 -217 l 300 -82 q 344 -87 324 -87 q 431 14 431 -87 l 431 868 l 604 868 l 604 -5 q 546 -161 604 -105 q 387 -217 488 -217 m 80 0 l 80 1215 l 254 1215 l 254 0 l 80 0 z "},"Ǌ":{"ha":1215,"x_min":87,"x_max":1128,"o":"m 781 0 l 781 130 q 869 136 838 130 q 921 162 901 142 q 948 215 941 182 q 955 304 955 247 l 955 1215 l 1128 1215 l 1128 304 q 1118 167 1128 221 q 1078 74 1107 113 q 998 17 1049 35 q 868 0 947 0 l 781 0 m 87 0 l 87 1215 l 217 1215 l 521 464 l 521 1215 l 694 1215 l 694 0 l 571 0 l 260 808 l 260 0 l 87 0 z "},"ǋ":{"ha":1125,"x_min":87,"x_max":1057,"o":"m 883 998 l 883 1172 l 1057 1172 l 1057 998 l 883 998 m 840 -217 q 753 -205 783 -217 l 753 -82 q 796 -87 777 -87 q 883 14 883 -87 l 883 868 l 1057 868 l 1057 -5 q 999 -161 1057 -105 q 840 -217 941 -217 m 87 0 l 87 1215 l 217 1215 l 521 464 l 521 1215 l 694 1215 l 694 0 l 571 0 l 260 808 l 260 0 l 87 0 z "},"ǌ":{"ha":1017,"x_min":79,"x_max":948,"o":"m 774 998 l 774 1172 l 948 1172 l 948 998 l 774 998 m 731 -217 q 644 -205 674 -217 l 644 -82 q 688 -87 668 -87 q 774 14 774 -87 l 774 868 l 948 868 l 948 -5 q 890 -161 948 -105 q 731 -217 832 -217 m 79 0 l 79 868 l 253 868 l 253 774 q 316 828 292 810 q 384 864 340 847 q 475 880 427 880 q 566 840 531 880 q 600 740 600 799 l 600 0 l 427 0 l 427 651 q 414 717 427 696 q 361 738 401 738 q 317 729 339 738 q 284 712 295 720 q 253 687 273 704 l 253 0 l 79 0 z "},"Ǳ":{"ha":1413,"x_min":87,"x_max":1375,"o":"m 810 0 l 810 130 l 1201 1085 l 854 1085 l 854 1215 l 1375 1215 l 1375 1085 l 984 130 l 1375 130 l 1375 0 l 810 0 m 87 0 l 87 1215 l 356 1215 q 625 1137 547 1215 q 703 868 703 1059 l 703 391 q 624 95 703 191 q 355 0 544 0 l 87 0 m 260 130 l 356 130 q 429 138 399 130 q 479 166 460 146 q 509 206 498 187 q 524 264 519 224 q 529 329 528 303 q 530 408 530 354 q 530 434 530 425 l 530 825 q 529 878 530 858 q 527 924 529 897 q 522 966 526 951 q 513 1001 519 982 q 497 1031 507 1021 q 475 1054 488 1042 q 445 1072 462 1066 q 404 1081 427 1078 q 353 1085 381 1085 l 260 1085 l 260 130 z "},"ǲ":{"ha":1323,"x_min":87,"x_max":1294,"o":"m 817 0 l 817 130 l 1120 738 l 860 738 l 860 868 l 1294 868 l 1294 738 l 990 130 l 1294 130 l 1294 0 l 817 0 m 87 0 l 87 1215 l 356 1215 q 625 1137 547 1215 q 703 868 703 1059 l 703 391 q 624 95 703 191 q 355 0 544 0 l 87 0 m 260 130 l 356 130 q 429 138 399 130 q 479 166 460 146 q 509 206 498 187 q 524 264 519 224 q 529 329 528 303 q 530 408 530 354 q 530 434 530 425 l 530 825 q 529 878 530 858 q 527 924 529 897 q 522 966 526 951 q 513 1001 519 982 q 497 1031 507 1021 q 475 1054 488 1042 q 445 1072 462 1066 q 404 1081 427 1078 q 353 1085 381 1085 l 260 1085 l 260 130 z "},"ǳ":{"ha":1267,"x_min":63,"x_max":1238,"o":"m 760 0 l 760 130 l 1064 738 l 804 738 l 804 868 l 1238 868 l 1238 738 l 934 130 l 1238 130 l 1238 0 l 760 0 m 324 130 q 454 157 387 130 l 454 703 q 324 738 396 738 q 281 725 298 738 q 254 689 263 713 q 241 639 245 665 q 237 579 237 614 q 237 338 234 427 q 241 261 237 295 q 255 196 245 227 q 281 147 264 164 q 324 130 299 130 m 281 -12 q 180 20 223 -12 q 114 109 137 53 q 79 224 90 164 q 64 353 67 284 q 64 509 63 385 q 68 590 66 554 q 78 666 71 627 q 94 735 84 705 q 120 794 104 766 q 158 840 136 822 q 210 869 180 859 q 278 880 241 880 q 333 872 307 880 q 381 848 358 865 q 418 819 404 831 q 454 782 432 806 l 454 1215 l 628 1215 l 628 0 l 454 0 l 454 79 q 374 13 415 38 q 281 -12 334 -12 z "},"Ǵ":{"ha":813,"x_min":65,"x_max":760,"o":"m 277 1302 l 363 1563 l 537 1563 l 363 1302 l 277 1302 m 412 -12 q 268 12 329 -12 q 168 76 206 35 q 106 180 129 117 q 74 313 83 243 q 65 473 65 382 l 65 781 q 419 1227 65 1227 q 566 1202 504 1227 q 667 1128 629 1177 q 726 1014 706 1079 q 749 862 745 948 q 749 825 749 850 l 576 825 l 576 861 q 571 935 575 904 q 558 996 568 966 q 531 1044 548 1025 q 486 1074 514 1063 q 419 1085 458 1085 q 330 1066 366 1085 q 274 1009 294 1046 q 247 928 255 972 q 239 825 239 884 l 239 434 q 241 356 239 391 q 251 284 244 321 q 270 222 257 248 q 301 174 282 195 q 348 141 319 153 q 412 130 376 130 q 488 147 456 130 q 538 191 519 164 q 568 259 557 218 q 582 341 578 300 q 586 434 586 382 l 586 477 l 412 477 l 412 606 l 760 606 l 760 0 l 629 0 l 586 130 q 412 -12 535 -12 z "},"ǵ":{"ha":656,"x_min":7,"x_max":658,"o":"m 198 955 l 285 1215 l 458 1215 l 285 955 l 198 955 m 202 564 q 311 380 202 380 q 419 564 419 380 q 414 633 419 602 q 398 695 410 665 q 364 742 387 725 q 311 760 342 760 q 256 742 279 760 q 223 695 234 725 q 207 633 212 665 q 202 564 202 602 m 354 -132 q 387 -131 372 -132 q 420 -128 401 -130 q 453 -122 439 -126 q 480 -111 467 -117 q 499 -93 492 -104 q 506 -67 506 -81 q 367 22 506 5 l 224 39 q 179 -16 197 20 q 160 -92 160 -52 q 168 -110 160 -102 q 190 -122 175 -118 q 219 -129 204 -126 q 256 -132 235 -132 q 292 -133 277 -133 q 327 -132 307 -133 q 354 -132 347 -132 m 354 -260 q 301 -259 321 -260 q 245 -258 281 -259 q 186 -253 210 -256 q 132 -243 163 -249 q 82 -228 102 -237 q 43 -205 62 -218 q 16 -174 25 -193 q 7 -132 7 -155 q 43 -16 7 -64 q 137 60 79 32 q 76 89 102 70 q 50 136 50 109 q 53 161 50 148 q 59 184 56 174 q 70 208 62 195 q 82 230 77 222 q 96 251 86 237 q 110 270 106 265 q 125 289 114 275 q 137 304 136 302 q 50 564 50 407 q 79 725 50 654 q 167 838 107 795 q 311 880 227 880 q 395 867 359 880 q 453 832 431 853 q 498 778 476 812 q 644 880 549 873 q 648 880 646 880 q 653 880 650 880 q 658 880 656 880 l 658 738 q 647 738 654 738 q 603 737 618 738 q 570 731 588 736 q 541 715 551 726 q 562 645 553 689 q 571 564 571 602 q 544 404 571 473 q 456 292 516 334 q 311 250 396 250 l 223 260 q 216 248 222 256 q 208 234 211 239 q 202 220 205 229 q 199 204 199 212 q 216 174 199 186 q 263 156 233 162 q 320 148 293 151 q 382 143 348 145 q 429 140 416 142 q 497 127 467 134 q 559 106 528 120 q 611 74 591 93 q 645 25 631 55 q 658 -43 658 -5 q 641 -128 658 -91 q 597 -190 625 -165 q 530 -230 569 -214 q 447 -253 490 -246 q 354 -260 404 -260 z "},"Ȁ":{"ha":716,"x_min":11,"x_max":705,"o":"m 414 1310 l 302 1571 l 441 1571 l 501 1310 l 414 1310 m 215 1310 l 41 1571 l 215 1571 l 302 1310 l 215 1310 m 271 434 l 445 434 l 358 955 l 271 434 m 11 0 l 271 1215 l 445 1215 l 705 0 l 532 0 l 467 304 l 250 304 l 184 0 l 11 0 z "},"ȁ":{"ha":648,"x_min":1,"x_max":600,"o":"m 374 963 l 261 1223 l 401 1223 l 460 963 l 374 963 m 174 963 l 1 1223 l 174 1223 l 261 963 l 174 963 m 317 130 q 353 141 336 130 q 379 162 370 152 q 401 189 388 172 q 404 194 403 193 l 404 434 q 368 411 393 427 q 328 386 343 395 q 292 358 313 376 q 260 325 271 341 q 239 286 248 309 q 231 238 231 263 q 317 130 231 130 m 231 -12 q 107 51 158 -12 q 57 192 57 113 q 78 307 57 255 q 123 389 100 358 q 203 453 147 420 q 287 498 258 486 q 386 538 315 510 q 404 545 398 543 l 404 608 q 386 710 404 673 q 317 746 368 746 q 253 715 273 746 q 231 630 234 684 q 231 608 231 623 l 57 608 q 127 806 58 732 q 317 880 195 880 q 508 805 439 880 q 578 608 578 730 l 578 217 q 600 0 578 81 l 427 0 l 404 130 q 382 88 391 103 q 357 51 374 73 q 325 17 341 29 q 284 -3 309 5 q 231 -12 260 -12 z "},"Ȃ":{"ha":716,"x_min":11,"x_max":705,"o":"m 176 1297 q 223 1495 176 1432 q 393 1557 270 1557 q 562 1494 514 1557 q 610 1297 610 1431 l 479 1297 q 463 1396 479 1366 q 393 1427 446 1427 q 322 1396 339 1427 q 306 1297 306 1365 l 176 1297 m 271 434 l 445 434 l 358 955 l 271 434 m 11 0 l 271 1215 l 445 1215 l 705 0 l 532 0 l 467 304 l 250 304 l 184 0 l 11 0 z "},"ȃ":{"ha":648,"x_min":57,"x_max":600,"o":"m 119 949 q 166 1147 119 1085 q 336 1210 214 1210 q 506 1147 458 1210 q 553 949 553 1084 l 423 949 q 407 1049 423 1019 q 336 1080 390 1080 q 266 1049 283 1080 q 250 949 250 1018 l 119 949 m 317 130 q 353 141 336 130 q 379 162 370 152 q 401 189 388 172 q 404 194 403 193 l 404 434 q 368 411 393 427 q 328 386 343 395 q 292 358 313 376 q 260 325 271 341 q 239 286 248 309 q 231 238 231 263 q 317 130 231 130 m 231 -12 q 107 51 158 -12 q 57 192 57 113 q 78 307 57 255 q 123 389 100 358 q 203 453 147 420 q 287 498 258 486 q 386 538 315 510 q 404 545 398 543 l 404 608 q 386 710 404 673 q 317 746 368 746 q 253 715 273 746 q 231 630 234 684 q 231 608 231 623 l 57 608 q 127 806 58 732 q 317 880 195 880 q 508 805 439 880 q 578 608 578 730 l 578 217 q 600 0 578 81 l 427 0 l 404 130 q 382 88 391 103 q 357 51 374 73 q 325 17 341 29 q 284 -3 309 5 q 231 -12 260 -12 z "},"Ȅ":{"ha":584,"x_min":9,"x_max":564,"o":"m 382 1310 l 269 1571 l 409 1571 l 469 1310 l 382 1310 m 182 1310 l 9 1571 l 182 1571 l 269 1310 l 182 1310 m 87 0 l 87 1215 l 564 1215 l 564 1085 l 260 1085 l 260 694 l 477 694 l 477 564 l 260 564 l 260 130 l 564 130 l 564 0 l 87 0 z "},"ȅ":{"ha":633,"x_min":7,"x_max":585,"o":"m 380 963 l 268 1223 l 408 1223 l 467 963 l 380 963 m 181 963 l 7 1223 l 181 1223 l 268 963 l 181 963 m 323 -12 q 213 9 260 -12 q 139 66 167 31 q 95 156 112 101 q 72 265 78 210 q 64 392 65 319 q 64 506 62 449 q 73 626 66 574 q 98 728 80 679 q 143 810 115 778 q 217 861 172 842 q 324 880 263 880 q 422 866 380 880 q 493 822 465 851 q 539 756 521 792 q 568 669 558 720 q 581 568 577 618 q 585 454 585 519 l 585 434 l 237 434 l 237 391 q 237 363 237 382 q 237 311 236 338 q 239 258 238 284 q 247 209 241 233 q 262 168 253 186 q 287 140 271 151 q 324 130 302 130 q 369 141 351 130 q 395 172 387 151 q 407 214 404 193 q 411 267 410 235 l 411 304 l 583 304 l 583 269 q 515 59 577 130 q 323 -12 452 -12 m 237 521 l 410 521 l 410 573 q 406 633 409 608 q 394 685 402 659 q 368 724 385 711 q 324 738 350 738 q 280 724 298 738 q 253 683 262 709 q 241 630 245 656 q 237 568 238 604 l 237 521 z "},"Ȇ":{"ha":584,"x_min":87,"x_max":564,"o":"m 109 1297 q 156 1495 109 1432 q 326 1557 203 1557 q 495 1494 447 1557 q 543 1297 543 1431 l 412 1297 q 396 1396 412 1366 q 326 1427 379 1427 q 255 1396 272 1427 q 239 1297 239 1365 l 109 1297 m 87 0 l 87 1215 l 564 1215 l 564 1085 l 260 1085 l 260 694 l 477 694 l 477 564 l 260 564 l 260 130 l 564 130 l 564 0 l 87 0 z "},"ȇ":{"ha":617,"x_min":62,"x_max":585,"o":"m 109 949 q 156 1147 109 1085 q 326 1210 203 1210 q 495 1147 447 1210 q 543 949 543 1084 l 412 949 q 396 1049 412 1019 q 326 1080 379 1080 q 255 1049 272 1080 q 239 949 239 1018 l 109 949 m 323 -12 q 213 9 260 -12 q 139 66 167 31 q 95 156 112 101 q 72 265 78 210 q 64 392 65 319 q 64 506 62 449 q 73 626 66 574 q 98 728 80 679 q 143 810 115 778 q 217 861 172 842 q 324 880 263 880 q 422 866 380 880 q 493 822 465 851 q 539 756 521 792 q 568 669 558 720 q 581 568 577 618 q 585 454 585 519 l 585 434 l 237 434 l 237 391 q 237 363 237 382 q 237 311 236 338 q 239 258 238 284 q 247 209 241 233 q 262 168 253 186 q 287 140 271 151 q 324 130 302 130 q 369 141 351 130 q 395 172 387 151 q 407 214 404 193 q 411 267 410 235 l 411 304 l 583 304 l 583 269 q 515 59 577 130 q 323 -12 452 -12 m 237 521 l 410 521 l 410 573 q 406 633 409 608 q 394 685 402 659 q 368 724 385 711 q 324 738 350 738 q 280 724 298 738 q 253 683 262 709 q 241 630 245 656 q 237 568 238 604 l 237 521 z "},"Ȉ":{"ha":368,"x_min":-135,"x_max":325,"o":"m 238 1310 l 125 1571 l 265 1571 l 325 1310 l 238 1310 m 39 1310 l -135 1571 l 39 1571 l 125 1310 l 39 1310 m 95 0 l 95 1215 l 269 1215 l 269 0 l 95 0 z "},"ȉ":{"ha":347,"x_min":-143,"x_max":317,"o":"m 230 963 l 117 1223 l 257 1223 l 317 963 l 230 963 m 31 963 l -143 1223 l 31 1223 l 117 963 l 31 963 m 87 0 l 87 868 l 260 868 l 260 0 l 87 0 z "},"Ȋ":{"ha":368,"x_min":-35,"x_max":399,"o":"m -35 1297 q 12 1495 -35 1432 q 182 1557 59 1557 q 351 1494 303 1557 q 399 1297 399 1431 l 269 1297 q 252 1396 269 1366 q 182 1427 235 1427 q 112 1396 128 1427 q 95 1297 95 1365 l -35 1297 m 95 0 l 95 1215 l 269 1215 l 269 0 l 95 0 z "},"ȋ":{"ha":347,"x_min":-43,"x_max":391,"o":"m -43 949 q 4 1147 -43 1085 q 174 1210 51 1210 q 343 1147 295 1210 q 391 949 391 1084 l 260 949 q 244 1049 260 1019 q 174 1080 227 1080 q 103 1049 120 1080 q 87 949 87 1018 l -43 949 m 87 0 l 87 868 l 260 868 l 260 0 l 87 0 z "},"Ȍ":{"ha":800,"x_min":65,"x_max":735,"o":"m 456 1310 l 344 1571 l 484 1571 l 543 1310 l 456 1310 m 257 1310 l 83 1571 l 257 1571 l 344 1310 l 257 1310 m 400 -12 q 243 16 309 -12 q 139 97 178 43 q 83 223 100 151 q 65 391 65 295 l 65 831 q 83 998 65 927 q 139 1122 100 1069 q 243 1201 178 1175 q 400 1227 309 1227 q 656 1126 578 1227 q 735 831 735 1024 l 735 391 q 717 224 735 296 q 661 98 699 152 q 556 16 622 44 q 400 -12 491 -12 m 274 185 q 291 158 274 185 q 400 130 309 130 q 527 185 492 130 q 562 347 562 240 l 562 875 q 527 1033 562 981 q 400 1085 492 1085 q 273 1033 308 1085 q 239 875 239 981 l 239 347 q 274 185 239 240 z "},"ȍ":{"ha":647,"x_min":7,"x_max":584,"o":"m 380 963 l 267 1223 l 407 1223 l 467 963 l 380 963 m 180 963 l 7 1223 l 180 1223 l 267 963 l 180 963 m 524 69 q 493 28 524 69 q 323 -12 463 -12 q 123 69 184 -12 q 63 304 63 151 l 63 564 q 123 799 63 718 q 323 880 184 880 q 524 799 463 880 q 584 564 584 718 l 584 304 q 524 69 584 151 m 291 136 q 298 133 291 136 q 323 130 305 130 q 356 136 342 130 q 379 149 370 141 q 394 172 388 157 q 404 199 400 187 q 408 232 407 210 q 410 266 410 254 q 410 304 410 279 l 410 564 q 410 602 410 589 q 408 636 410 614 q 404 669 407 658 q 394 696 400 681 q 379 719 388 711 q 356 732 370 727 q 323 738 342 738 q 291 732 305 738 q 268 719 277 727 q 253 696 259 711 q 243 669 247 681 q 239 636 240 658 q 237 602 237 614 q 237 564 237 589 l 237 304 q 237 266 237 279 q 239 232 237 254 q 243 199 240 210 q 253 172 247 187 q 268 149 259 157 q 291 136 277 141 z "},"Ȏ":{"ha":800,"x_min":65,"x_max":735,"o":"m 195 1297 q 242 1495 195 1432 q 412 1557 290 1557 q 582 1494 534 1557 q 629 1297 629 1431 l 499 1297 q 483 1396 499 1366 q 412 1427 466 1427 q 342 1396 359 1427 q 326 1297 326 1365 l 195 1297 m 400 -12 q 243 16 309 -12 q 139 97 178 43 q 83 223 100 151 q 65 391 65 295 l 65 831 q 83 998 65 927 q 139 1122 100 1069 q 243 1201 178 1175 q 400 1227 309 1227 q 656 1126 578 1227 q 735 831 735 1024 l 735 391 q 717 224 735 296 q 661 98 699 152 q 556 16 622 44 q 400 -12 491 -12 m 274 185 q 291 158 274 185 q 400 130 309 130 q 527 185 492 130 q 562 347 562 240 l 562 875 q 527 1033 562 981 q 400 1085 492 1085 q 273 1033 308 1085 q 239 875 239 981 l 239 347 q 274 185 239 240 z "},"ȏ":{"ha":647,"x_min":63,"x_max":584,"o":"m 109 949 q 156 1147 109 1085 q 326 1210 203 1210 q 495 1147 447 1210 q 543 949 543 1084 l 412 949 q 396 1049 412 1019 q 326 1080 379 1080 q 255 1049 272 1080 q 239 949 239 1018 l 109 949 m 524 69 q 493 28 524 69 q 323 -12 463 -12 q 123 69 184 -12 q 63 304 63 151 l 63 564 q 123 799 63 718 q 323 880 184 880 q 524 799 463 880 q 584 564 584 718 l 584 304 q 524 69 584 151 m 291 136 q 298 133 291 136 q 323 130 305 130 q 356 136 342 130 q 379 149 370 141 q 394 172 388 157 q 404 199 400 187 q 408 232 407 210 q 410 266 410 254 q 410 304 410 279 l 410 564 q 410 602 410 589 q 408 636 410 614 q 404 669 407 658 q 394 696 400 681 q 379 719 388 711 q 356 732 370 727 q 323 738 342 738 q 291 732 305 738 q 268 719 277 727 q 253 696 259 711 q 243 669 247 681 q 239 636 240 658 q 237 602 237 614 q 237 564 237 589 l 237 304 q 237 266 237 279 q 239 232 237 254 q 243 199 240 210 q 253 172 247 187 q 268 149 259 157 q 291 136 277 141 z "},"Ȑ":{"ha":751,"x_min":-121,"x_max":738,"o":"m 252 1310 l 139 1571 l 279 1571 l 338 1310 l 252 1310 m 52 1310 l -121 1571 l 52 1571 l 139 1310 l 52 1310 m 260 694 l 304 694 q 467 740 412 694 q 521 890 521 786 q 467 1039 521 994 q 304 1085 412 1085 l 260 1085 l 260 694 m 87 0 l 87 1215 l 304 1215 q 596 1140 498 1215 q 694 890 694 1065 q 656 708 694 781 q 543 608 617 635 l 738 0 l 566 0 l 391 564 l 260 564 l 260 0 l 87 0 z "},"ȑ":{"ha":470,"x_min":-42,"x_max":470,"o":"m 331 963 l 218 1223 l 358 1223 l 418 963 l 331 963 m 132 963 l -42 1223 l 132 1223 l 218 963 l 132 963 m 79 0 l 79 868 l 253 868 l 253 752 q 330 842 279 804 q 442 880 380 880 q 470 878 444 880 l 470 686 q 374 705 422 705 q 286 672 319 705 q 253 586 253 640 l 253 0 l 79 0 z "},"Ȓ":{"ha":751,"x_min":87,"x_max":738,"o":"m 260 694 l 304 694 q 467 740 412 694 q 521 890 521 786 q 467 1039 521 994 q 304 1085 412 1085 l 260 1085 l 260 694 m 87 0 l 87 1215 l 304 1215 q 596 1140 498 1215 q 694 890 694 1065 q 656 708 694 781 q 543 608 617 635 l 738 0 l 566 0 l 391 564 l 260 564 l 260 0 l 87 0 m 195 1297 q 242 1495 195 1432 q 412 1557 290 1557 q 582 1494 534 1557 q 629 1297 629 1431 l 499 1297 q 483 1396 499 1366 q 412 1427 466 1427 q 342 1396 359 1427 q 326 1297 326 1365 l 195 1297 z "},"ȓ":{"ha":461,"x_min":58,"x_max":492,"o":"m 79 0 l 79 868 l 253 868 l 253 752 q 330 842 279 804 q 442 880 380 880 q 470 878 444 880 l 470 686 q 374 705 422 705 q 286 672 319 705 q 253 586 253 640 l 253 0 l 79 0 m 58 949 q 105 1147 58 1085 q 275 1210 152 1210 q 444 1147 396 1210 q 492 949 492 1084 l 361 949 q 345 1049 361 1019 q 275 1080 328 1080 q 204 1049 221 1080 q 188 949 188 1018 l 58 949 z "},"Ȕ":{"ha":849,"x_min":77,"x_max":772,"o":"m 481 1310 l 368 1571 l 508 1571 l 568 1310 l 481 1310 m 281 1310 l 108 1571 l 281 1571 l 368 1310 l 281 1310 m 564 8 q 534 -2 564 8 q 425 -13 504 -13 q 285 8 345 -13 q 185 67 224 29 q 122 161 146 104 q 87 284 98 218 q 77 434 77 351 l 77 1215 l 251 1215 l 251 434 q 253 340 251 378 q 266 259 256 302 q 294 190 276 216 q 345 147 312 164 q 425 130 378 130 q 504 147 471 130 q 555 190 537 164 q 583 259 573 216 q 596 340 593 302 q 598 434 598 378 l 598 1215 l 772 1215 l 772 434 q 762 284 772 351 q 727 161 751 218 q 664 67 703 104 q 564 8 625 29 z "},"ȕ":{"ha":669,"x_min":21,"x_max":598,"o":"m 394 963 l 281 1223 l 421 1223 l 481 963 l 394 963 m 195 963 l 21 1223 l 195 1223 l 281 963 l 195 963 m 203 -12 q 112 28 146 -12 q 77 128 77 68 l 77 868 l 251 868 l 251 181 q 268 137 251 154 q 311 120 284 120 q 338 123 325 120 q 365 135 352 127 q 386 149 378 144 q 407 166 393 154 q 425 181 421 178 l 425 868 l 598 868 l 598 0 l 425 0 l 425 94 q 387 61 399 71 q 351 34 375 51 q 308 8 326 16 q 261 -6 289 1 q 203 -12 233 -12 z "},"Ȗ":{"ha":849,"x_min":77,"x_max":772,"o":"m 564 8 q 534 -2 564 8 q 425 -13 504 -13 q 285 8 345 -13 q 185 67 224 29 q 122 161 146 104 q 87 284 98 218 q 77 434 77 351 l 77 1215 l 251 1215 l 251 434 q 253 340 251 378 q 266 259 256 302 q 294 190 276 216 q 345 147 312 164 q 425 130 378 130 q 504 147 471 130 q 555 190 537 164 q 583 259 573 216 q 596 340 593 302 q 598 434 598 378 l 598 1215 l 772 1215 l 772 434 q 762 284 772 351 q 727 161 751 218 q 664 67 703 104 q 564 8 625 29 m 208 1297 q 255 1495 208 1432 q 425 1557 302 1557 q 594 1494 546 1557 q 642 1297 642 1431 l 511 1297 q 495 1396 511 1366 q 425 1427 478 1427 q 354 1396 371 1427 q 338 1297 338 1365 l 208 1297 z "},"ȗ":{"ha":669,"x_min":77,"x_max":598,"o":"m 203 -12 q 112 28 146 -12 q 77 128 77 68 l 77 868 l 251 868 l 251 181 q 268 137 251 154 q 311 120 284 120 q 338 123 325 120 q 365 135 352 127 q 386 149 378 144 q 407 166 393 154 q 425 181 421 178 l 425 868 l 598 868 l 598 0 l 425 0 l 425 94 q 387 61 399 71 q 351 34 375 51 q 308 8 326 16 q 261 -6 289 1 q 203 -12 233 -12 m 121 949 q 168 1147 121 1085 q 338 1210 215 1210 q 507 1147 459 1210 q 555 949 555 1084 l 425 949 q 408 1049 425 1019 q 338 1080 391 1080 q 268 1049 284 1080 q 251 949 251 1018 l 121 949 z "},"Ș":{"ha":747,"x_min":56,"x_max":707,"o":"m 360 -442 l 317 -355 q 384 -335 363 -355 q 404 -269 404 -315 l 317 -269 l 317 -95 l 490 -95 q 488 -259 490 -193 q 484 -321 487 -296 q 473 -371 481 -346 q 452 -410 465 -395 q 415 -433 438 -425 q 360 -442 393 -442 m 404 -12 q 153 84 239 -12 q 56 347 66 180 l 230 391 q 404 130 243 130 q 534 260 534 130 q 523 332 534 299 q 491 392 513 365 q 452 436 469 420 q 404 477 434 453 l 186 651 q 91 770 127 698 q 56 935 56 842 q 139 1148 56 1069 q 360 1227 222 1227 q 595 1155 508 1227 q 703 951 682 1083 q 707 911 705 937 l 534 868 q 530 903 533 880 q 478 1035 519 985 q 360 1085 438 1085 q 264 1050 298 1085 q 230 953 230 1015 q 317 781 230 850 l 534 608 q 707 272 707 467 q 625 63 707 138 q 404 -12 543 -12 z "},"ș":{"ha":594,"x_min":47,"x_max":568,"o":"m 264 -442 l 220 -355 q 287 -335 267 -355 q 307 -269 307 -315 l 220 -269 l 220 -95 l 394 -95 q 392 -259 394 -193 q 388 -321 391 -296 q 377 -371 385 -346 q 355 -410 369 -395 q 319 -433 342 -425 q 264 -442 296 -442 m 307 -12 q 135 52 200 -12 q 47 217 71 115 l 177 260 q 307 130 224 130 q 371 153 349 130 q 394 217 394 176 q 351 317 394 277 l 177 448 q 128 485 148 467 q 88 527 109 502 q 57 583 68 552 q 47 651 47 614 q 118 821 47 762 q 307 880 189 880 q 409 862 363 880 q 485 812 454 844 q 536 740 516 779 q 568 651 556 700 l 437 608 q 418 652 428 633 q 393 692 409 671 q 355 726 377 714 q 307 738 334 738 q 243 715 266 738 q 220 651 220 692 q 264 578 220 610 l 437 448 q 487 403 467 425 q 528 354 508 382 q 557 291 547 326 q 568 217 568 256 q 497 47 568 106 q 307 -12 426 -12 z "},"Ț":{"ha":606,"x_min":-1,"x_max":607,"o":"m 260 -430 l 216 -343 q 283 -323 263 -343 q 303 -256 303 -302 l 216 -256 l 216 -83 l 390 -83 q 388 -247 390 -181 q 384 -309 387 -283 q 373 -358 381 -334 q 351 -398 365 -383 q 315 -421 338 -412 q 260 -430 292 -430 m 216 0 l 216 1061 l -1 1061 l -1 1215 l 607 1215 l 607 1061 l 390 1061 l 390 0 l 216 0 z "},"ț":{"ha":475,"x_min":37,"x_max":427,"o":"m 277 -442 l 233 -355 q 300 -335 280 -355 q 320 -269 320 -315 l 233 -269 l 233 -95 l 407 -95 q 405 -259 407 -193 q 401 -321 404 -296 q 390 -371 398 -346 q 368 -410 382 -395 q 332 -433 355 -425 q 277 -442 309 -442 m 320 -12 q 171 40 218 -12 q 123 198 125 92 l 123 738 l 37 738 l 37 868 l 123 868 l 123 1172 l 297 1172 l 297 868 l 427 868 l 427 738 l 297 738 l 297 231 q 311 155 297 179 q 369 130 326 130 q 427 137 388 130 l 427 -4 q 320 -12 362 -12 z "},"ȷ":{"ha":391,"x_min":0,"x_max":304,"o":"m 87 -217 q 0 -205 30 -217 l 0 -82 q 43 -87 24 -87 q 130 14 130 -87 l 130 868 l 304 868 l 304 -5 q 246 -161 304 -105 q 87 -217 188 -217 z "},"ˆ":{"ha":521,"x_min":43,"x_max":477,"o":"m 43 955 l 174 1215 l 347 1215 l 477 955 l 347 955 l 260 1128 l 174 955 l 43 955 z "},"ˇ":{"ha":521,"x_min":43,"x_max":477,"o":"m 174 955 l 43 1215 l 174 1215 l 260 1042 l 347 1215 l 477 1215 l 347 955 l 174 955 z "},"˘":{"ha":521,"x_min":43,"x_max":477,"o":"m 260 955 q 91 1018 139 955 q 43 1215 43 1081 l 174 1215 q 190 1116 174 1146 q 260 1085 207 1085 q 331 1116 314 1085 q 347 1215 347 1147 l 477 1215 q 430 1017 477 1080 q 260 955 383 955 z "},"˙":{"ha":260,"x_min":43,"x_max":217,"o":"m 43 981 l 43 1154 l 217 1154 l 217 981 l 43 981 z "},"˚":{"ha":434,"x_min":43,"x_max":391,"o":"m 343 1002 q 320 979 343 1002 q 217 955 296 955 q 91 1002 138 955 q 43 1128 43 1050 q 91 1255 43 1207 q 217 1302 138 1302 q 343 1255 296 1302 q 391 1128 391 1207 q 343 1002 391 1050 m 153 1065 q 165 1053 153 1065 q 217 1042 176 1042 q 281 1065 258 1042 q 304 1128 304 1088 q 281 1192 304 1168 q 217 1215 258 1215 q 153 1192 176 1215 q 130 1128 130 1169 q 153 1065 130 1088 z "},"˛":{"ha":364,"x_min":-31,"x_max":273,"o":"m 242 -348 q 190 -348 210 -348 q 143 -346 170 -347 q 100 -342 117 -345 q 63 -335 83 -340 q 30 -324 43 -330 q 5 -308 18 -317 q -15 -285 -8 -298 q -27 -256 -22 -273 q -31 -218 -31 -239 q 24 -78 -31 -144 q 142 6 79 -12 l 229 6 q 193 -38 225 1 q 146 -98 161 -77 q 115 -153 132 -119 q 99 -215 99 -188 q 197 -265 99 -265 q 236 -263 210 -265 q 273 -261 263 -261 l 273 -348 l 242 -348 z "},"˜":{"ha":651,"x_min":86,"x_max":565,"o":"m 416 985 q 349 1000 383 985 q 283 1029 315 1015 q 223 1044 251 1044 q 191 998 191 1044 l 86 998 q 125 1130 86 1077 q 235 1183 164 1183 q 334 1154 275 1183 q 426 1125 393 1125 q 460 1172 460 1125 l 565 1172 q 526 1039 565 1093 q 416 985 487 985 z "},"˝":{"ha":434,"x_min":148,"x_max":608,"o":"m 347 955 l 434 1215 l 608 1215 l 434 955 l 347 955 m 148 955 l 208 1215 l 347 1215 l 235 955 l 148 955 z "},"̏":{"ha":434,"x_min":5,"x_max":465,"o":"m 378 955 l 266 1215 l 406 1215 l 465 955 l 378 955 m 179 955 l 5 1215 l 179 1215 l 266 955 l 179 955 z "},"̑":{"ha":521,"x_min":43,"x_max":477,"o":"m 43 955 q 91 1153 43 1090 q 260 1215 138 1215 q 430 1152 382 1215 q 477 955 477 1089 l 347 955 q 331 1055 347 1024 q 260 1085 314 1085 q 190 1054 207 1085 q 174 955 174 1023 l 43 955 z "},"̦":{"ha":224,"x_min":25,"x_max":199,"o":"m 68 -401 l 25 -314 q 92 -294 72 -314 q 112 -227 112 -273 l 25 -227 l 25 -54 l 199 -54 q 197 -218 199 -152 q 193 -279 195 -254 q 182 -329 190 -304 q 160 -369 174 -354 q 124 -392 146 -383 q 68 -401 101 -401 z "},"Ḃ":{"ha":777,"x_min":87,"x_max":738,"o":"m 326 1310 l 326 1484 l 499 1484 l 499 1310 l 326 1310 m 260 694 l 347 694 q 564 911 564 694 q 555 975 564 947 q 534 1021 547 1002 q 497 1052 522 1039 q 452 1071 473 1064 q 394 1081 432 1078 q 332 1084 357 1084 q 260 1085 307 1085 l 260 694 m 260 130 l 347 130 q 512 182 460 130 q 564 347 564 234 q 512 512 564 460 q 347 564 460 564 l 260 564 l 260 130 m 87 0 l 87 1215 l 347 1215 q 498 1198 431 1215 q 614 1144 564 1180 q 691 1049 664 1108 q 718 911 718 990 q 669 738 718 798 q 521 651 621 679 q 684 546 629 615 q 738 347 738 476 q 645 93 738 186 q 391 0 551 0 l 87 0 z "},"ḃ":{"ha":707,"x_min":79,"x_max":644,"o":"m 275 1297 l 275 1471 l 448 1471 l 448 1297 l 275 1297 m 383 130 q 430 151 411 130 q 457 209 448 171 q 468 283 465 246 q 471 370 471 321 q 471 467 471 407 q 471 558 471 528 q 469 611 471 589 q 463 659 468 634 q 448 701 457 684 q 422 727 439 717 q 383 738 406 738 q 253 703 311 738 l 253 157 q 383 130 320 130 m 427 -12 q 333 13 374 -12 q 253 79 292 38 l 253 0 l 79 0 l 79 1215 l 253 1215 l 253 782 q 290 819 277 808 q 325 848 302 831 q 374 873 349 866 q 429 880 399 880 q 508 864 473 880 q 565 826 543 848 q 603 762 587 804 q 626 686 618 720 q 638 594 634 652 q 643 501 642 536 q 644 403 644 465 l 644 391 q 638 281 644 334 q 617 174 632 229 q 578 79 602 119 q 516 13 555 39 q 427 -12 477 -12 z "},"Ḋ":{"ha":768,"x_min":87,"x_max":703,"o":"m 308 1310 l 308 1484 l 481 1484 l 481 1310 l 308 1310 m 87 0 l 87 1215 l 356 1215 q 625 1137 547 1215 q 703 868 703 1059 l 703 391 q 624 95 703 191 q 355 0 544 0 l 87 0 m 260 130 l 356 130 q 429 138 399 130 q 479 166 460 146 q 509 206 498 187 q 524 264 519 224 q 529 329 528 303 q 530 408 530 354 q 530 434 530 425 l 530 825 q 529 878 530 858 q 527 924 529 897 q 522 966 526 951 q 513 1001 519 982 q 497 1031 507 1021 q 475 1054 488 1042 q 445 1072 462 1066 q 404 1081 427 1078 q 353 1085 381 1085 l 260 1085 l 260 130 z "},"ḋ":{"ha":712,"x_min":63,"x_max":628,"o":"m 258 1297 l 258 1471 l 432 1471 l 432 1297 l 258 1297 m 324 130 q 454 157 387 130 l 454 703 q 324 738 396 738 q 281 725 298 738 q 254 689 263 713 q 241 639 245 665 q 237 579 237 614 q 237 338 234 427 q 241 261 237 295 q 255 196 245 227 q 281 147 264 164 q 324 130 299 130 m 281 -12 q 180 20 223 -12 q 114 109 137 53 q 79 224 90 164 q 64 353 67 284 q 64 509 63 385 q 68 590 66 554 q 78 666 71 627 q 94 735 84 705 q 120 794 104 766 q 158 840 136 822 q 210 869 180 859 q 278 880 241 880 q 333 872 307 880 q 381 848 358 865 q 418 819 404 831 q 454 782 432 806 l 454 1215 l 628 1215 l 628 0 l 454 0 l 454 79 q 374 13 415 38 q 281 -12 334 -12 z "},"Ḟ":{"ha":557,"x_min":87,"x_max":564,"o":"m 239 1310 l 239 1484 l 412 1484 l 412 1310 l 239 1310 m 87 0 l 87 1215 l 564 1215 l 564 1085 l 260 1085 l 260 694 l 477 694 l 477 564 l 260 564 l 260 0 l 87 0 z "},"ḟ":{"ha":430,"x_min":38,"x_max":429,"o":"m 146 1255 l 146 1428 l 320 1428 l 320 1255 l 146 1255 m 125 0 l 125 738 l 38 738 l 38 868 l 125 868 l 125 901 q 129 995 125 956 q 145 1068 133 1033 q 179 1125 158 1104 q 236 1159 201 1147 q 321 1172 272 1172 q 429 1164 363 1172 l 429 1035 q 401 1039 422 1036 q 370 1042 380 1042 q 313 1014 327 1042 q 298 933 298 987 l 298 868 l 429 868 l 429 738 l 298 738 l 298 0 l 125 0 z "},"Ṁ":{"ha":998,"x_min":87,"x_max":911,"o":"m 412 1310 l 412 1484 l 586 1484 l 586 1310 l 412 1310 m 87 0 l 87 1215 l 327 1215 l 499 285 l 671 1215 l 911 1215 l 911 0 l 738 0 l 738 959 l 564 0 l 434 0 l 260 959 l 260 0 l 87 0 z "},"ṁ":{"ha":1020,"x_min":79,"x_max":947,"o":"m 427 963 l 427 1137 l 600 1137 l 600 963 l 427 963 m 79 0 l 79 868 l 253 868 l 253 770 q 469 880 346 880 q 561 853 532 880 q 600 766 590 825 q 692 851 643 822 q 817 880 742 880 q 856 876 839 880 q 886 865 873 871 q 909 847 899 859 q 925 824 919 834 q 936 793 932 813 q 943 761 941 774 q 946 723 945 748 q 947 684 947 698 q 947 641 947 669 q 947 631 947 635 l 947 0 l 774 0 l 774 633 q 774 644 774 637 q 773 679 774 667 q 769 707 772 691 q 755 730 765 723 q 730 738 746 738 q 677 727 704 738 q 636 707 651 717 q 600 680 622 697 l 600 0 l 427 0 l 427 630 q 427 642 427 634 q 427 671 427 661 q 424 695 427 680 q 418 718 422 711 q 405 732 414 726 q 383 738 396 738 q 253 683 319 738 l 253 0 l 79 0 z "},"Ṗ":{"ha":706,"x_min":87,"x_max":694,"o":"m 304 1310 l 304 1484 l 477 1484 l 477 1310 l 304 1310 m 260 694 l 304 694 q 400 701 363 694 q 467 727 438 708 q 508 780 496 745 q 521 868 521 814 q 511 974 521 933 q 476 1040 502 1014 q 411 1075 451 1065 q 304 1085 370 1085 l 260 1085 l 260 694 m 87 0 l 87 1215 l 391 1215 q 694 868 694 1215 q 616 642 694 720 q 391 564 538 564 l 260 564 l 260 0 l 87 0 z "},"ṗ":{"ha":707,"x_min":79,"x_max":644,"o":"m 275 963 l 275 1137 l 448 1137 l 448 963 l 275 963 m 383 130 q 430 151 411 130 q 457 209 448 171 q 468 283 465 246 q 471 370 471 320 l 470 484 q 470 533 470 515 q 467 583 469 552 q 461 633 465 614 q 450 677 458 653 q 432 714 443 701 q 405 737 422 728 q 368 747 389 747 q 348 745 357 747 q 329 741 339 744 q 313 735 319 738 q 296 728 307 733 q 282 720 286 722 q 267 711 277 718 q 253 703 256 704 l 253 165 q 383 130 313 130 m 79 -260 l 79 868 l 253 868 l 253 781 q 282 812 274 804 q 310 837 290 820 q 345 861 330 854 q 382 874 359 867 q 429 880 405 880 q 508 864 473 880 q 565 826 543 848 q 603 762 587 804 q 626 686 618 720 q 638 595 634 652 q 643 502 642 537 q 644 404 644 466 l 644 391 q 638 281 644 334 q 617 173 632 228 q 578 79 602 119 q 516 13 555 39 q 427 -12 477 -12 q 253 78 338 -12 l 253 -260 l 79 -260 z "},"Ṡ":{"ha":747,"x_min":56,"x_max":707,"o":"m 294 1310 l 294 1484 l 468 1484 l 468 1310 l 294 1310 m 404 -12 q 153 84 239 -12 q 56 347 66 180 l 230 391 q 404 130 243 130 q 534 260 534 130 q 523 332 534 299 q 491 392 513 365 q 452 436 469 420 q 404 477 434 453 l 186 651 q 91 770 127 698 q 56 935 56 842 q 139 1148 56 1069 q 360 1227 222 1227 q 595 1155 508 1227 q 703 951 682 1083 q 707 911 705 937 l 534 868 q 530 903 533 880 q 478 1035 519 985 q 360 1085 438 1085 q 264 1050 298 1085 q 230 953 230 1015 q 317 781 230 850 l 534 608 q 707 272 707 467 q 625 63 707 138 q 404 -12 543 -12 z "},"ṡ":{"ha":594,"x_min":47,"x_max":568,"o":"m 220 963 l 220 1137 l 394 1137 l 394 963 l 220 963 m 307 -12 q 135 52 200 -12 q 47 217 71 115 l 177 260 q 307 130 224 130 q 371 153 349 130 q 394 217 394 176 q 351 317 394 277 l 177 448 q 128 485 148 467 q 88 527 109 502 q 57 583 68 552 q 47 651 47 614 q 118 821 47 762 q 307 880 189 880 q 409 862 363 880 q 485 812 454 844 q 536 740 516 779 q 568 651 556 700 l 437 608 q 418 652 428 633 q 393 692 409 671 q 355 726 377 714 q 307 738 334 738 q 243 715 266 738 q 220 651 220 692 q 264 578 220 610 l 437 448 q 487 403 467 425 q 528 354 508 382 q 557 291 547 326 q 568 217 568 256 q 497 47 568 106 q 307 -12 426 -12 z "},"Ṫ":{"ha":606,"x_min":-1,"x_max":607,"o":"m 216 1310 l 216 1484 l 390 1484 l 390 1310 l 216 1310 m 216 0 l 216 1061 l -1 1061 l -1 1215 l 607 1215 l 607 1061 l 390 1061 l 390 0 l 216 0 z "},"ṫ":{"ha":475,"x_min":37,"x_max":427,"o":"m 145 1255 l 145 1428 l 319 1428 l 319 1255 l 145 1255 m 320 -12 q 171 40 218 -12 q 123 198 125 92 l 123 738 l 37 738 l 37 868 l 123 868 l 123 1172 l 297 1172 l 297 868 l 427 868 l 427 738 l 297 738 l 297 231 q 311 155 297 179 q 369 130 326 130 q 427 137 388 130 l 427 -4 q 320 -12 362 -12 z "},"Ẁ":{"ha":1057,"x_min":7,"x_max":1049,"o":"m 224 0 l 7 1215 l 181 1215 l 268 651 l 312 304 l 355 651 l 441 1215 l 615 1215 l 702 651 l 745 304 l 789 651 l 876 1215 l 1049 1215 l 832 0 l 659 0 l 572 564 l 528 911 l 485 564 l 398 0 l 224 0 m 485 1297 l 311 1557 l 485 1557 l 572 1297 l 485 1297 z "},"ẁ":{"ha":861,"x_min":14,"x_max":855,"o":"m 174 0 l 14 868 l 168 868 l 264 209 l 355 868 l 513 868 l 606 216 l 701 868 l 855 868 l 687 0 l 527 0 l 435 598 l 341 0 l 174 0 m 387 949 l 213 1210 l 387 1210 l 473 949 l 387 949 z "},"Ẃ":{"ha":1057,"x_min":7,"x_max":1049,"o":"m 224 0 l 7 1215 l 181 1215 l 268 651 l 312 304 l 355 651 l 441 1215 l 615 1215 l 702 651 l 745 304 l 789 651 l 876 1215 l 1049 1215 l 832 0 l 659 0 l 572 564 l 528 911 l 485 564 l 398 0 l 224 0 m 485 1297 l 572 1557 l 745 1557 l 572 1297 l 485 1297 z "},"ẃ":{"ha":861,"x_min":14,"x_max":855,"o":"m 174 0 l 14 868 l 168 868 l 264 209 l 355 868 l 513 868 l 606 216 l 701 868 l 855 868 l 687 0 l 527 0 l 435 598 l 341 0 l 174 0 m 387 949 l 473 1210 l 647 1210 l 473 949 l 387 949 z "},"Ẅ":{"ha":1057,"x_min":7,"x_max":1049,"o":"m 224 0 l 7 1215 l 181 1215 l 268 651 l 312 304 l 355 651 l 441 1215 l 615 1215 l 702 651 l 745 304 l 789 651 l 876 1215 l 1049 1215 l 832 0 l 659 0 l 572 564 l 528 911 l 485 564 l 398 0 l 224 0 m 572 1297 l 572 1470 l 745 1470 l 745 1297 l 572 1297 m 311 1297 l 311 1470 l 485 1470 l 485 1297 l 311 1297 z "},"ẅ":{"ha":861,"x_min":14,"x_max":855,"o":"m 174 0 l 14 868 l 168 868 l 264 209 l 355 868 l 513 868 l 606 216 l 701 868 l 855 868 l 687 0 l 527 0 l 435 598 l 341 0 l 174 0 m 473 949 l 473 1123 l 647 1123 l 647 949 l 473 949 m 213 949 l 213 1123 l 387 1123 l 387 949 l 213 949 z "},"Ỳ":{"ha":690,"x_min":-2,"x_max":692,"o":"m 258 0 l 258 391 l -2 1215 l 172 1215 l 345 608 l 519 1215 l 692 1215 l 432 391 l 432 0 l 258 0 m 302 1297 l 128 1557 l 302 1557 l 389 1297 l 302 1297 z "},"ỳ":{"ha":571,"x_min":14,"x_max":578,"o":"m 57 -217 l 57 -87 q 139 -80 109 -87 q 186 -56 170 -73 q 206 -18 201 -39 q 210 39 210 3 l 14 868 l 187 868 q 296 260 288 310 q 329 453 311 352 q 369 677 347 555 q 404 868 392 800 l 578 868 l 361 -43 q 269 -177 339 -138 q 75 -217 199 -217 l 57 -217 m 245 949 l 72 1210 l 245 1210 l 332 949 l 245 949 z "},"–":{"ha":260,"x_min":0,"x_max":260,"o":"m 0 304 l 0 434 l 260 434 l 260 304 l 0 304 z "},"—":{"ha":260,"x_min":0,"x_max":260,"o":"m 0 304 l 0 434 l 260 434 l 260 304 l 0 304 z "},"‘":{"ha":347,"x_min":85,"x_max":260,"o":"m 87 868 q 86 933 87 890 q 85 996 85 976 q 87 1065 85 1036 q 98 1124 90 1094 q 120 1173 106 1154 q 159 1203 134 1192 q 217 1215 183 1215 l 260 1128 q 194 1108 214 1128 q 174 1042 174 1088 l 260 1042 l 260 868 l 87 868 z "},"’":{"ha":347,"x_min":87,"x_max":260,"o":"m 130 868 l 87 955 q 154 975 134 955 q 174 1042 174 996 l 87 1042 l 87 1215 l 260 1215 q 258 1051 260 1118 q 254 989 257 1015 q 243 940 252 964 q 222 900 235 915 q 185 877 208 886 q 130 868 163 868 z "},"‚":{"ha":260,"x_min":42,"x_max":216,"o":"m 85 -218 l 42 43 l 216 43 l 172 -218 l 85 -218 z "},"“":{"ha":608,"x_min":85,"x_max":521,"o":"m 347 868 q 346 933 347 890 q 345 996 345 976 q 348 1065 345 1036 q 358 1124 350 1094 q 380 1173 366 1154 q 419 1203 395 1192 q 477 1215 444 1215 l 521 1128 q 454 1108 474 1128 q 434 1042 434 1088 l 521 1042 l 521 868 l 347 868 m 87 868 q 86 933 87 890 q 85 996 85 976 q 87 1065 85 1036 q 98 1124 90 1094 q 120 1173 106 1154 q 159 1203 134 1192 q 217 1215 183 1215 l 260 1128 q 194 1108 214 1128 q 174 1042 174 1088 l 260 1042 l 260 868 l 87 868 z "},"”":{"ha":608,"x_min":87,"x_max":521,"o":"m 391 868 l 347 955 q 414 975 394 955 q 434 1042 434 996 l 347 1042 l 347 1215 l 521 1215 q 519 1051 521 1118 q 515 989 517 1015 q 504 940 512 964 q 482 900 496 915 q 446 877 469 886 q 391 868 423 868 m 130 868 l 87 955 q 154 975 134 955 q 174 1042 174 996 l 87 1042 l 87 1215 l 260 1215 q 258 1051 260 1118 q 254 989 257 1015 q 243 940 252 964 q 222 900 235 915 q 185 877 208 886 q 130 868 163 868 z "},"„":{"ha":477,"x_min":42,"x_max":435,"o":"m 304 -217 l 261 43 l 435 43 l 391 -217 l 304 -217 m 85 -217 l 42 43 l 216 43 l 172 -217 l 85 -217 z "},"†":{"ha":576,"x_min":68,"x_max":509,"o":"m 203 0 l 203 671 l 68 671 l 68 807 l 203 807 l 203 1042 l 373 1042 l 373 807 l 509 807 l 509 671 l 373 671 l 373 0 l 203 0 z "},"‡":{"ha":576,"x_min":68,"x_max":509,"o":"m 203 0 l 203 339 l 68 339 l 68 475 l 203 475 l 203 712 l 68 712 l 68 848 l 203 848 l 203 1042 l 373 1042 l 373 848 l 509 848 l 509 712 l 373 712 l 373 475 l 509 475 l 509 339 l 373 339 l 373 0 l 203 0 z "},"•":{"ha":651,"x_min":150,"x_max":509,"o":"m 330 404 q 198 460 246 404 q 150 604 150 517 q 198 749 150 692 q 330 805 245 805 q 461 748 413 805 q 509 604 509 692 q 461 460 509 516 q 330 404 414 404 z "},"‹":{"ha":395,"x_min":43,"x_max":347,"o":"m 347 43 l 43 391 l 43 477 l 347 825 l 347 608 l 174 435 l 347 260 l 347 43 z "},"›":{"ha":391,"x_min":43,"x_max":347,"o":"m 43 43 l 43 260 l 217 435 l 43 608 l 43 825 l 347 477 l 347 391 l 43 43 z "},"⁄":{"ha":364,"x_min":12,"x_max":353,"o":"m 12 260 l 204 1289 l 353 1289 l 161 260 l 12 260 z "},"⁴":{"ha":521,"x_min":43,"x_max":477,"o":"m 174 651 l 260 651 l 260 825 l 174 651 m 260 391 l 260 564 l 43 564 l 43 651 l 274 1042 l 391 1042 l 391 651 l 477 651 l 477 564 l 391 564 l 391 391 l 260 391 z "},"€":{"ha":659,"x_min":0,"x_max":616,"o":"m 449 1 q 424 -9 449 1 q 335 -18 399 -18 q 221 -1 271 -18 q 140 48 172 17 q 87 125 108 79 q 57 224 66 172 q 46 345 48 277 l 0 345 l 0 457 l 46 457 l 46 561 l 0 561 l 0 673 l 47 673 q 58 793 50 741 q 87 894 67 846 q 138 974 107 942 q 218 1023 170 1005 q 330 1042 267 1042 q 463 1017 408 1042 q 550 944 518 991 q 597 834 582 896 q 612 690 612 772 l 443 690 q 334 888 443 888 q 303 885 317 888 q 278 876 289 882 q 259 863 268 869 q 245 845 251 857 q 234 824 239 833 q 227 798 230 814 q 223 770 224 781 q 220 739 221 759 q 219 707 219 719 q 218 673 218 696 l 351 673 l 351 561 l 218 561 l 218 457 l 351 457 l 351 345 l 220 345 q 223 292 221 312 q 229 244 224 271 q 241 201 233 218 q 261 169 249 185 q 293 146 274 153 q 338 139 313 139 q 389 153 368 139 q 421 189 410 168 q 439 242 432 210 q 447 302 446 275 q 449 367 449 330 l 616 367 q 609 242 616 298 q 581 137 601 186 q 529 54 561 87 q 449 1 498 20 z "},"™":{"ha":1495,"x_min":103,"x_max":974,"o":"m 214 465 l 214 925 l 103 925 l 103 1029 l 440 1029 l 440 925 l 329 925 l 329 465 l 214 465 m 503 465 l 503 1029 l 667 1029 l 737 722 l 810 1029 l 974 1029 l 974 465 l 865 465 l 865 842 l 772 465 l 703 465 l 610 842 l 610 465 l 503 465 z "},"∏":{"ha":825,"x_min":87,"x_max":738,"o":"m 87 0 l 87 1215 l 738 1215 l 738 0 l 564 0 l 564 1085 l 260 1085 l 260 0 l 87 0 z "},"−":{"ha":521,"x_min":0,"x_max":509,"o":"m 0 372 l 0 474 l 509 474 l 509 372 l 0 372 z "},"∕":{"ha":364,"x_min":12,"x_max":353,"o":"m 12 260 l 204 1289 l 353 1289 l 161 260 l 12 260 z "},"∫":{"ha":477,"x_min":0,"x_max":434,"o":"m 107 -174 q 0 -165 65 -174 l 0 -37 q 58 -43 41 -43 q 116 -16 102 -43 q 130 65 130 12 l 130 911 q 135 1002 130 964 q 152 1074 139 1040 q 186 1128 164 1107 q 242 1160 208 1148 q 327 1172 277 1172 q 434 1164 369 1172 l 434 1035 q 406 1039 427 1036 q 376 1042 385 1042 q 318 1014 332 1042 q 304 933 304 987 l 304 87 q 299 -4 304 33 q 283 -76 295 -42 q 249 -130 271 -110 q 192 -162 227 -151 q 107 -174 157 -174 z "},"ﬁ":{"ha":804,"x_min":31,"x_max":718,"o":"m 544 998 l 544 1172 l 718 1172 l 718 998 l 544 998 m 118 0 l 118 738 l 31 738 l 31 868 l 118 868 l 118 901 q 122 995 118 956 q 139 1068 126 1033 q 173 1125 151 1104 q 230 1159 194 1147 q 315 1172 265 1172 q 422 1164 357 1172 l 422 1035 q 394 1039 415 1036 q 363 1042 373 1042 q 306 1014 320 1042 q 292 933 292 987 l 292 868 l 718 868 l 718 0 l 544 0 l 544 738 l 292 738 l 292 0 l 118 0 z "},"ﬂ":{"ha":787,"x_min":31,"x_max":707,"o":"m 118 0 l 118 738 l 31 738 l 31 868 l 118 868 l 118 901 q 122 995 118 956 q 139 1068 126 1033 q 173 1125 151 1104 q 230 1159 194 1147 q 315 1172 265 1172 q 454 1167 389 1172 q 564 1158 520 1163 q 707 1140 608 1153 l 707 0 l 533 0 l 533 1032 q 363 1042 427 1042 q 306 1014 320 1042 q 292 933 292 987 l 292 868 l 422 868 l 422 738 l 292 738 l 292 0 l 118 0 z "}}}
